<?xml version="1.0" encoding="utf-8"?>
<!-- Generator: Adobe Illustrator 17.0.0, SVG Export Plug-In . SVG Version: 6.00 Build 0)  -->
<!DOCTYPE svg PUBLIC "-//W3C//DTD SVG 1.1//EN" "http://www.w3.org/Graphics/SVG/1.1/DTD/svg11.dtd" [
	<!ENTITY ns_flows "http://ns.adobe.com/Flows/1.0/">
	<!ENTITY ns_extend "http://ns.adobe.com/Extensibility/1.0/">
	<!ENTITY ns_ai "http://ns.adobe.com/AdobeIllustrator/10.0/">
	<!ENTITY ns_graphs "http://ns.adobe.com/Graphs/1.0/">
]>
<svg version="1.1" id="Layer_1" xmlns:x="&ns_extend;" xmlns:i="&ns_ai;" xmlns:graph="&ns_graphs;"
	 xmlns="http://www.w3.org/2000/svg" xmlns:xlink="http://www.w3.org/1999/xlink" xmlns:a="http://ns.adobe.com/AdobeSVGViewerExtensions/3.0/"
	 x="0px" y="0px" width="18.1px" height="12.4px" viewBox="0 0 18.1 12.4" enable-background="new 0 0 18.1 12.4"
	 xml:space="preserve">
<g>
	<path fill="#010101" d="M2.2,1.8L8,6.4c0.3,0.2,0.6,0.3,1,0.3c0.4,0,0.7-0.1,1-0.3l5.8-4.6c0.5-0.4,0.4-0.7-0.2-0.7h-13
		C1.9,1.1,1.8,1.4,2.2,1.8L2.2,1.8z M2.2,1.8"/>
	<path fill="#FFFFFF" d="M16.1,2.3L9.8,7.1C9.6,7.2,9.3,7.3,9,7.3c-0.3,0-0.6-0.1-0.9-0.3L1.8,2.3C1.3,1.9,1,2.1,1,2.7v7.8
		c0,0.6,0.5,1.1,1.1,1.1h13.9c0.6,0,1.1-0.5,1.1-1.1V2.7C17,2.1,16.6,1.9,16.1,2.3L16.1,2.3z M16.1,2.3"/>
</g>
</svg>
