<?xml version="1.0" encoding="utf-8"?>
<!-- Generator: Adobe Illustrator 17.0.0, SVG Export Plug-In . SVG Version: 6.00 Build 0)  -->
<!DOCTYPE svg PUBLIC "-//W3C//DTD SVG 1.1//EN" "http://www.w3.org/Graphics/SVG/1.1/DTD/svg11.dtd" [
	<!ENTITY ns_flows "http://ns.adobe.com/Flows/1.0/">
	<!ENTITY ns_extend "http://ns.adobe.com/Extensibility/1.0/">
	<!ENTITY ns_ai "http://ns.adobe.com/AdobeIllustrator/10.0/">
	<!ENTITY ns_graphs "http://ns.adobe.com/Graphs/1.0/">
]>
<svg version="1.1" id="Layer_1" xmlns:x="&ns_extend;" xmlns:i="&ns_ai;" xmlns:graph="&ns_graphs;"
	 xmlns="http://www.w3.org/2000/svg" xmlns:xlink="http://www.w3.org/1999/xlink" xmlns:a="http://ns.adobe.com/AdobeSVGViewerExtensions/3.0/"
	 x="0px" y="0px" width="206.6px" height="58.6px" viewBox="0 0 206.6 58.6" enable-background="new 0 0 206.6 58.6"
	 xml:space="preserve">
<g>
	<path fill="#818181" d="M79.1,35.6h0.6l1.7,4.1v-4.1h0.7v6.1h-0.5l-1.8-4.2v4.2h-0.7V35.6z"/>
	<path fill="#818181" d="M84.1,35.6h0.8l1.3,6.1h-0.8l-0.3-1.5h-1.2l-0.3,1.5h-0.8L84.1,35.6z M85,39.6l-0.5-2.8L84,39.6H85z"/>
	<path fill="#818181" d="M86.9,35.6h0.8l1.1,5l1.1-5h0.8l0.1,6.1h-0.7l-0.1-4.4l-1,4.4h-0.5l-1-4.4l-0.1,4.4h-0.7L86.9,35.6z"/>
	<path fill="#818181" d="M93.2,35.6H94l1,4.5l0.9-4.5h0.8l-1.4,6.1h-0.7L93.2,35.6z"/>
	<path fill="#818181" d="M97.4,35.6h0.8v6.1h-0.8V35.6z"/>
	<path fill="#818181" d="M99.2,35.6h2.4v0.6h-1.5v2h1.2v0.6h-1.2v2.2h1.5v0.6h-2.4V35.6z"/>
	<path fill="#818181" d="M102.9,36.3h-1.1v-0.6h3v0.6h-1.1v5.5h-0.9V36.3z"/>
	<path fill="#818181" d="M106.6,41.3c0.3,0,0.4,0,0.6-0.1c0.1,0,0.2-0.1,0.3-0.3c0-0.1,0.1-0.3,0.1-0.6v-4.7h0.8v4.7
		c0,0.4,0,0.7-0.1,0.9c-0.1,0.2-0.2,0.4-0.4,0.5c-0.2,0.1-0.5,0.2-0.8,0.2h-0.4V41.3z"/>
	<path fill="#818181" d="M109.6,41.3c-0.3-0.3-0.4-0.8-0.4-1.5v-2.3c0-0.6,0.1-1.1,0.4-1.4c0.3-0.3,0.7-0.5,1.3-0.5s1,0.2,1.3,0.5
		c0.3,0.3,0.4,0.8,0.4,1.4v2.3c0,0.6-0.1,1.1-0.4,1.5s-0.7,0.5-1.3,0.5C110.3,41.8,109.9,41.7,109.6,41.3z M111.6,40.9
		c0.1-0.2,0.2-0.5,0.2-0.8v-2.7c0-0.4-0.1-0.6-0.2-0.8c-0.1-0.2-0.3-0.3-0.6-0.3c-0.3,0-0.5,0.1-0.7,0.3c-0.1,0.2-0.2,0.5-0.2,0.8
		V40c0,0.4,0.1,0.7,0.2,0.8s0.3,0.3,0.7,0.3C111.2,41.2,111.4,41.1,111.6,40.9z"/>
	<path fill="#818181" d="M113.5,35.6h0.8v6.1h-0.8V35.6z"/>
	<path fill="#818181" d="M115.3,35.6h0.6l1.7,4.1v-4.1h0.7v6.1h-0.5l-1.8-4.2v4.2h-0.7V35.6z"/>
	<path fill="#818181" d="M121.3,41.3c-0.3-0.3-0.4-0.8-0.4-1.3l0.8-0.2c0,0.4,0.1,0.7,0.2,1s0.3,0.4,0.6,0.4c0.2,0,0.4-0.1,0.5-0.2
		c0.1-0.1,0.2-0.3,0.2-0.5c0-0.2-0.1-0.5-0.2-0.6c-0.1-0.2-0.3-0.4-0.5-0.6l-1-0.9c-0.2-0.2-0.4-0.4-0.5-0.6s-0.1-0.5-0.1-0.8
		c0-0.5,0.1-0.8,0.4-1c0.3-0.2,0.6-0.4,1.1-0.4c0.5,0,0.8,0.1,1.1,0.4c0.2,0.3,0.4,0.7,0.4,1.2l-0.7,0.2c0-0.3-0.1-0.6-0.2-0.8
		s-0.3-0.3-0.6-0.3c-0.5,0-0.7,0.2-0.7,0.7c0,0.2,0,0.3,0.1,0.5c0.1,0.1,0.2,0.2,0.3,0.4l1,0.9c0.3,0.2,0.5,0.5,0.6,0.8
		c0.2,0.3,0.2,0.6,0.2,0.9c0,0.4-0.1,0.8-0.4,1.1c-0.3,0.3-0.6,0.4-1.1,0.4C121.9,41.8,121.6,41.7,121.3,41.3z"/>
	<path fill="#818181" d="M125.2,36.3h-1.1v-0.6h3v0.6h-1.1v5.5h-0.9V36.3z"/>
	<path fill="#818181" d="M127.9,41.3c-0.3-0.3-0.4-0.8-0.4-1.5v-2.3c0-0.6,0.1-1.1,0.4-1.4c0.3-0.3,0.7-0.5,1.3-0.5s1,0.2,1.3,0.5
		c0.3,0.3,0.4,0.8,0.4,1.4v2.3c0,0.6-0.1,1.1-0.4,1.5s-0.7,0.5-1.3,0.5C128.6,41.8,128.2,41.7,127.9,41.3z M129.8,40.9
		c0.1-0.2,0.2-0.5,0.2-0.8v-2.7c0-0.4-0.1-0.6-0.2-0.8c-0.1-0.2-0.3-0.3-0.6-0.3c-0.3,0-0.5,0.1-0.7,0.3c-0.1,0.2-0.2,0.5-0.2,0.8
		V40c0,0.4,0.1,0.7,0.2,0.8s0.3,0.3,0.7,0.3C129.5,41.2,129.7,41.1,129.8,40.9z"/>
	<path fill="#818181" d="M132,41.3c-0.2-0.4-0.4-0.9-0.4-1.5v-2.2c0-0.7,0.1-1.2,0.4-1.5c0.2-0.3,0.7-0.5,1.3-0.5
		c0.5,0,0.9,0.1,1.2,0.4c0.2,0.3,0.4,0.7,0.4,1.3v0.5H134v-0.4c0-0.3,0-0.5,0-0.6c0-0.2-0.1-0.3-0.2-0.4c-0.1-0.1-0.3-0.1-0.5-0.1
		c-0.2,0-0.4,0-0.5,0.1c-0.1,0.1-0.2,0.2-0.2,0.4s-0.1,0.4-0.1,0.7v2.4c0,0.3,0,0.6,0.1,0.7c0.1,0.2,0.1,0.3,0.2,0.4
		c0.1,0.1,0.3,0.1,0.5,0.1c0.2,0,0.4,0,0.5-0.1c0.1-0.1,0.2-0.2,0.2-0.4s0-0.4,0-0.7v-0.5h0.8v0.5c0,0.6-0.1,1.1-0.3,1.4
		c-0.2,0.3-0.6,0.5-1.2,0.5C132.6,41.8,132.2,41.6,132,41.3z"/>
	<path fill="#818181" d="M135.6,35.6h0.9v2.9l1.4-2.9h0.8l-1.2,2.7l1.4,3.4H138l-1.2-2.9l-0.4,0.7v2.2h-0.9V35.6z"/>
	<path fill="#818181" d="M141.1,35.6h0.8v6.1h-0.8V35.6z"/>
	<path fill="#818181" d="M142.9,35.6h0.6l1.7,4.1v-4.1h0.7v6.1h-0.5l-1.8-4.2v4.2h-0.7V35.6z"/>
	<path fill="#818181" d="M147.2,41.3c-0.3-0.3-0.4-0.8-0.4-1.3l0.8-0.2c0,0.4,0.1,0.7,0.2,1s0.3,0.4,0.6,0.4c0.2,0,0.4-0.1,0.5-0.2
		c0.1-0.1,0.2-0.3,0.2-0.5c0-0.2-0.1-0.5-0.2-0.6c-0.1-0.2-0.3-0.4-0.5-0.6l-1-0.9c-0.2-0.2-0.4-0.4-0.5-0.6s-0.1-0.5-0.1-0.8
		c0-0.5,0.1-0.8,0.4-1c0.3-0.2,0.6-0.4,1.1-0.4c0.5,0,0.8,0.1,1.1,0.4c0.2,0.3,0.4,0.7,0.4,1.2l-0.7,0.2c0-0.3-0.1-0.6-0.2-0.8
		s-0.3-0.3-0.6-0.3c-0.5,0-0.7,0.2-0.7,0.7c0,0.2,0,0.3,0.1,0.5c0.1,0.1,0.2,0.2,0.3,0.4l1,0.9c0.3,0.2,0.5,0.5,0.6,0.8
		c0.2,0.3,0.2,0.6,0.2,0.9c0,0.4-0.1,0.8-0.4,1.1c-0.3,0.3-0.6,0.4-1.1,0.4C147.9,41.8,147.5,41.7,147.2,41.3z"/>
	<path fill="#818181" d="M150.5,35.6h1.5c0.5,0,0.9,0.1,1.2,0.4c0.2,0.3,0.4,0.7,0.4,1.3c0,0.5-0.1,0.9-0.4,1.2
		c-0.3,0.3-0.6,0.4-1.1,0.4h-0.7v2.9h-0.9V35.6z M151.8,38.3c0.3,0,0.4,0,0.6-0.1s0.2-0.2,0.3-0.3c0.1-0.1,0.1-0.3,0.1-0.6
		c0-0.3,0-0.5-0.1-0.7s-0.1-0.2-0.3-0.3c-0.1-0.1-0.3-0.1-0.6-0.1h-0.4v2H151.8z"/>
	<path fill="#818181" d="M154.1,35.6h2.4v0.6H155v2h1.2v0.6H155v2.2h1.5v0.6h-2.4V35.6z"/>
	<path fill="#818181" d="M157.5,41.3c-0.2-0.4-0.4-0.9-0.4-1.5v-2.2c0-0.7,0.1-1.2,0.4-1.5c0.2-0.3,0.7-0.5,1.3-0.5
		c0.5,0,0.9,0.1,1.2,0.4c0.2,0.3,0.4,0.7,0.4,1.3v0.5h-0.8v-0.4c0-0.3,0-0.5,0-0.6c0-0.2-0.1-0.3-0.2-0.4c-0.1-0.1-0.3-0.1-0.5-0.1
		c-0.2,0-0.4,0-0.5,0.1c-0.1,0.1-0.2,0.2-0.2,0.4s-0.1,0.4-0.1,0.7v2.4c0,0.3,0,0.6,0.1,0.7c0.1,0.2,0.1,0.3,0.2,0.4
		c0.1,0.1,0.3,0.1,0.5,0.1c0.2,0,0.4,0,0.5-0.1c0.1-0.1,0.2-0.2,0.2-0.4s0-0.4,0-0.7v-0.5h0.8v0.5c0,0.6-0.1,1.1-0.3,1.4
		c-0.2,0.3-0.6,0.5-1.2,0.5C158.1,41.8,157.7,41.6,157.5,41.3z"/>
	<path fill="#818181" d="M161.7,36.3h-1.1v-0.6h3v0.6h-1.1v5.5h-0.9V36.3z"/>
	<path fill="#818181" d="M164.2,35.6h0.8v6.1h-0.8V35.6z"/>
	<path fill="#818181" d="M166.3,41.3c-0.3-0.3-0.4-0.8-0.4-1.5v-2.3c0-0.6,0.1-1.1,0.4-1.4c0.3-0.3,0.7-0.5,1.3-0.5s1,0.2,1.3,0.5
		c0.3,0.3,0.4,0.8,0.4,1.4v2.3c0,0.6-0.1,1.1-0.4,1.5s-0.7,0.5-1.3,0.5C167,41.8,166.5,41.7,166.3,41.3z M168.2,40.9
		c0.1-0.2,0.2-0.5,0.2-0.8v-2.7c0-0.4-0.1-0.6-0.2-0.8c-0.1-0.2-0.3-0.3-0.6-0.3c-0.3,0-0.5,0.1-0.7,0.3c-0.1,0.2-0.2,0.5-0.2,0.8
		V40c0,0.4,0.1,0.7,0.2,0.8s0.3,0.3,0.7,0.3C167.9,41.2,168.1,41.1,168.2,40.9z"/>
	<path fill="#818181" d="M170.1,35.6h0.6l1.7,4.1v-4.1h0.7v6.1h-0.5l-1.8-4.2v4.2h-0.7V35.6z"/>
	<path fill="#818181" d="M176.1,41.3c-0.2-0.4-0.4-0.9-0.4-1.5v-2.2c0-0.7,0.1-1.2,0.4-1.5c0.2-0.3,0.7-0.5,1.3-0.5
		c0.5,0,0.9,0.1,1.2,0.4c0.2,0.3,0.4,0.7,0.4,1.3v0.5h-0.8v-0.4c0-0.3,0-0.5,0-0.6c0-0.2-0.1-0.3-0.2-0.4c-0.1-0.1-0.3-0.1-0.5-0.1
		c-0.2,0-0.4,0-0.5,0.1c-0.1,0.1-0.2,0.2-0.2,0.4s-0.1,0.4-0.1,0.7v2.4c0,0.3,0,0.6,0.1,0.7c0.1,0.2,0.1,0.3,0.2,0.4
		c0.1,0.1,0.3,0.1,0.5,0.1c0.2,0,0.4,0,0.5-0.1c0.1-0.1,0.2-0.2,0.2-0.4s0-0.4,0-0.7v-0.5h0.8v0.5c0,0.6-0.1,1.1-0.3,1.4
		c-0.2,0.3-0.6,0.5-1.2,0.5C176.7,41.8,176.3,41.6,176.1,41.3z"/>
	<path fill="#818181" d="M180,41.3c-0.3-0.3-0.4-0.8-0.4-1.5v-2.3c0-0.6,0.1-1.1,0.4-1.4c0.3-0.3,0.7-0.5,1.3-0.5s1,0.2,1.3,0.5
		c0.3,0.3,0.4,0.8,0.4,1.4v2.3c0,0.6-0.1,1.1-0.4,1.5s-0.7,0.5-1.3,0.5C180.7,41.8,180.2,41.7,180,41.3z M181.9,40.9
		c0.1-0.2,0.2-0.5,0.2-0.8v-2.7c0-0.4-0.1-0.6-0.2-0.8c-0.1-0.2-0.3-0.3-0.6-0.3c-0.3,0-0.5,0.1-0.7,0.3c-0.1,0.2-0.2,0.5-0.2,0.8
		V40c0,0.4,0.1,0.7,0.2,0.8s0.3,0.3,0.7,0.3C181.6,41.2,181.8,41.1,181.9,40.9z"/>
	<path fill="#818181" d="M183.9,35.6h0.8l1.1,5l1.1-5h0.8l0.1,6.1h-0.7l-0.1-4.4l-1,4.4h-0.5l-1-4.4l-0.1,4.4h-0.7L183.9,35.6z"/>
	<path fill="#818181" d="M188.8,35.6h1.5c0.5,0,0.9,0.1,1.2,0.4c0.2,0.3,0.4,0.7,0.4,1.3c0,0.5-0.1,0.9-0.4,1.2
		c-0.3,0.3-0.6,0.4-1.1,0.4h-0.7v2.9h-0.9V35.6z M190,38.3c0.3,0,0.4,0,0.6-0.1s0.2-0.2,0.3-0.3c0.1-0.1,0.1-0.3,0.1-0.6
		c0-0.3,0-0.5-0.1-0.7s-0.1-0.2-0.3-0.3c-0.1-0.1-0.3-0.1-0.6-0.1h-0.4v2H190z"/>
	<path fill="#818181" d="M193.1,35.6h0.8l1.3,6.1h-0.8l-0.3-1.5h-1.2l-0.3,1.5h-0.8L193.1,35.6z M194,39.6l-0.5-2.8l-0.5,2.8H194z"
		/>
	<path fill="#818181" d="M195.8,35.6h0.6l1.7,4.1v-4.1h0.7v6.1h-0.5l-1.8-4.2v4.2h-0.7V35.6z"/>
	<path fill="#818181" d="M200.8,39.6l-1.3-4h0.8l0.9,3l0.9-3h0.8l-1.3,4v2.2h-0.8V39.6z"/>
</g>
<g>
	<path fill-rule="evenodd" clip-rule="evenodd" fill="#1794CC" d="M36.1,2.5c18.6,0,33.7,9.5,33.7,21.1c0,11.7-15.1,21.1-33.7,21.1
		S2.5,35.3,2.5,23.6C2.5,11.9,17.5,2.5,36.1,2.5z"/>
	<g>
		<defs>
			<path id="SVGID_1_" d="M36.1,2.5c18.6,0,33.7,9.5,33.7,21.1c0,11.7-15.1,21.1-33.7,21.1S2.5,35.3,2.5,23.6
				C2.5,11.9,17.5,2.5,36.1,2.5z"/>
		</defs>
		<clipPath id="SVGID_2_">
			<use xlink:href="#SVGID_1_"  overflow="visible"/>
		</clipPath>
		<g clip-path="url(#SVGID_2_)">
			
				<path fill-rule="evenodd" clip-rule="evenodd" fill="none" stroke="#FFFFFF" stroke-width="0.7232" stroke-miterlimit="22.9256" d="
				M65.2,12.8c-5.9,2.4-16.8,4-29,4c-12.3,0-23.1-1.6-29.1-4"/>
			
				<path fill-rule="evenodd" clip-rule="evenodd" fill="none" stroke="#FFFFFF" stroke-width="0.7232" stroke-miterlimit="22.9256" d="
				M67.3,31.5c-5.2,2.9-17.3,5-31.1,5c-13.9,0-26-2-31.2-5"/>
			
				<path fill-rule="evenodd" clip-rule="evenodd" fill="none" stroke="#FFFFFF" stroke-width="0.7232" stroke-miterlimit="22.9256" d="
				M69.3,21.4c-3,3.8-16.9,6.7-33.2,6.6c-16.4-0.1-30.4-4-33.3-6.8"/>
			<g>
				
					<path fill-rule="evenodd" clip-rule="evenodd" fill="none" stroke="#FFFFFF" stroke-width="0.7232" stroke-miterlimit="22.9256" d="
					M35.4,44.9c8.7,0,15.7-9.5,15.7-21.2C51.1,12,44,2.5,35.4,2.5c-8.7,0-15.7,9.5-15.7,21.2C19.6,35.4,26.7,44.9,35.4,44.9z"/>
				
					<path fill-rule="evenodd" clip-rule="evenodd" fill="none" stroke="#FFFFFF" stroke-width="0.7232" stroke-miterlimit="22.9256" d="
					M35.4,44.9c2.8,0,5-9.5,5-21.2c0-11.7-2.3-21.2-5-21.2c-2.8,0-5,9.5-5,21.2C30.3,35.4,32.6,44.9,35.4,44.9z"/>
			</g>
		</g>
		<g clip-path="url(#SVGID_2_)">
			<path fill-rule="evenodd" clip-rule="evenodd" fill="#B24642" d="M49.4,2.4L49.4,2.4L49.4,2.4L49.4,2.4L49.4,2.4z M48.6,0.5v0.1
				h-0.1l-0.1,0.1l-0.1,0.1v0.4h-0.1l-0.1,0.1l-0.1,0.1v0.3l0.1,0.1l0.1,0.1l0.1,0.1L48.3,2L48.4,2l0.1,0.1l0.1,0.1l0.1,0.1l0.1,0.1
				h0.1v0.1l0.1,0.1h0.4l0.1-0.1l0.2-0.1l-0.1,0.1l-0.1,0.1v0.2l0.1,0.1l0.1,0.1h0.3l0.5-0.1l0.1-0.1l0.1-0.1l0.2-0.1l0.1-0.1V2.2
				h-0.1V2L50.5,2l-0.1-0.1l-0.1-0.1l-0.1-0.1l-0.2-0.1H50h-0.2l-0.1-0.5l-0.1-0.1L49.2,1V1l0.2-0.1V0.5l-0.1-0.1l-0.1-0.1h-0.5
				L48.6,0.5z"/>
			<path fill-rule="evenodd" clip-rule="evenodd" fill="#B24642" d="M37.4,2.9L37.4,2.9l0.1-0.1h0.1v0.4h-0.1V2.9L37.4,2.9z
				 M36.7,2.4h0.1v0.1h-0.1V2.4L36.7,2.4z M37.8,0.1l-0.1,0.1h-0.2h-0.2l-0.2,0.1l-0.1,0.1v0.4l0.1,0.1l-0.3,0.1l-0.1,0.1h-0.1
				l-0.1-0.1h-0.3l-0.2,0.1l-0.1,0.2L36,1.9v0.6l0.1,0.1l0.4,0.1l-0.1,0.5v0.5l0.1,0.1h0.1v0.1L36.7,4L36.7,4l0.1,0.1l0.1,0.1
				L37,4.3h0.2l0.1-0.1l0.1-0.8V3.3h0.2v0.1l0.1,0.1H38l0.1-0.1l0.1-0.1l0.1-0.1l0.1-0.1V3L38.2,3l-0.1-0.1l-0.1-0.1l-0.1-0.1
				L38,2.6l-0.1-0.1h-0.3h-0.1l0.1-0.1V2.2l-0.1-0.1l-0.1-0.4h-0.1V1.5h0.1v0.1l0.1,0.1l0.1,0.1h0.8l0.1-0.1l0.1-0.1l0.1-0.3
				l0.1-0.1L38.8,1L38.9,1V0.6l-0.1-0.1l-0.1-0.1l-0.1-0.1l-0.1-0.1l-0.1-0.1L38.2,0L38.1,0h-0.2v0.1H37.8z"/>
			<polygon fill-rule="evenodd" clip-rule="evenodd" fill="#B24642" points="16.6,2.8 16.4,2.9 16.3,3 16.2,3 16.1,3.1 16,3.2 
				16,3.2 15.9,3.4 15.9,3.5 15.8,3.7 15.8,3.8 15.8,4.2 15.8,4.3 15.9,4.4 16.4,4.4 16.4,4.2 16.6,4.2 16.6,4.1 16.7,4.1 16.7,4.5 
				16.6,4.5 16.6,4.8 16.6,5.1 16.6,5.2 17.1,5.2 17.1,5.5 17.1,5.5 17.2,5.6 17.7,5.6 17.8,5.5 17.9,5.5 17.9,5.4 18.2,5.3 
				18.2,5.2 18.4,5.2 18.5,5.1 18.5,5 18.6,5 18.6,4.9 18.7,4.7 18.7,4.5 18.6,4.4 18.6,4.3 18.5,4.2 18.5,4.2 18.4,4.1 18.3,4 
				18.2,4 18.2,3.8 18.1,3.7 18.1,3.7 17.8,3.7 17.7,3.7 17.7,4.2 17.6,4.1 17.5,4 17.4,3.9 17.4,3.8 16.9,3.8 17,3.7 17,3.3 
				17.1,3.2 17.1,2.9 17,2.8 17,2.7 16.6,2.7 			"/>
			<polygon fill-rule="evenodd" clip-rule="evenodd" fill="#B24642" points="55.2,4.7 55.1,4.8 55,5 55,5 55,5.5 55,5.7 55.1,5.8 
				55.2,5.9 55.5,5.9 55.6,5.8 55.7,5.7 55.8,5.7 55.9,5.6 55.9,5.5 55.9,5.1 55.9,5 55.8,5 55.8,4.9 55.7,4.7 55.6,4.6 55.3,4.6 
				55.3,4.7 			"/>
			<polygon fill-rule="evenodd" clip-rule="evenodd" fill="#B24642" points="30.8,10.2 30.8,10.2 30.7,10.3 30.7,10.4 30.6,10.4 
				30.6,10.8 30.7,10.8 30.7,11 30.8,11.1 30.8,11.4 30.9,11.4 31,11.5 31.1,11.6 31.2,11.7 31.2,11.7 31.3,11.8 32,11.8 32.1,11.7 
				32.2,11.7 32.3,11.6 32.3,11.5 32.4,11.4 32.4,11.2 32.5,11.1 32.5,10.4 32.4,10.4 32.4,10.3 32.3,10.2 31.6,10.2 31.4,10.2 
				31.3,10.2 31.2,10.1 30.9,10.1 			"/>
			<path fill-rule="evenodd" clip-rule="evenodd" fill="#B24642" d="M30-2h-0.2H30L30-2z M26.6-2.1L26.6-2.1L26.6-2.1L26.6-2.1z
				 M26.6-2.1L26.6-2.1L26.6-2.1L26.6-2.1L26.6-2.1z M28-4.4l-0.2,0.1l-0.1,0.1l-0.1,0.1l-0.1,0.1l-0.1,0.2l-0.1,0.1v0.4l0.1,0.3
				L27.6-3l0.1,0.1l0.1,0.2h-0.1l-0.1,0.1l-0.1,0.1h-0.2L27-2.6L27-2.7l-0.1-0.1h-0.3v0.1h-0.2l-0.1,0.1v0.4h-0.6l-0.2,0.1l-0.1,0.1
				L25.5-2v0.4l0.1,0.1h-0.3l-0.1,0.1l-0.1,0.2L25-1.1v0.3l0.1,0.1l0.1,0.4h-0.6l-0.1,0.1l-0.1,0.1L24.3,0L24.3,0l-0.1,0.1l-0.1,0.1
				v0.4l0.1,0.1l0.1,0.1l0.1,0.1h0.1V1v0.3l-0.1,0.1l-0.1,0.1l-0.2,0.1l-0.1,0.1L24,1.7L24,1.7l-0.3,0.1l-0.1,0.1L23.6,2L23.5,2v0.4
				l0.1,0.1l0.1,0.1L23.7,3l0.1,0.1l0.1,0.1v0.4l0.1,0.1L24,3.7l0.1,0l-0.1,0.1v0.4l0.1,0.1l0.1,0.1l0.2,0.1l0.8,0.1l0.2,0.1
				l0.4,0.1l0.1,0.1L25.9,5l0.1,0.1v0.2l-0.1,0.3V6l0.1,0.1L26,6.7L26,7.3l0.1,0.4l0.1,0.1l0.2,0l-0.1,0L26.2,8L26.1,8v0.5l0.1,0.1
				l0.1,0.1l0.1,0.1h0.3V9h-0.3l-0.2,0.1L26,9.2v0.4l0.1,0.1l0.1,0.1l0.1,0.1l0.1,0.1v0.1v0.1l0.1,0.2l0.1,0.5l0.1,0.1l0.1,0.1
				l0.1,0.6l0.1,0.5l0.1,0.1l0.1,0.7l0.1,0.1l0.1,0.1h0.3l0.2-0.1h0.1l0.1,0.4l0.1,0.1h0.5l0.1-0.1l0.1-0.1V13l-0.1-0.1v-0.2
				l0.1-0.2l0.1-0.4l0.1-0.3l0.1-0.1l0.1-0.1l0.1-0.1l0.1-0.1l0.1-0.2v-0.1v-0.1v-0.1h0.1v-0.1H29l0.1-0.1l0.2-0.1v-0.1h0.1l0.1-0.1
				l0.1-0.1l0.1-0.4l0.2-0.1L30,9.7l0.1-0.1l0.1-0.1l0.1-0.1l0.1-0.1l0.1-0.1l0.1-0.1l0.1-0.1L30.7,9l0.1-0.1L31,8.9L31,8.8l0.1-0.1
				l0.1-0.1l0.1-0.1V8.2h0.1V7.6l-0.1-0.4l-0.1-0.1l-0.1-0.1H31V7l-0.1-0.1l-0.1-0.1V6.5l0-0.2L31,6.5L31,6.5l0.1,0.1h0.2l0.1-0.1
				l0.1-0.1l0.1-0.1V6.2h-0.2V6h0.2L31.7,6l0.1-0.1V5.3l-0.1-0.1l-0.1-0.1V5.1V4.9h0.1V4.5l-0.1-0.2l-0.1-0.1l-0.1-0.1l-0.1-0.1
				h-0.2l0-0.2L31.4,4h0.3L31.9,4l0.1-0.1L32,3.8L32,3.7V3.4h-0.1V3.2l-0.1-0.1l-0.1-0.1h-0.2V2.9l-0.1-0.1l-0.1-0.2V2.5V2.1
				l-0.1-0.4V1.7V1.2l0.2,0.1H32l0.1-0.1l0.1-0.1V0.7l-0.1-0.1L32,0.6L32,0.5l-0.2-0.1H32l0.1-0.1l0.2-0.1l0.1-0.1V0h0.1l0.1-0.1
				v-0.4h0.2l0.1-0.1V-1L32.7-1l-0.1-0.1l-0.1-0.1l-0.3-0.1l-0.1-0.2l-0.1-0.1h-0.4l-0.3,0.1l-0.1,0.1l-0.1,0.1l-0.1,0.1L31-1
				L31-0.9l-0.1,0.1l-0.1,0.1l-0.1,0.1h-0.1l0.1-0.1l0.1-0.1l0.1-0.1l0.1-0.1v-0.2H31l0.1-0.2v-0.3L31-1.8l-0.1-0.1h-0.2h-0.2
				L30.5-2H30l0.5-0.1v-0.1h0.3l0.1-0.1V-3l-0.1-0.1l-0.1-0.1l-0.1-0.1l-0.1-0.1v-0.1l0.1-0.1l0.1-0.2l0.1-0.1v-0.1l-0.1-0.1L30.6-4
				L30.6-4l-0.1-0.1l-0.1-0.1l-0.6-0.1l-0.1-0.1l-0.1-0.1l-0.2-0.1h-1.4L28-4.4z"/>
			<polygon fill-rule="evenodd" clip-rule="evenodd" fill="#B24642" points="22.8,23.1 22.7,23.2 22.7,23.3 22.6,23.4 22.6,23.6 
				22.7,23.9 22.9,23.9 23.8,23.9 24,23.9 24,23.8 24.1,23.7 24.2,23.6 24.2,23.4 24.1,23.3 24,23.2 23.9,23.1 23.4,23.1 22.9,23.1 
							"/>
			<polygon fill-rule="evenodd" clip-rule="evenodd" fill="#B24642" points="52,23.6 51.9,23.8 51.9,24.1 51.9,24.4 51.9,24.4 
				52,24.5 52,24.6 52.1,24.6 52.2,24.6 52.1,24.8 52,24.9 51.9,24.9 51.7,25 51.7,25.1 51.6,25.1 51.5,25.2 51.4,25.3 51.3,25.4 
				51.3,25.7 51.2,25.8 51.1,25.9 51.1,26.1 51,26.1 50.9,26.2 50.8,26.3 50.7,26.4 50.6,26.4 50.6,26.5 50.6,26.6 50.2,26.6 
				50.2,26.7 50.1,26.8 50.1,27.1 50.2,27.2 50.2,27.6 50.3,27.8 50.4,27.9 50.5,27.9 50.5,28 50.6,28.1 50.9,28.1 51.1,28.1 
				51.3,28.1 51.5,28 51.6,27.9 51.6,27.8 51.7,27.7 51.7,28.3 51.8,28.4 52.1,28.4 52.3,28.3 52.4,28.2 52.5,28.1 52.5,28.1 
				52.6,28 52.6,27.5 52.5,27.5 52.5,27.3 52.9,27.3 52.9,27.2 52.9,26.8 52.8,26.7 52.2,26.7 52,26.8 51.9,26.9 51.9,26.5 52,26.4 
				52,26.2 51.9,26.1 51.9,25.9 51.8,25.9 51.8,25.8 51.9,25.7 52,25.6 52,25.6 52,25.4 52.1,25.4 52.3,25.4 52.2,25.4 52.2,25.9 
				52.3,26 52.4,26.1 52.5,26.1 52.7,26.2 52.9,26.2 53,26.1 53.1,26.1 53.1,26 53.2,25.9 53.2,25.9 53.2,25.5 53.2,25.4 53.1,25.4 
				53.1,25.3 52.7,25.2 52.7,24.9 52.9,24.9 52.9,24.4 52.9,24.4 52.7,24.4 52.7,24.2 52.7,24 52.7,23.8 52.7,23.6 52.4,23.5 
				52.1,23.5 			"/>
			<path fill-rule="evenodd" clip-rule="evenodd" fill="#B24642" d="M20.8,7.5l0.1,0.1l0.1,0.1L21,7.8l0.1,0.1L21.2,8l0.1,0.1
				l0.2,0.1v0.1v0.5h-0.1V8.6l-0.1-0.1h-0.5V8.4L20.7,8h-0.1V7.8l-0.1-1.1h0.1l0.1-0.1l0.1-0.1v0.4v0.2V7.5L20.8,7.5z M20.8,6.3
				C20.9,6.2,20.7,6.4,20.8,6.3L20.8,6.3z M19.8,3.4L19.8,3.4l-0.1,0.2l-0.1-0.1h-0.1l-0.2,0.1l-0.1,0.1l-0.1,0.1l-0.5,0.1L18.5,4
				v0.2l0.1,0.1l0.1,0.1l0.1,0.1l0.1,0.1l0.1,0.1l0.1,0.2l0.1,0.1L19.1,5L19.2,5l0.1,0.1h0.4L19.8,5l0.1-0.1V4.7V4.2l0-0.3L20,4
				l0.3,0.1l0.1,0.1h0.1v1l0.1,0.1l-0.1,0.1l-0.1,0.1l-0.1,0.1L20,5.6L20,5.7l-0.1,0.1l-0.1,0.1l0,0.2l0-0.2l-0.2-0.1l-0.2-0.1H19
				l-0.1,0.1L18.9,6l-0.1,0.4l-0.1,0.1v0.5L18.8,7l0.1,0.1l0.1,0.1L19,7.2L19,7.3l0.1,0.1l0.1,0.1l0.1,0.2l0.1,0.1l0.2,0.1l0.1,0.1
				L19.7,8l0.1,0.1l0.1,0.1l0.1,0.1L20,8.4v0.4l-0.1,0.1l-0.1,0.1L19.7,9h-0.9l0.1-0.1V8.5h0.2l0.1-0.1l0.1-0.1V8.2l-0.1-0.1L19.1,8
				L18.9,8l-0.1-0.1l-0.2-0.1l-0.1-0.1l-0.1-0.1h-0.1V7.5l-0.1-0.1h-0.1V7.2l-0.1-0.1L18.2,7l-0.1-0.1l-0.1-0.1L18,6.7l-0.1-0.1
				l-0.1-0.1l-0.1-0.1l-0.1-0.1l-0.1-0.1h-0.3V6h-0.2V5.8L17,5.7L17,5.7l-0.1-0.1l-0.2-0.1l-0.1-0.1l-0.1-0.1h-0.7l-0.1,0.1
				l-0.1,0.1l-0.1,0.1L15.5,6l-0.1,0.2l-0.1,0.6v0.3l0.1,0.4h0.1v0.2l0.1,0.1H16l0.1-0.1l0.1-0.1l0.1-0.1l0.1,0.1l0.1,0.1l0.1,0.1
				L16.6,8L16.7,8l-0.1,0.1v0.2l-0.2-0.1h-0.1V8h-0.1V7.9l-0.1-0.1h-0.4l-0.1,0.1L15.5,8h-0.1l-0.1-0.1H15L14.8,8L14.7,8l-0.2,0.1
				l-0.1,0.1l-0.1,0.1l-0.2,0.1L14,8.4l-0.3,0.1l-0.1-0.1l-0.1-0.1l-0.4-0.1L13,8.2l-0.1-0.1L12.9,8L12.8,8l-0.2-0.1l-0.5-0.1
				l-0.1-0.1l-0.2-0.1l-0.6-0.1l-0.1-0.1H11V7.4h-0.2v0.1h-0.5l-0.1,0.1l-0.1,0.1L10,7.7L9.9,7.8L9.9,7.9L9.8,8L9.8,8.1L9.7,8.2
				L9.5,8.2L9.4,8.3L9.4,8.5L9.3,8.6L9.1,8.7L9.1,8.7L9,8.8L9,8.9v0.3L9,9.2l0.1,0.1l0.1,0.1l0.1,0.1l0.2,0.1l0.1,0.1l0.1,0.1H9.1
				L9,9.9v0.9L9,10.9l0.1,0.1L9.2,11l0.1,0.1l0.5,0l-0.1,0.2l-0.1,0.1l-0.1,0.1l-0.1,0.1l-0.1,0.1v0.3H9.3l-0.1,0.1v0.6h0.1v0.3
				l0.1,0.1L9.5,13l0.1,0.1l0.1,0.1l0.2,0.1l0.1,0.1l0.2,0.1l0.2,0l-0.1,0.3l-0.1,0.1l-0.1,0.1L10,13.9L9.9,14l-0.1,0.1l-0.2,0.1
				l-0.2,0.1l-0.1,0.1l-0.2,0.1l-0.1,0.1l-0.1,0.1l-0.1,0.1L9,14.7V15L9,15.1h0.5L9.6,15l0.1-0.1l0.1-0.1l0.2-0.1l0.2-0.1l0.1-0.1
				l0.1-0.1l0.1-0.1l0.1-0.1l0.1-0.1l0.1-0.1v-0.1h0.1l0.1-0.1v-0.1h0.1l0.1-0.1l0.1-0.1l0.1-0.1l0.1-0.1l0.1-0.1l0.1-0.1l0.1-0.1
				l0.3-0.1l0.1-0.1L12,13l0.1-0.1l0.1-0.1h0.1l0.1,0.1l0.1,0.1l0.6,0.1l0.1,0.1l0.1,0.1l0.1,0.1l0.1,0.2h0.2v0.1H14v0.1l0.1,0.1
				l0.1,0.1h0.1v0.1l0.1,0.1l0.1,0.1l0.1,0.8l0.1,0.1l0.2,0.1l0.1,0.3l0.1,0.1l0.1,0.1l0.1,0.2l0.1,0.1l0.1,0.1l0.1,0.1l0.1,0.1
				l0.2,0.1l0.1,0.9v0.6v1l0.1,0.1l0.1,0.3l0.1,0.2l0.1,0.1l0.1,0.1l0.1,0.1l0.1,0.1l0.1,0.3H16v0.2l0.1,0.1l0.1,0.1l0.1,0.1h0.1
				v0.1l0.2,0.1l0.1,0.4l0.1,0.1l0.1,0.1l0.1,0.1l0.1,0.3l0.1,0.1l0.1,0.1L17,22l0.1,0.1l0.1,0.1l0.1,0.2l0.1,0.1l0.1,0.1l0.1,0.1
				l0.1,0.1l0.1,0.1h0.4l0.1-0.1l0.1-0.1l0.1,0.1l0.1,0.1l0.1,0.1l0.1,0.4l0.1,0.1l0.1,0.2h0.1v0.1l0.1,0.1h0.2v0.1l0.2,0.1L19,24
				l0.1,0.1l0.2,0.1l0.2,0.1l0.6,0.1h0.2v0.1l0.1,0.1h0.1v0.1l0.1,0.1l0.1,0.1l0.1,0.1l0.1,0.1l0.1,0.1l0.2,0.1l0.1,0.1l0.1,0.1
				l0.1,0.1l0.1,0.1l0.1,0.1l0.1,0.1l0.1,0.1l0.1,0.1l0.1,0.1h0.5V26v0.1l-0.1,0.3L22,26.5L22,26.6v0.1h-0.1l-0.1,0.2L21.7,27
				l-0.1,0.4l-0.1,0.1v0.8h0.1v0.1l0.1,0.1l0.1,0.2l0.1,0.1L22,29l0.1,0.1l0.1,0.1l0.1,0.1l0.1,0.1l0.1,0.4l0.1,0.1h0.1V30l0.1,0.1
				l0.1,0.1l0.1,0.1l0.1,0.1l0.2,0.1l0.1,0.1l0.1,0.4l0.1,0.2h0.1v0.1h-0.1l-0.1,0.3L23,32.2L22.9,33l-0.1,0.2v0.3v0.2l-0.1,0.1
				l-0.1,0.4l-0.1,0.2l-0.1,0.1l-0.1,0.4v0.8l0.1,0.1v0.1l-0.1,0.4l-0.1,0.3v1.3l0.1,0.7l0.1,0.1l0.1,0.1l0.1,0.1l0.1,0.1l0.1,0.1
				l0.1,0.2l0.1,0.1l0.2,0.1l0.1,0.1l0.1,0.1h0.6l0.1-0.1l0.1-0.1v-0.3L24,38.9L24,38.8l-0.1-0.1l-0.1-0.1h-0.1l0.1-0.7l0.1-0.1
				l0.1-0.1l0.1-0.1l0.1-0.1l0.1-0.1l0.1-0.1v-0.5v-0.2l0.1-0.1l0.1-0.1l0.1-0.1v-0.2h0.1l0.1-0.4l0.1-0.1l0.1-0.1l0.1-0.1l0.1-0.2
				l0.1-0.1v-0.1h0.5v-0.4h0.1l0.1-0.1l0.1-0.1l0.1-0.1l0.1-0.1l0.1-0.1l0.2-0.1l0.1-0.1v-0.3h0.1l0.1-0.1l0.1-0.1l0.1-0.1l0.1-0.1
				l0.1-0.2l0.1-0.1V33h0.1l0.1-0.1l0.1-0.1l0.1-0.1l0.1-0.5l0.1-0.1l0.1-0.1l0.1-0.1l0.1-0.1v-0.1h0.1l0.2-0.1v-0.1h0.4l0.1-0.1
				l0.1-0.1l0.1-0.1l0.1-0.1l0.1-0.1l0.1-0.1l0.1-0.1l0.1-0.1l0.1-0.2l0.1-0.5v-0.3v-0.1l0.1-0.1l0.1-0.1l0.1-0.1l0.1-0.1l0.1-0.1
				l0.1-0.1l0.1-0.1V29h0.1v-0.4h-0.1v-0.4l-0.1-0.1L28.7,28l-0.1-0.1l-0.1-0.1h-0.2v-0.1l-0.1-0.1l-0.1-0.1l-0.1-0.1H28v-0.1
				l-0.2-0.1l-0.1-0.1l-0.3-0.1l-0.2-0.1L27.1,27l-0.3-0.1l-0.1-0.1l-0.1-0.2l-0.1-0.1l-0.1-0.4l-0.1-0.1l-0.1-0.1l-0.1-0.1
				l-0.2-0.1l-0.6-0.1h-0.2v-0.1l-0.1-0.1l-0.1-0.1l-0.1-0.1L25,25.2L25,25.1L24.9,25l-0.2-0.1l-0.5-0.1l-0.3-0.1l-0.2-0.1h-0.2
				v-0.1h-0.4v0.1h-0.2l-0.1,0.1l-0.1,0.1l-0.1,0.1L22.4,25l-0.1,0.1h-0.2L22.1,25h-0.3v-0.6l-0.1-0.3h-0.1v-0.1l-0.1-0.1l-0.3-0.1
				l-0.1-0.1v-0.1v-0.3h0.1v-0.3l-0.1-0.1l-0.1-0.1l-0.1-0.1h-0.5l-0.2,0.1l-0.1,0.1L20.4,23l-0.1,0.1H20L19.8,23l-0.1-0.1v-0.6
				v-0.1h0.1l0.1-0.4l0.1-0.1l0.3-0.1h0.1h0.2l0.3-0.1c0.1-0.2,0.4-0.2,0.5,0l0.2,0.1l0.1,0.4l0.1,0.1l0.1,0.1l-0.1,0.1l-0.1,0.1
				l-0.1,0.1l-0.1,0.1v0.4l0.1,0.1l0.2,0.1l0.2,0.1l0.2,0.1l0.2,0.1h0.3l0.2-0.1l0.1-0.1v-0.2l-0.1-0.1l-0.1-0.1l-0.2-0.1l-0.2-0.1
				l-0.1,0l0.1-0.1l0.1-0.1v-0.3v-1.1l0.1-0.1v-0.1h0.1l0.1-0.1v-0.1h0.1l0.1-0.1l0.1-0.1l0.1-0.1l0.1-0.3l0.1-0.1l0.1-0.3l0.2-0.1
				l0.1-0.1l0.1-0.1l0.1-0.1l0.1-0.1l0.2-0.1l0.1-0.1l0.1-0.1l0.1-0.4l0.1-0.1l0.1-0.1l0.1-0.1l0.2-0.1v0.1h0.3l0.1-0.1l0.1-0.1
				l0.1-0.1l0.1-0.1l0.1-0.1v-0.1h0.1v-0.4H25v-0.1l-0.1-0.1l-0.1-0.2v-0.1l0.1-0.2h0.3V17l0.1,0.1l0.1,0.1l0.2,0.1l0.2,0.1l0.1,0.1
				h0.5l0.1-0.1l0.1-0.1l0.1-0.1l0.1-0.1v-0.5l-0.1-0.1l-0.1-0.1l-0.1-0.1l-0.1-0.1l-0.1-0.1L26.2,16l-0.1-0.1v-0.2v-0.3L26,15.1
				L26,15l-0.1-0.2l-0.1-0.1l-0.1-0.1l-0.1-0.1l-0.1-0.1l-0.2-0.1l-0.1-0.1l-0.1-0.1l-0.1-0.1L25.2,14l-0.1-0.1l-0.1-0.3l-0.1-0.3
				L25,13.1L25,12.8l-0.1-0.3l-0.1-0.1h-0.4l-0.1,0.1v0.4h-0.2L24,12.9v-0.4L24,12.4l-0.1-0.1l-0.1-0.1l-0.1-0.1l-0.1-0.1l-0.1-0.1
				L23.5,12l-0.1-0.1l-0.1-0.1l-0.2-0.1l-0.1-0.1h-0.5l-0.1,0.1l-0.1,0.1l-0.1,0.3l-0.1,0.1v0.1l0.1,0.1l-0.1,0.1l-0.1,0.1v1
				l0.1,0.1h0.1v0.1v0.1l-0.1,0.3l-0.1,0.1l-0.1,0.1l-0.1,0.4l0,0.4l0-0.2l-0.1-0.2l-0.1-0.2H22v-0.1l-0.1-0.1l-0.2-0.1l-0.2-0.1
				l-0.1-0.1h-0.2V14l-0.1-0.1L21,13.9L21,13.8l-0.1-0.1l-0.1-0.1l-0.1-0.1l-0.1-0.1l-0.1-0.1h-0.1v-0.2L20.5,13l-0.1-0.1l-0.1-0.1
				l-0.1-0.4v-0.1l0.1-0.1l0.1-0.1l0.1-0.1l0.1-0.1l0.1-0.1l0.1-0.1v-0.1h0.1l0.1-0.1l0.1-0.1l0.1-0.1l0.1,0.1l0.1,0.1h0.1v0.1
				l0.1,0.1l0.1,0.1h0.2l0.1-0.1l0.1-0.1l0.1-0.1l0.3-0.1l0.1-0.1v-0.4l-0.1-0.1L22.3,11l-0.1-0.1l-0.1-0.1l-0.1-0.1L22,10.7
				L22,10.7l-0.1-0.1l-0.1-0.1l-0.1-0.1l-0.1-0.1l-0.1-0.1l0.2-0.1l0.1-0.1L22,10l0.1-0.1l0.1-0.1l0.1-0.1l0.1-0.1V9.2l-0.1-0.1
				L22.1,9V8.8V8.5l-0.1-0.2l0.4,0.1l0.1,0.1l0.1,0.1l0.1,0.1l0.1,0.1l0.1,0.1L22.8,9l0.1,0.1l0.1,0.1l0.2,0.1l0.1,0.1l0.1,0.1v0.1
				l-0.1,0.1l-0.1,0.1v0.4h-0.1L23,10.2l-0.1,0.1l-0.3,0.1l-0.1,0.1l-0.1,0.1l-0.1,0.1l-0.1,0.1v0.4h0.1v0.1l0.1,0.1h0.6v0.1
				l0.1,0.1l0.1,0.1l0.1,0.3l0.1,0.1l0.1,0.1l0.1,0.1l0.2,0.1l0.1,0.1l0.1,0.1h0.6v-0.4h0.2l0.1-0.2v-0.7H25l0.1-0.1v-0.4h0.1
				l0.1-0.1l0.1-0.2V9.9l-0.1-0.2l-0.1-0.1l-0.1-0.1L25,9.4L25,9.4l-0.1-0.1l-0.1-0.1l-0.1-0.1l-0.1-0.1l-0.1-0.1l-0.1-0.1l-0.1-0.1
				V8.6V8.3l-0.1-0.2L24.4,8l-0.1-0.1l-0.1-0.1l-0.1-0.1l-0.1-0.1L24,7.5L24,7.5l-0.1-0.1l-0.1-0.1h-0.1V7.2l-0.2-0.1h-0.1V7
				l-0.1-0.1l-0.1-0.1l-0.1-0.1l-0.1-0.1l-0.1-0.1L23,6.2h-0.1V6.1L22.8,6L22.8,6l-0.1-0.1l-0.1-0.1l-0.3-0.1L22,5.7h-0.4l-0.4,0.1
				L21,5.8L21,5.7l-0.1-0.1l-0.1-0.1h0.1L21,5.6l0.3,0.1h0.2l0.6-0.1l0.2-0.1l0.1-0.1V5.2h0.1L22.6,5V4.6l-0.1-0.1l-0.1-0.1
				l-0.1-0.1l-0.1-0.1h-0.5h-0.5l-0.2-0.1L21.1,4L21,4L21,3.9l-0.1-0.1l-0.1-0.1l-0.1-0.1l-0.1-0.1l-0.1-0.1l-0.2-0.1h-0.2V3.2H20
				v0.1H19.8z"/>
			<path fill-rule="evenodd" clip-rule="evenodd" fill="#B24642" d="M49.3,27.6L49.3,27.6L49.3,27.6L49.3,27.6L49.3,27.6z
				 M49.3,27.4l0.1,0.1L49.3,27.4z M49.3,27.4L49.3,27.4L49.3,27.4L49.3,27.4L49.3,27.4z M49.1,27.2C49.2,27.1,49,27.3,49.1,27.2
				L49.1,27.2z M48.8,26.3L48.8,26.3L48.8,26.3L48.8,26.3L48.8,26.3z M39.9,23.6l0.1,0.1l0.1,0.1l0.1,0.1l0.1,0.2l0.1,0.3l-0.2-0.1
				L40,24.1L40,24l-0.1-0.1V23.6L39.9,23.6L39.9,23.6z M39.7,22.9C39.8,22.8,39.6,23.1,39.7,22.9L39.7,22.9z M42.8,22.6L42.8,22.6
				L42.8,22.6L42.8,22.6L42.8,22.6z M39.5,22.5C39.5,22.2,39.5,22.8,39.5,22.5L39.5,22.5z M52.1,22.3C52.2,22.2,52,22.4,52.1,22.3
				L52.1,22.3z M36.2,20.1v-0.1h0.3l0.1-0.1l0.1-0.1l0.1-0.1l0.1-0.1l0.1-0.1l0-0.2l0.2,0.1l0.1,0.4l0.1,0.1l0.2,0.1h0.1v0.1
				l0.1,0.1h0.2l0.1-0.1V20h0.1l0.1-0.1l0.1-0.1l0.1-0.1l0.1,0.1l0.1,0.1l0.1,0.1l0.1,0.1l0.1,0.1l0.8,0l-0.1,0.1l-0.1,0.4L39,20.9
				h-0.1h-0.2l-0.1,0.1l-0.1-0.1l-0.2-0.1l-0.3-0.1l-0.3-0.1l-0.1-0.1h-0.5v0.1h-0.1l-0.1,0.1V21h-0.4v-0.1l-0.1-0.1l-0.2-0.1
				l-0.1-0.1l-0.1-0.3L36.2,20.1L36.2,20.1L36.2,20.1z M35.9,19.3L35.9,19.3l0.2-0.1L36,19.2l-0.1-0.1L35.8,19l-0.1-0.1l-0.1-0.1
				l-0.1-0.1l-0.1-0.3H35l-0.1,0.1h-0.1v0.3l-0.1,0.1L34.7,19l-0.1,0.1l-0.1,0.1l-0.1,0.2l-0.1,0.2l1.5,0.1L35.9,19.3L35.9,19.3
				L35.9,19.3z M36.8,18.6L36.8,18.6L36.8,18.6L36.8,18.6z M36.8,18.6L36.8,18.6L36.8,18.6L36.8,18.6L36.8,18.6z M34.1,15.7l0.1,0.1
				L34.1,15.7l-0.2-0.1l-0.1-0.1l0.1-0.1l0.1-0.1v-0.3h0.1v0.1v0.1V15.7L34.1,15.7z M36,13.9L36,13.9L36,13.9L36,13.9z M36,13.9
				L36,13.9L36,13.9L36,13.9z M37.6,13.4h0.1v-0.1l0.1-0.1h-0.2l-0.1-0.1v-0.1L37.3,13l-0.1,0.1l-0.1,0.1l-0.1,0.1l-0.1,0.1L37,13.8
				L37,13.9l-0.1,0.4l-0.1,0.1l-0.1,0.1l-0.1,0.1l-0.1,0.1h-0.5v-0.2L36,14.7l0.3,0h0.1l0.3-0.1l0.3-0.1l0.2-0.1l0.1-0.1l0.1-0.6
				h0.1v-0.2L37.6,13.4L37.6,13.4L37.6,13.4z M37.8,13.2l0.1,0L37.8,13.2L37.8,13.2z M37.2,12.2l0.1-0.1l0,0.6l0-0.2V12.2L37.2,12.2
				z M37.7,11.2C37.7,10.9,37.7,11.5,37.7,11.2L37.7,11.2z M40,10.6C40.1,10.5,39.9,10.7,40,10.6L40,10.6z M39.7,10.6
				C39.7,10.5,39.9,10.7,39.7,10.6L39.7,10.6C39.7,10.6,39.7,10.6,39.7,10.6L39.7,10.6z M40.6,9.7V10V9.7L40.6,9.7z M42.5,7.3
				C42.6,7.2,42.4,7.4,42.5,7.3L42.5,7.3z M42.7,6.4l0,0.3l0-0.4l0.1-0.1L42.8,6l-0.1,0.2L42.7,6.4L42.7,6.4z M42.9,5.8L42.9,5.8
				L43,5.6V5.3l-0.1,0.3V5.8L42.8,6L42.9,6L42.9,5.8L42.9,5.8z M43.1,5.2L43.1,5.2L43.1,5.2l0.1-0.1L43.1,5.2L43.1,5.2L43.1,5.2z
				 M43.2,5.1L43.2,5.1L43.2,5.1L43.2,5.1L43.2,5.1z M43.3,5C43.4,4.8,43.2,5.1,43.3,5L43.3,5z M43.5,4.9l-0.1,0L43.5,4.9L43.5,4.9z
				 M43.6,4.8L43.6,4.8l-0.1-0.1h0.1h0.1v0.1H43.6L43.6,4.8z M50,3L50,3l-0.2,0.1l-0.1,0.1l-0.1,0.1l-0.1,0.1l-0.1,0.1l-0.1,0.1
				l-0.1,0.1l-0.1,0.1v0.4h-0.1h-0.5L48.6,4h-0.5L48,4.1l-0.1,0.1l-0.1,0.1l-0.1,0.1l-0.1,0.1l-0.1,0.1l-0.1,0.1l-0.1,0.1l-0.1,0.1
				L47.3,5L47.2,5l-0.1,0.1L47,5.2L47,5.3l-0.1,0.1v0.5L47,6h-0.1v0.1h-0.2l-0.2,0.1l-0.1,0.1v0.1h-0.1l-0.1,0.1v0.4L46.3,7L46.5,7
				l-0.2,0.1L46,7.2h-0.1h-0.4l-0.1,0.1l-0.1-0.1V7V6.8l-0.1-0.4l-0.1-0.1l-0.1-0.1h-0.3l-0.1,0.1l-0.1,0.1l-0.1,0.3l-0.1,0.1
				l-0.1,0.1v0.2h-0.2l-0.1,0.1v0.1h-0.1l-0.1,0.1l-0.1,0.4v0.4l-0.2-0.1l-0.3-0.1l-0.1-0.1L43.3,8L43.1,8V7.7l-0.1-0.1L43,7.6
				l-0.1-0.2V7.3V7L43,6.9l0.1-0.1l0.1-0.2l0.1-0.1l0.1-0.1l0.1-0.1L43.3,6l0.1-0.3V5.5h0.2l0.1-0.1l0.1-0.1l0.1-0.1l0.1-0.1L44,5.1
				V5h0.1l0.1-0.1l0.1-0.1l0.2-0.1l0.2-0.1l0.1-0.1l0.1-0.1V3.9l-0.1-0.3h-0.3l-0.1,0.1l-0.1,0.1L44.2,4L43.5,4l-0.1,0.1l-0.1,0.1
				l-0.1,0.1l-0.1,0.1v0.2h-0.2l-0.1,0.1v0.1h-0.1l-0.1,0.1L42.7,5L42.6,5l-0.1,0.1l-0.1,0.4l-0.1,0.1L42.4,6L42.3,6l-0.1,0.3
				l-0.1,0.4l-0.1,0.1l-0.1,0.1L42,7.2v0.3l0.1,0.2l0.1,0.1l0.1,0.1l0.1,0.1L42.3,8L42.4,8l0.1,0.1l0.2,0.1l0.2,0.1v0.1l0.1,0.1
				l0.1,0.1L43,8.6l0.1,0.1l0.1,0.1l0.1,0.2h-1.1L41.9,9l-0.2,0.1l-0.1,0.1l-0.1,0.2l-0.1,0.1v0.1h-0.1V9.3l-0.1-0.1l-0.1-0.1
				l-0.1-0.1L41,9h-0.3l-0.1,0.1l0,0.6l-0.1-0.1l-0.1-0.1l-0.1-0.1l-0.1-0.1l-0.1-0.1l-0.1-0.1l-0.1-0.1L40,9l-0.1-0.1l-0.1-0.1
				l-0.1-0.1h-0.2V8.7l-0.1-0.1l-0.1-0.1l-0.1-0.1l-0.1-0.1l-0.1-0.1h-0.1V8.2l-0.1-0.1L39,8h-0.1V7.8l-0.1-0.1h-0.9l-0.2,0.1
				l-0.1,0.1L37.5,8v0.2h-0.1l-0.1,0.1l-0.2,0.1l-0.1,0.1L37,8.5l-0.1,0.1l-0.1,0.1l-0.1,0.1v0.4h-0.1l-0.1,0.1l-0.1,0.1l-0.1,0.1
				l-0.1,0.1l-0.1,0.1l-0.1,0.1l-0.1,0.1l-0.1,0.1L36,10.1L36,10.3l-0.1,0.4l-0.1,0.1l-0.1,0.1l-0.1,0.1L35.7,11l-0.1,0.1l-0.1,0.3
				v0.1h-0.2l-0.1,0.1l-0.1,0.1L35,11.8L35,11.9v1.2l0.1,0.4l0.1,0.1l0.1,0.1l0.1,0.1h0.5l0.1-0.1h0.1l0.1,0.1l0.1,0.1h-0.3V14h-0.2
				l-0.1,0.1l-0.1,0.2l-0.1,0.3l-0.1,0.1V15H35L35,15.1l-0.1,0.1l-0.1,0.1l-0.1,0.1l-0.1,0.1l0,0.2l-0.1-0.1l-0.1-0.4L34.5,15
				l-0.1-0.1l-0.1-0.2l-0.1-0.3l-0.1-0.1v-0.2v-0.2l-0.1-0.1l-0.1-0.1l-0.1-0.1L34,13.4L34,13.3h-0.4l-0.1,0.1l-0.1,0.2l-0.1,0.1
				l-0.1,0.1l-0.1,0.1l-0.1,0.1v0.4h0.1v0.1l0.1,0.1h-0.4l-0.1,0.1l-0.1,0.1l-0.1,0.1l-0.1,0.1l-0.1,0.4v0.3l0.1,0.1l0.2,0.1h0.3
				h0.1v0.1V16h-0.1v0.2l0.1,0.1h0.2v0.1h0.2l0.1-0.1l0.1-0.1H34l-0.1,0.1l-0.1,0.1l-0.1,0.1l-0.1,0.1l-0.1,0.1l-0.1,0.1v0.3
				l0.1,0.1l0.1,0.1l0.1,0.1l0.1,0.1h0.2v0.3h0.1v0.2h-0.4h-0.2h-0.2l-0.2,0.1L32.8,18l-0.1,0.1l-0.1,0.1v0.2l0.1,0.1v0.1v1l0.1,0.1
				l0.1,0.1l0.2,0.1h0.2v0.1h-0.1L33,20.2l-0.1,0.1l-0.1,0.1l-0.1,0.1l-0.1,0.1L32.7,21l-0.1,0.4l-0.1,0.1l-0.3,0.1l-0.1,0.1
				l-0.1,0.1L32,21.9L32,22.1l-0.1,0.1v0.2h-0.1l-0.1,0.1l-0.1,0.4l-0.1,0.1v0.4v0.6L31.6,24l-0.1,0.1v0.4l0.1,0.1l0.1,0.2l0.1,0.1
				l0.1,0.1l0.1,0.1l0.1,0.1H32v0.1l0.1,0.1l0.1,0.1l0.1,0.1l0.1,0.1l0.1,0.1l0.1,0.1l0.1,0.1l0.1,0.1l0.1,0.1l0.2,0.1l0.1,0.1
				l0.2,0.1l0.1,0.1h1.2l0.2-0.1l0.2-0.1l0.2-0.1h0.1l0.1,0.1l0.1,0.1h0.4v0.2v0.6v0.4l0.1,0.2l0.1,0.1h0.1V28l0.1,0.3l0.1,0.3
				l0.1,0.1l0.1,0.3l0.1,0.8h-0.1l-0.1,0.1l-0.1,0.1l-0.1,0.1v0.4l0.1,0.3l0.1,0.4l0.1,0.1l0.1,0.1l0.1,0.1l0.1,0.1l0.1,0.1l0.1,0.7
				l0.1,0.1l0.1,0.3l0.1,0.1h0.1V33l0.1,0.1l0.1,0.1v0.1v0.6l0.1,0.1l0.1,0.1l0.1,0.1h1l0.2-0.1v-0.2h0.2l0.1-0.1l0.1-0.1l0.1-0.1
				l0.1-0.1l0.1-0.1l0.1-0.1v-0.1h0.2l0.1-0.1l0.1-0.1l0.1-0.1l0.1-0.1l0.1-0.1l0.1-0.3l0.1-0.1l0.1-0.1l0.1-0.1l0.1-0.2l0.1-0.1
				l0.1-0.1l0.1-0.1v-0.5V31v-0.2h0.1l0.1-0.1l0.1-0.1v-0.1h0.1l0.1-0.1l0.1-0.1l0.1-0.1l0.1-0.1v-0.8L40,28.9v-0.2v-0.5v-0.1
				l0.1-0.1v-0.1h0.1l0.1-0.1l0.1-0.1l0.1-0.1v-0.3h0.1l0.1-0.1l0.1-0.1l0.1-0.1l0.1-0.1l0.1-0.1l0.1-0.1l0.1-0.1l0.1-0.1l0.1-0.1
				v-0.1h0.1l0.1-0.1l0.1-0.1l0.1-0.1l0.1-0.4l0.1-0.1l0.1-0.1l0.1-0.1l0.1-0.2v-0.4h-0.5H41h-0.5v-0.1h0.6l0.2-0.1l0.1-0.1l0.1-0.1
				l0.2-0.1l0.2-0.1l0.2-0.1l0.1-0.1v-0.1h0.1l0.1-0.1l0.1-0.1l0.1-0.1l0.1-0.1l0.1-0.1l0.1-0.1l0.1-0.1l0.1-0.1l0.1-0.2l0.1-0.1
				v-0.2l-0.1-0.1l-0.1-0.1h0.4h0.7l0.1,0.1l0.1,0.1h0.1v0.1l0.1,0.1l0.1,0.1l0.1,0.1l0.1,0.1l0.1,0.1l0.2,0.1l0.1,0.1v0.3v0.1
				l0.1,0.2l0.1,0.1l0.1,0.1l0.1,0.3l0.1,0.4l0.1,0.1l0.1,0.1l0.1,0.3l0.1,0.1l0.1,0.1l0.1,0.1h0.3v0.4l0.1,0.1h0.2l0.1-0.1l0.1-0.1
				v-0.5l-0.1-0.1l-0.1-0.2v-0.1l0.1-0.1v-0.1v-0.3l0.1-0.4v-0.1h0.1l0.1-0.1l0.1-0.1l0.1-0.1l0.1-0.1l0.1-0.1l0.2-0.1l0.2-0.1
				l0.1-0.1l0.1-0.1h0.5l0.1,0.3l0.1,0.1l0.1,0.1l0.1,0.1l0.1,0.2l0.1,0.1l0.1,0.1l0.2,0.1h0.1v0.4l0.1,1.1l0.1,0.1h0.1v0.1l0.1,0.1
				l0.1,0.1l-0.2-0.1l-0.1-0.1h-0.2l-0.2,0.1l-0.1,0.1v0.3l0.1,0.1l0.2,0.1l0.1,0.1l0.1,0.1l0.1,0.2l0.1,0.2h0.1v0.2l0.1,0.1
				l0.1,0.1l0.1,0.1H49V28l0.1,0.1h0.1v0.1l0.1,0.1l0.2,0.1l0.1,0.1l0.1,0.1l0.1,0.1l0.1,0.1l0.2,0.1h0.3v0.1l0.3,0.1l0.4,0.1h0.3
				l0.1-0.1v-0.3l-0.1-0.1l-0.1-0.1l-0.1-0.1l-0.1-0.1l-0.1-0.1l-0.2-0.1l-0.1-0.1l-0.1-0.1h-0.3h-0.2L50,28.1L49.9,28h-0.1v-0.5
				l-0.1-0.2v-0.1v-0.6l-0.1-0.1l-0.1-0.1h-0.1v-0.1l-0.1-0.1h-0.1v-0.1l-0.1-0.4l-0.1-0.1l-0.1-0.2l0.2,0.1l0.1,0.1l0.1,0.1
				l0.1,0.1H50l0.1-0.1l0.1-0.1l0.1-0.1l0.1-0.1l0.1-0.1l0.1-0.7v-0.2l-0.1-0.4h-0.1v-0.3l-0.1-0.1l0.2-0.1l0.3-0.1l0.2-0.1l0.2-0.1
				l0.1-0.1l0.3-0.1l0.2-0.1l0.1-0.1v-0.1H52V23l0.1,0.1h0.3l0.1-0.1l0.1-0.1l0.1-0.1v-0.3l-0.1-0.1l-0.1-0.1l-0.1-0.1l-0.1-0.1
				l0.1-0.1l0.1-0.1l0.1-0.1l0.1-0.1l0.1-0.1v-0.4l-0.1-0.1h-0.1v-0.5l-0.1-0.1l-0.1-0.1l-0.1-0.2h0.1l0.1-0.1l0.1-0.1l0.1-0.1
				l0.1-0.1l0.1-0.1v-0.1h0.1v0.1V20v0.1l0.1,0.1l0.1,0.1h0.6l0.1-0.1v0.1l-0.1,0.1l-0.1,0.1v0.2h-0.1v0.2h0.1v0.3l0.1,0.1h0.5
				l0.1-0.1l0.1-0.2v-0.1h0.2l0.3-0.1l0.1-0.1l0.1-0.1l0.1-0.1l0.1-0.1l0.1-0.1l0.1-0.1l0.1-0.1l0.1-0.1l0.1-0.1l0.1-0.2l0.1-0.4
				l0.1-0.2v-0.3l-0.1-0.1v-0.1l0.1-0.1l0.2-0.1l0.1-0.1l0.1-0.1l0.2-0.1l0.1-0.1V18l-0.1-0.1l-0.1-0.1l-0.2-0.1l-0.2-0.1h-0.2v-0.1
				h-0.3l-0.1,0.1l-0.1,0.1l-0.1,0.2l-0.1,0.2l-0.1,0.3l-0.1,0.3L55,19.2v0.1h-0.2l-0.1,0.1l-0.1,0.1l-0.1,0.1l-0.1,0.1l-0.1,0.1
				v0.1h-0.2l-0.2,0.1L54,20L54,20.1l-0.1,0.1v-0.6l-0.1-0.1l-0.1-0.1v-0.1l0.1-0.1l0.1-0.1l0.1-0.2l0.1-0.1l0.1-0.1l0.1-0.1
				l0.1-0.1l0.3-0.1l0.1-0.1l0.1-0.1l0.1-0.1l0.1-0.1l0.1-0.1l0.1-0.1l0.1-0.1v-0.4h0.1l0.1-0.1l0.1-0.1l0.1-0.1l0.1-0.1l0.1-0.1
				l-0.1,0.2v0.4l0.1,0.1h0.3l0.2-0.1l0.1-0.5l0.1-0.1l0.1-0.1l0.1-0.1l0.1-0.1v-0.4l-0.1-0.1l-0.1-0.3l-0.1-0.3v-0.3v-0.6L56,14.7
				h-0.3h-0.2v-0.2l0.1-0.1V14v-0.2v-0.1h0.2v-0.1h0.2l0.1-0.1h0.6l0.1,0.1h0.2v0.1h0.4l0.1-0.1l0.1-0.1l0.2-0.1l0.2-0.1l0.1-0.1
				l0.1-0.1v-0.2h0.1l0.1-0.1l0.1-0.1l0.1-0.1v-0.2h0.2v0.3h-0.1l-0.1,0.1L58.2,13l-0.1,0.1l-0.1,0.2l-0.1,0.1v0.1h-0.2l-0.1,0.1
				l-0.1,0.1l-0.1,0.1v1.9l0.1,0.1l0.1,0.1l0.1,0.1h0.3l0.1-0.1l0.1-0.1l0.1-0.1l0.1-0.1l0.1-0.1l0.1-0.1l0.1-0.4l0.1-0.2l0.1-0.1
				l0.1-0.1l0.2-0.1l0.1-0.1l0.1-0.1l0.1-0.1l0.1-0.3v-0.8v-0.3l0.1-0.1l0.1-0.1l0.2-0.1l0.2-0.1l0.1-0.1H60l0.1,0.1l0.1,0.1h0.2
				l0.1-0.1l0.1-0.1l0.1-0.3l0.1-0.1l0.1-0.1l0.1-0.1l0.2-0.1l0.2-0.1l0.4-0.1l0.3-0.1v-0.6l-0.1-0.1h-0.1v-0.2l-0.1-0.1h0.2
				l0.2-0.1h0.2l0.2,0.1l0.2,0.1H63l0.1-0.1l0.1-0.1v-0.4h0.1l0.1-0.1V9.9l-0.1-0.1l-0.1-0.2l-0.1-0.1l-0.1-0.1L63,9.4l-0.2-0.1
				l-0.1-0.1l-0.1-0.1L62.6,9l-0.1-0.1l-0.1-0.1l-0.1-0.1l-0.1-0.1l-0.1-0.1l-0.1-0.1l-0.1-0.1l-0.5-0.1l-0.1-0.1l-0.1-0.1l-0.1-0.1
				l-0.3-0.1L61,8.1L60.8,8h-0.6l-0.1,0.1h-0.1l-0.2-0.1h-0.3l-0.7,0.1h-0.1V8V7.5l-0.1-0.1l-0.3-0.1h-0.5l-0.3,0.1h-0.1l-0.2,0
				l0.1-0.1V6.9l-0.1-0.1l-0.2-0.1l-0.7-0.1l-0.1-0.1l-0.1-0.1l-0.2-0.1h-0.3l-0.2,0.1l-0.1,0.1l-0.1,0.1l-0.1,0.1l-0.1,0.1
				l-0.1,0.1l-0.1,0.2l-0.7,0.1l-0.1,0.1h-0.1l-0.1-0.1l-0.1-0.1h-0.1V7l-0.2-0.1l-0.2-0.1l-0.2-0.1h-0.1V6.6l-0.1-0.1l-0.1-0.1
				l-0.1-0.1l-0.2-0.1l-0.2-0.1L52.7,6l-0.1-0.1l-0.2-0.1l-0.1-0.1l-0.1-0.1l-0.1-0.1l-0.6-0.1l-0.1-0.1l-0.2-0.1V5.2h0.1l0.1-0.1
				L51.5,5l0.1-0.1l0.1-0.1V4.3L51.5,4l-0.1-0.1l-0.1-0.1l-0.1-0.1l-0.2-0.1h-0.2h-0.2l-0.1-0.1l-0.1-0.6h-0.5L50,3z"/>
			<polygon fill-rule="evenodd" clip-rule="evenodd" fill="#B24642" points="52.5,28.7 52.4,28.8 52.4,28.9 52.3,28.9 52.3,29.3 
				52.4,29.4 52.8,29.4 52.9,29.3 53,29.2 53.1,29.1 53.1,29.1 53.1,28.9 53.1,28.7 52.9,28.6 52.6,28.6 			"/>
			<polygon fill-rule="evenodd" clip-rule="evenodd" fill="#B24642" points="53.6,27.2 53.6,27.4 53.6,27.6 53.6,27.8 53.7,27.9 
				53.8,28 53.8,28.1 53.9,28.1 54.3,28.2 54.4,28.3 54.5,28.4 54.6,28.4 54.7,28.4 54.7,28.6 54.8,28.7 54.8,28.9 54.9,29 
				55.1,29.1 55.2,29.1 56,29.2 56.1,29.3 56.2,29.4 56.3,29.4 56.3,29.5 56.7,29.5 56.7,29.4 56.8,29.3 56.8,29.1 56.7,29 
				56.7,28.9 56.6,28.9 56.6,28.7 56.5,28.6 56.4,28.6 56.4,28.4 56.3,28.3 56.3,28.1 56.2,28.1 56.1,28 55.9,28 55.9,27.9 
				55.8,27.8 55.7,27.7 55.6,27.6 55.4,27.6 55.3,27.5 55,27.4 55,27.4 54.9,27.3 54.3,27.2 54.1,27.1 53.8,27.1 			"/>
			<polygon fill-rule="evenodd" clip-rule="evenodd" fill="#B24642" points="41,29.5 40.9,29.7 40.8,29.8 40.6,29.9 40.5,29.9 
				40.5,30 40.4,30.1 40.3,30.2 40.2,30.4 40.2,30.7 40.2,30.9 40.2,32 40.3,32.1 40.4,32.1 40.5,32.2 40.8,32.2 41,32.1 41,32 
				41.1,31.9 41.2,31.9 41.2,31.6 41.3,31.2 41.3,31 41.4,30.6 41.5,30.6 41.5,30.4 41.5,30.1 41.5,29.9 41.5,29.6 41.5,29.4 
				41.1,29.4 			"/>
			<polygon fill-rule="evenodd" clip-rule="evenodd" fill="#B24642" points="53.6,29.2 53.5,29.3 53.4,29.4 53.3,29.4 53.3,29.5 
				52.9,29.6 52.8,29.6 52.7,29.7 52.6,29.8 52.5,29.9 52.4,29.9 52.3,30 52.2,30.1 52.1,30.2 52.1,30.3 51.9,30.4 51.8,30.4 
				51.7,30.5 51.7,30.6 51.6,30.6 51.3,30.7 51.2,30.8 51.1,30.9 51.1,31 51,31.1 51,31.2 50.8,31.2 50.8,31.3 50.8,32.1 50.8,32.8 
				50.9,32.9 50.9,33.3 50.9,33.5 50.9,33.7 50.8,33.8 50.8,33.9 50.9,34.1 50.9,34.1 51.1,34.2 51.3,34.3 51.5,34.3 52,34.2 
				52.6,34.1 52.7,34.1 52.8,33.9 53.6,33.8 53.8,33.8 54,33.9 54,34.1 54.1,34.1 54.2,34.2 54.3,34.3 54.4,34.3 54.4,34.4 
				54.6,34.5 54.7,34.5 54.7,34.6 54.8,34.7 54.8,35.2 54.9,35.3 55.1,35.3 55.1,35.4 55.3,35.5 55.5,35.6 55.5,36.1 55.5,36.2 
				55.6,36.3 55.6,36.4 55.7,36.5 56.2,36.5 56.3,36.4 56.4,36.3 56.4,35.6 56.3,35.6 56.2,35.5 55.6,35.5 55.6,35.4 55.9,35.4 
				55.9,35.3 56.1,35.3 56.3,35.2 56.4,35.1 56.5,35.1 56.6,35 56.6,34.9 56.7,34.8 56.7,34.3 56.8,34.2 56.9,34.1 56.9,34.1 
				56.9,33.8 57,33.8 57.1,33.8 57.1,33.6 57.2,33.1 57.2,32.6 57.1,32.2 57.1,31.9 57,31.9 56.9,31.8 56.9,31.6 56.8,31.5 
				56.7,31.4 56.7,31.4 56.6,31.3 56.6,31.2 56.5,31.2 56.5,31 56.4,30.9 56.3,30.8 56.3,30.7 56.2,30.7 56.2,30.6 56.1,30.4 
				56.1,30.2 56,30.1 55.9,29.9 55.8,29.8 55.8,29.5 55.7,29.3 55.6,29.2 55.3,29.2 55.2,29.3 55.2,29.4 55.1,29.8 55.1,30.1 
				54.8,30 54.8,29.9 54.6,29.9 54.7,29.8 54.8,29.7 54.8,29.4 54.6,29.4 54.4,29.3 54.3,29.2 54.1,29.1 53.8,29.1 			"/>
			<polygon fill-rule="evenodd" clip-rule="evenodd" fill="#B24642" points="60,34.1 60,34.4 60,34.5 60.1,35.2 60.1,35.3 
				60.2,35.5 59.8,35.5 59.7,35.6 59.7,35.6 59.6,35.7 59.6,35.8 59.4,35.9 59.4,36.1 59.3,36.1 59.3,36.3 59.2,36.3 59.1,36.4 
				59,36.5 59,36.6 58.9,36.6 58.9,36.9 59,37 59.1,37.1 59.2,37.1 59.3,37.2 59.4,37.3 59.6,37.3 59.7,37.2 59.7,37.1 59.8,37.1 
				59.9,37 60,36.9 60.1,36.8 60.1,36.6 60.2,36.4 60.2,36.3 60.3,36.2 60.3,35.8 60.4,35.9 60.6,35.9 60.6,35.8 60.8,35.8 
				60.8,35.6 60.9,35.5 60.9,35.4 60.9,34.9 60.8,34.9 60.8,34.8 60.6,34.8 60.6,34.6 60.6,34.3 60.5,34.1 60.5,34.1 60,34.1 			"/>
		</g>
	</g>
	<path fill="#FFFFFF" stroke="#1692CB" stroke-width="0.7232" stroke-miterlimit="10" d="M17.8,17.7h5.9v11.5h-5.6L13,24.2l-0.1,5.1
		H7.4V17.7h5.4l4.9,4.7L17.8,17.7L17.8,17.7z M39.6,17.7h6.5l-6.2,11.5h-7.4l-6.4-11.5h6l3.9,6.1L39.6,17.7L39.6,17.7z M65.4,21.1
		c-0.7-2.8-6.5-3.8-9.4-3.9c-3.3,0-10.9,1.2-10.8,5.9c0.1,4.8,7.2,6.1,10.6,6c4-0.1,8.7-1.5,10-5.1l-6-0.6c-0.7,1.9-3.3,1.9-4.7,1.9
		c-1.4,0-2.5-1.3-2.6-2.2c-0.4-4.1,6.2-3.9,7.2-1.1L65.4,21.1z"/>
	<g>
		<g>
			<path fill="#231F20" d="M4.4,55.6H3.1v-6.9h1.3V55.6z"/>
			<path fill="#231F20" d="M9.8,50.8H8.5v-0.2c0-0.3,0-0.6-0.1-0.7c-0.1-0.2-0.3-0.3-0.6-0.3c-0.2,0-0.4,0.1-0.5,0.2
				c-0.1,0.1-0.2,0.3-0.2,0.5c0,0.2,0.1,0.4,0.2,0.6c0.1,0.1,0.3,0.2,0.5,0.4c0.3,0.2,0.5,0.3,0.8,0.5c0.3,0.2,0.6,0.4,0.8,0.6
				c0.2,0.2,0.4,0.4,0.4,0.6c0.1,0.2,0.1,0.5,0.1,0.8c0,0.6-0.2,1.1-0.6,1.5c-0.4,0.3-0.9,0.5-1.5,0.5c-0.7,0-1.3-0.2-1.6-0.6
				c-0.3-0.3-0.5-0.9-0.5-1.5v-0.5H7v0.4v0.2c0,0.3,0.1,0.5,0.2,0.7c0.1,0.2,0.3,0.3,0.6,0.3c0.5,0,0.8-0.3,0.8-0.8
				c0-0.2,0-0.4-0.1-0.5c-0.1-0.1-0.2-0.3-0.4-0.4c-0.1-0.1-0.4-0.3-0.8-0.6c-0.6-0.4-1-0.7-1.2-1.1c-0.2-0.3-0.3-0.7-0.3-1
				c0-1.2,0.7-1.8,2-1.8c0.7,0,1.2,0.2,1.5,0.5C9.6,49.4,9.8,50,9.8,50.8z"/>
			<path fill="#231F20" d="M11,52.5v-1c0-1,0.1-1.8,0.3-2.2c0.3-0.6,1-0.9,1.9-0.9c0.9,0,1.6,0.3,1.9,0.9c0.2,0.4,0.4,1.2,0.4,2.2v1
				c0,0.7,0,1.3-0.1,1.6c-0.1,0.5-0.3,0.9-0.6,1.1c-0.3,0.3-0.9,0.4-1.5,0.4c-0.7,0-1.2-0.1-1.5-0.4c-0.3-0.2-0.5-0.6-0.6-1.1
				C11,53.8,11,53.3,11,52.5z M12.3,51.3v1.9c0,0.4,0,0.7,0.1,1c0.1,0.4,0.4,0.5,0.8,0.5c0.4,0,0.7-0.2,0.8-0.6
				c0.1-0.2,0.1-0.6,0.1-1v-1.8c0-0.5,0-0.8-0.1-1.1c-0.1-0.4-0.4-0.7-0.8-0.7c-0.4,0-0.6,0.2-0.8,0.5c-0.1,0.2-0.2,0.6-0.2,1V51.3z
				"/>
			<path fill="#231F20" d="M23.7,51.3v1.7c0,1.1-0.2,1.8-0.5,2.2c-0.3,0.4-0.8,0.6-1.5,0.6c-0.5,0-0.9-0.1-1.2-0.3
				c-0.3-0.3-0.5-0.6-0.5-1.1v-0.1h1.2c0,0.2,0,0.3,0.1,0.3c0.1,0.1,0.2,0.2,0.4,0.2h0.1c0.3,0,0.5-0.2,0.6-0.5
				c0-0.2,0.1-0.4,0.1-0.8v-0.4c-0.1,0.2-0.3,0.3-0.3,0.3c-0.2,0.1-0.4,0.1-0.7,0.1c-0.5,0-0.9-0.2-1.2-0.5
				c-0.3-0.4-0.4-0.9-0.4-1.6c0-0.9,0.1-1.6,0.4-2c0.3-0.4,0.8-0.7,1.5-0.7c0.7,0,1.2,0.2,1.5,0.7C23.5,49.7,23.7,50.3,23.7,51.3
				L23.7,51.3z M22.4,51.2V51c0-0.5,0-0.8-0.1-1c-0.1-0.3-0.3-0.4-0.5-0.4h-0.1c-0.3,0-0.4,0.1-0.5,0.3c-0.1,0.2-0.1,0.5-0.1,0.8
				v0.4v0.2c0,0.4,0.1,0.6,0.2,0.8c0.1,0.1,0.3,0.2,0.5,0.2c0.3,0,0.5-0.1,0.6-0.4C22.4,51.8,22.4,51.6,22.4,51.2z"/>
			<path fill="#231F20" d="M24.8,53.7v-3.1c0-0.7,0.2-1.2,0.5-1.5c0.3-0.3,0.8-0.4,1.4-0.4c0.6,0,1.1,0.1,1.4,0.4
				c0.3,0.3,0.5,0.8,0.5,1.5v3.1c0,0.7-0.2,1.2-0.5,1.6c-0.3,0.3-0.8,0.4-1.4,0.4c-0.6,0-1.1-0.2-1.4-0.4
				C24.9,54.9,24.8,54.4,24.8,53.7z M26.1,50.6v3.1v0.1c0,0.3,0.1,0.5,0.2,0.7c0.1,0.1,0.2,0.2,0.4,0.2c0.2,0,0.3-0.1,0.4-0.2
				c0.1-0.1,0.2-0.4,0.2-0.7v-3.3c0-0.3-0.1-0.5-0.2-0.7c-0.1-0.1-0.2-0.2-0.4-0.2c-0.2,0-0.3,0.1-0.4,0.2c-0.1,0.1-0.2,0.4-0.2,0.7
				V50.6z"/>
			<path fill="#231F20" d="M29.6,53.7v-3.1c0-0.7,0.2-1.2,0.5-1.5c0.3-0.3,0.8-0.4,1.4-0.4c0.6,0,1.1,0.1,1.4,0.4
				c0.3,0.3,0.5,0.8,0.5,1.5v3.1c0,0.7-0.2,1.2-0.5,1.6c-0.3,0.3-0.8,0.4-1.4,0.4c-0.6,0-1.1-0.2-1.4-0.4
				C29.8,54.9,29.6,54.4,29.6,53.7z M30.9,50.6v3.1v0.1c0,0.3,0.1,0.5,0.2,0.7c0.1,0.1,0.2,0.2,0.4,0.2c0.2,0,0.3-0.1,0.4-0.2
				c0.1-0.1,0.2-0.4,0.2-0.7v-3.3c0-0.3-0.1-0.5-0.2-0.7c-0.1-0.1-0.2-0.2-0.4-0.2c-0.2,0-0.3,0.1-0.4,0.2c-0.1,0.1-0.2,0.4-0.2,0.7
				V50.6z"/>
			<path fill="#231F20" d="M36,55.6v-4.8h-1.6v-0.9c0.5,0,0.9-0.1,1.2-0.2c0.3-0.2,0.6-0.5,0.7-1h1v6.9H36z"/>
			<path fill="#231F20" d="M42.3,51.6l0.9,1.5c0.1-0.4,0.2-0.8,0.2-1.3h1c0,0.8-0.2,1.6-0.6,2.3l0.8,1.4h-1.4L43,55.1
				c-0.2,0.2-0.5,0.4-0.7,0.5c-0.3,0.1-0.5,0.1-0.9,0.1c-0.5,0-1-0.2-1.3-0.6c-0.3-0.4-0.5-0.9-0.5-1.5c0-0.5,0.1-0.9,0.3-1.3
				c0.2-0.3,0.5-0.6,1-0.9c-0.2-0.3-0.3-0.5-0.4-0.7c-0.1-0.3-0.2-0.5-0.2-0.8c0-0.5,0.2-0.9,0.5-1.1c0.3-0.2,0.7-0.3,1.1-0.3
				c0.4,0,0.7,0.1,1,0.4c0.3,0.3,0.5,0.6,0.5,1.1c0,0.4-0.1,0.7-0.3,1C42.9,51.2,42.6,51.4,42.3,51.6z M42.5,54.3l-1.1-1.9
				c-0.1,0-0.3,0.2-0.4,0.4c-0.2,0.2-0.3,0.5-0.3,0.7v0.1c0,0.3,0.1,0.5,0.3,0.7c0.2,0.2,0.4,0.3,0.6,0.3c0.2,0,0.3,0,0.4-0.1
				C42.2,54.5,42.3,54.4,42.5,54.3z M41.8,50.8c0.2-0.1,0.3-0.2,0.4-0.4c0.1-0.2,0.2-0.3,0.2-0.5c0-0.2,0-0.3-0.1-0.4
				c-0.1-0.1-0.2-0.2-0.3-0.2h0c-0.1,0-0.2,0-0.3,0.1c-0.1,0.1-0.1,0.2-0.1,0.3c0,0.1,0,0.3,0.1,0.5C41.6,50.5,41.7,50.7,41.8,50.8z
				"/>
			<path fill="#231F20" d="M47.4,55.6v-4.8h-1.6v-0.9c0.5,0,0.9-0.1,1.2-0.2c0.3-0.2,0.6-0.5,0.7-1h1v6.9H47.4z"/>
			<path fill="#231F20" d="M50.6,49.8v-1h3.9v0.9c-0.3,0.5-0.5,1.1-0.8,1.6c-0.2,0.5-0.4,1-0.5,1.7c-0.1,0.5-0.2,0.9-0.3,1.2
				c-0.1,0.5-0.1,0.9-0.1,1.3h-1.3c0-0.5,0.1-0.9,0.2-1.4c0.1-0.5,0.2-1,0.4-1.4c0-0.1,0.2-0.6,0.5-1.4c0.1-0.2,0.2-0.5,0.3-0.7
				c0.2-0.3,0.3-0.6,0.5-0.8H50.6z"/>
			<path fill="#231F20" d="M55.6,53.7v-3.1c0-0.7,0.2-1.2,0.5-1.5c0.3-0.3,0.8-0.4,1.4-0.4c0.6,0,1.1,0.1,1.4,0.4
				c0.3,0.3,0.5,0.8,0.5,1.5v3.1c0,0.7-0.2,1.2-0.5,1.6c-0.3,0.3-0.8,0.4-1.4,0.4c-0.6,0-1.1-0.2-1.4-0.4
				C55.8,54.9,55.6,54.4,55.6,53.7z M56.9,50.6v3.1v0.1c0,0.3,0.1,0.5,0.2,0.7c0.1,0.1,0.2,0.2,0.4,0.2c0.2,0,0.3-0.1,0.4-0.2
				c0.1-0.1,0.2-0.4,0.2-0.7v-3.3c0-0.3-0.1-0.5-0.2-0.7c-0.1-0.1-0.2-0.2-0.4-0.2c-0.2,0-0.3,0.1-0.4,0.2c-0.1,0.1-0.2,0.4-0.2,0.7
				V50.6z"/>
			<path fill="#231F20" d="M64.1,55.6h-3.8c0-0.2,0-0.3,0-0.4c0-0.1,0-0.4,0.1-0.7c0-0.3,0.2-0.5,0.3-0.8c0.2-0.3,0.5-0.7,0.9-1.1
				l0.6-0.7c0.3-0.3,0.4-0.5,0.5-0.6c0.1-0.2,0.2-0.4,0.2-0.7c0-0.3-0.1-0.5-0.2-0.6c-0.1-0.1-0.3-0.2-0.5-0.2c-0.1,0-0.3,0-0.4,0.1
				c-0.1,0.1-0.2,0.1-0.2,0.3c0,0.1-0.1,0.2-0.1,0.3c0,0.1,0,0.2,0,0.4V51h-1.2v-0.2v-0.1c0-0.5,0.1-1,0.3-1.3
				c0.3-0.5,0.9-0.8,1.7-0.8h0c0.5,0,1,0.2,1.3,0.5c0.3,0.3,0.5,0.8,0.5,1.3c0,0.4-0.1,0.7-0.2,1c-0.1,0.3-0.3,0.6-0.6,0.9l-1,1
				c-0.2,0.2-0.3,0.4-0.4,0.5c-0.2,0.2-0.2,0.5-0.2,0.7h2.4V55.6z"/>
			<path fill="#231F20" d="M65.4,53.7v-3.1c0-0.7,0.2-1.2,0.5-1.5c0.3-0.3,0.8-0.4,1.4-0.4c0.6,0,1.1,0.1,1.4,0.4
				c0.3,0.3,0.5,0.8,0.5,1.5v3.1c0,0.7-0.2,1.2-0.5,1.6c-0.3,0.3-0.8,0.4-1.4,0.4c-0.6,0-1.1-0.2-1.4-0.4
				C65.5,54.9,65.4,54.4,65.4,53.7z M66.7,50.6v3.1v0.1c0,0.3,0.1,0.5,0.2,0.7c0.1,0.1,0.2,0.2,0.4,0.2c0.2,0,0.3-0.1,0.4-0.2
				c0.1-0.1,0.2-0.4,0.2-0.7v-3.3c0-0.3-0.1-0.5-0.2-0.7c-0.1-0.1-0.2-0.2-0.4-0.2c-0.2,0-0.3,0.1-0.4,0.2c-0.1,0.1-0.2,0.4-0.2,0.7
				V50.6z"/>
		</g>
	</g>
</g>
<g>
	<path fill="#010101" d="M85.3,15.4v-3.6H88v18.3h-2.8l-2.1-6.5c-0.6-1.9-1.3-4.3-1.9-7.3c0.1,1.7,0.2,3.5,0.3,5.2
		c0,0.7,0,1.6,0.1,2.7c0,1.2,0.1,2,0.1,2.4v3.5h-2.7V11.8h2.8l2.1,6.6c0.4,1.1,0.7,2.2,1,3.3c0.3,1.1,0.6,2.4,0.9,4l-0.2-5.2
		c0-0.9,0-1.7,0-2.4C85.3,17.4,85.3,16.4,85.3,15.4z"/>
	<path fill="#010101" d="M93.8,30.1H91l3.4-18.3H98l3.3,18.3h-2.9l-0.7-4.6h-3.1L93.8,30.1z M95.7,17.6l-0.8,5.2h2.3l-0.7-5.2
		c-0.1-0.4-0.1-0.8-0.1-1c0-0.2-0.1-0.8-0.1-1.5c0-0.2,0-0.4,0-0.7c0-0.2,0-0.4,0-0.6L96,15c0,0.4-0.1,0.9-0.1,1.3
		C95.9,16.7,95.8,17.1,95.7,17.6z"/>
	<path fill="#010101" d="M109.7,23.5l1.5-11.7h2.9L111,30.1h-3.6l-3.2-18.3h2.9l1.7,11.7c0.1,0.5,0.1,1,0.2,1.7
		c0.1,0.7,0.1,1.2,0.1,1.4c0,0.3,0,0.6,0.1,0.9c0,0.3,0,0.5,0,0.6c0-0.2,0-0.4,0.1-0.8c0-0.3,0.1-0.6,0.1-0.8
		C109.4,25.6,109.6,24.5,109.7,23.5z"/>
	<path fill="#010101" d="M119.7,30.1h-2.7V11.8h2.7V30.1z"/>
	<path fill="#010101" d="M128.8,23.6h2.7l0,1.1c0,1.8-0.3,3.2-0.9,4.2c-0.7,1.1-1.7,1.7-3.1,1.7c-1.4,0-2.4-0.4-3.2-1.1
		c-0.6-0.7-1.1-1.6-1.3-3c-0.2-0.9-0.2-2.4-0.2-4.4v-2.6c0-2.7,0.2-4.7,0.7-5.8c0.7-1.5,2-2.3,3.9-2.3c1.2,0,2.2,0.4,2.9,1.2
		c0.7,0.8,1.1,2,1.1,3.5l0.1,1v0.4h-2.6c-0.1-1.4-0.2-2.1-0.2-2.1c-0.2-0.8-0.6-1.2-1.1-1.2c-0.8,0-1.3,0.5-1.6,1.4
		c-0.2,0.6-0.3,1.5-0.3,2.5v0.7v5.1c0,1.1,0.1,2,0.3,2.5c0.3,0.9,0.8,1.4,1.6,1.4c0.6,0,1.1-0.6,1.2-1.7
		C128.7,25.6,128.8,24.8,128.8,23.6z"/>
	<path fill="#010101" d="M134.5,22.1v-2.6c0-2.7,0.2-4.7,0.7-5.8c0.7-1.5,2-2.3,3.9-2.3c2,0,3.3,0.8,4,2.3c0.5,1.1,0.7,3.1,0.7,5.8
		v2.6c0,2-0.1,3.4-0.2,4.3c-0.2,1.4-0.7,2.4-1.3,3c-0.7,0.7-1.8,1.1-3.2,1.1c-1.4,0-2.4-0.4-3.2-1.1c-0.6-0.7-1.1-1.6-1.3-3
		C134.5,25.5,134.5,24.1,134.5,22.1z M137.2,18.7v5.1c0,1.1,0.1,2,0.3,2.5c0.3,0.9,0.8,1.4,1.6,1.4c0.8,0,1.4-0.5,1.7-1.5
		c0.2-0.6,0.3-1.5,0.3-2.8v-4.8c0-1.3-0.1-2.2-0.2-2.9c-0.3-1.2-0.9-1.7-1.7-1.7c-0.8,0-1.3,0.5-1.6,1.4c-0.2,0.6-0.3,1.5-0.3,2.5
		V18.7z"/>
	<path fill="#010101" d="M153.3,15.4v-3.6h2.7v18.3h-2.8l-2.1-6.5c-0.6-1.9-1.2-4.3-1.9-7.3c0.1,1.7,0.2,3.5,0.3,5.2
		c0,0.7,0,1.6,0.1,2.7c0,1.2,0.1,2,0.1,2.4v3.5h-2.7V11.8h2.8l2.1,6.6c0.4,1.1,0.7,2.2,1,3.3c0.3,1.1,0.6,2.4,0.9,4l-0.2-5.2
		c0-0.9,0-1.7,0-2.4C153.3,17.4,153.3,16.4,153.3,15.4z"/>
	<path fill="#010101" d="M158.9,14.5v-2.7h8.9v2.7h-3.1v15.6h-2.7V14.5H158.9z"/>
	<path fill="#010101" d="M174,22.2h-0.5v7.9h-2.7V11.8h5.1c1.3,0,2.2,0.3,2.9,0.9c0.8,0.7,1.2,1.9,1.2,3.5c0,1.2-0.1,2.1-0.4,2.8
		c-0.4,0.9-0.9,1.4-1.8,1.6c0.8,0.2,1.3,0.5,1.6,1.1c0.3,0.5,0.4,1.3,0.4,2.2v0.8c0,1.1,0,2.1,0.1,3.2c0.1,1,0.2,1.6,0.5,1.8v0.3
		h-2.9c-0.1-0.4-0.2-0.9-0.2-1.7c0-0.7-0.1-1.5-0.1-2.2v-0.8c0-0.8,0-1.4-0.1-1.8c-0.1-0.7-0.4-1.1-0.8-1.2
		c-0.2-0.1-0.5-0.1-0.8-0.2C175.1,22.2,174.6,22.2,174,22.2z M173.5,14.5v5h2.1c0.5,0,0.9-0.2,1.1-0.6c0.3-0.4,0.4-1.1,0.4-2
		c0-1-0.1-1.6-0.4-1.9c-0.3-0.3-0.7-0.5-1.3-0.5H173.5z"/>
	<path fill="#010101" d="M183.4,22.1v-2.6c0-2.7,0.2-4.7,0.7-5.8c0.7-1.5,2-2.3,3.9-2.3c2,0,3.3,0.8,4,2.3c0.5,1.1,0.7,3.1,0.7,5.8
		v2.6c0,2-0.1,3.4-0.2,4.3c-0.2,1.4-0.7,2.4-1.3,3c-0.7,0.7-1.8,1.1-3.2,1.1c-1.4,0-2.4-0.4-3.2-1.1c-0.6-0.7-1.1-1.6-1.3-3
		C183.5,25.5,183.4,24.1,183.4,22.1z M186.2,18.7v5.1c0,1.1,0.1,2,0.3,2.5c0.3,0.9,0.8,1.4,1.6,1.4c0.8,0,1.4-0.5,1.7-1.5
		c0.2-0.6,0.3-1.5,0.3-2.8v-4.8c0-1.3-0.1-2.2-0.2-2.9c-0.3-1.2-0.9-1.7-1.7-1.7c-0.8,0-1.3,0.5-1.6,1.4c-0.2,0.6-0.3,1.5-0.3,2.5
		V18.7z"/>
	<path fill="#010101" d="M203.5,30.1h-7.6V11.8h2.7v15.6h5V30.1z"/>
</g>
</svg>
