<?xml version="1.0" encoding="utf-8"?>
<!-- Generator: Adobe Illustrator 17.0.0, SVG Export Plug-In . SVG Version: 6.00 Build 0)  -->
<!DOCTYPE svg PUBLIC "-//W3C//DTD SVG 1.1//EN" "http://www.w3.org/Graphics/SVG/1.1/DTD/svg11.dtd" [
	<!ENTITY ns_flows "http://ns.adobe.com/Flows/1.0/">
	<!ENTITY ns_extend "http://ns.adobe.com/Extensibility/1.0/">
	<!ENTITY ns_ai "http://ns.adobe.com/AdobeIllustrator/10.0/">
	<!ENTITY ns_graphs "http://ns.adobe.com/Graphs/1.0/">
]>
<svg version="1.1" id="Layer_1" xmlns:x="&ns_extend;" xmlns:i="&ns_ai;" xmlns:graph="&ns_graphs;"
	 xmlns="http://www.w3.org/2000/svg" xmlns:xlink="http://www.w3.org/1999/xlink" xmlns:a="http://ns.adobe.com/AdobeSVGViewerExtensions/3.0/"
	 x="0px" y="0px" width="114px" height="50.5px" viewBox="0 0 114 50.5" enable-background="new 0 0 114 50.5" xml:space="preserve"
	>
<g>
	<path fill="#FFFFFF" d="M62.4,8.3l-5.1-5.1H46v21.1h16.4V8.3z M62.4,8.3"/>
	<path fill="#4373B9" d="M49.6,11.6h9.1c0.2,0,0.4-0.2,0.4-0.4c0-0.2-0.2-0.4-0.4-0.4h-9.1c-0.2,0-0.4,0.2-0.4,0.4
		C49.3,11.4,49.4,11.6,49.6,11.6L49.6,11.6z M49.6,11.6"/>
	<path fill="#4373B9" d="M49.6,8.6h3.6c0.2,0,0.4-0.2,0.4-0.4c0-0.2-0.2-0.4-0.4-0.4h-3.6c-0.2,0-0.4,0.2-0.4,0.4
		C49.3,8.5,49.4,8.6,49.6,8.6L49.6,8.6z M49.6,8.6"/>
	<path fill="#4373B9" d="M58.8,13.7h-9.1c-0.2,0-0.4,0.2-0.4,0.4c0,0.2,0.2,0.4,0.4,0.4h9.1c0.2,0,0.4-0.2,0.4-0.4
		C59.1,13.9,59,13.7,58.8,13.7L58.8,13.7z M58.8,13.7"/>
	<path fill="#4373B9" d="M58.8,16.7h-9.1c-0.2,0-0.4,0.2-0.4,0.4c0,0.2,0.2,0.4,0.4,0.4h9.1c0.2,0,0.4-0.2,0.4-0.4
		C59.1,16.8,59,16.7,58.8,16.7L58.8,16.7z M58.8,16.7"/>
	<path fill="#4373B9" d="M58.8,19.6h-9.1c-0.2,0-0.4,0.2-0.4,0.4c0,0.2,0.2,0.4,0.4,0.4h9.1c0.2,0,0.4-0.2,0.4-0.4
		C59.1,19.7,59,19.6,58.8,19.6L58.8,19.6z M58.8,19.6"/>
	<g>
		<defs>
			<rect id="SVGID_1_" x="46" y="3" width="20" height="21.7"/>
		</defs>
		<clipPath id="SVGID_2_">
			<use xlink:href="#SVGID_1_"  overflow="visible"/>
		</clipPath>
		<path clip-path="url(#SVGID_2_)" fill="#4373B9" d="M57.3,3.2v5.1h5.1L57.3,3.2z M57.3,3.2"/>
		<rect x="58" y="16.3" clip-path="url(#SVGID_2_)" fill="#EB1D25" width="8" height="8"/>
	</g>
	<rect x="61.7" y="16.9" fill="#FFFFFF" width="0.7" height="5.8"/>
	<path fill="#FFFFFF" d="M62,23.2l-2.5-2.4l0.5-0.5l2,1.9l2-1.9l0.5,0.5L62,23.2z M62,23.2"/>
</g>
<g>
	<path fill="#FFFFFF" d="M3.6,37.2h4.1c1,0,2,0.2,2.8,0.6c0.8,0.4,1.4,1,1.9,1.7s0.7,1.6,0.7,2.6c0,1-0.2,1.8-0.7,2.6
		s-1.1,1.3-1.9,1.7C9.7,46.8,8.8,47,7.8,47H3.6V37.2z M7.7,45.8c0.8,0,1.5-0.2,2.1-0.5c0.6-0.3,1.1-0.7,1.4-1.3
		c0.3-0.6,0.5-1.2,0.5-1.9c0-0.7-0.2-1.4-0.5-1.9c-0.3-0.6-0.8-1-1.4-1.3c-0.6-0.3-1.3-0.5-2.1-0.5H5v7.4H7.7z"/>
	<path fill="#FFFFFF" d="M16.9,46.6c-0.6-0.3-1-0.8-1.4-1.4c-0.3-0.6-0.5-1.2-0.5-2c0-0.7,0.2-1.4,0.5-2c0.3-0.6,0.8-1,1.4-1.3
		s1.3-0.5,2-0.5c0.7,0,1.4,0.2,2,0.5c0.6,0.3,1,0.8,1.4,1.3c0.3,0.6,0.5,1.2,0.5,2c0,0.7-0.2,1.4-0.5,2c-0.3,0.6-0.8,1-1.4,1.4
		c-0.6,0.3-1.2,0.5-2,0.5C18.1,47.1,17.5,46.9,16.9,46.6z M20.2,45.6c0.4-0.2,0.7-0.5,0.9-0.9c0.2-0.4,0.3-0.9,0.3-1.4
		s-0.1-1-0.3-1.4c-0.2-0.4-0.5-0.7-0.9-0.9s-0.8-0.3-1.3-0.3S18,40.8,17.6,41s-0.7,0.5-0.9,0.9c-0.2,0.4-0.3,0.9-0.3,1.4
		s0.1,1,0.3,1.4s0.5,0.7,0.9,0.9s0.8,0.3,1.3,0.3S19.8,45.8,20.2,45.6z"/>
	<path fill="#FFFFFF" d="M36.3,39.6L33.5,47h-1.3l-2.1-5.6L27.9,47h-1.3l-2.8-7.4h1.3l2.2,5.9l2.2-5.9h1.1l2.2,5.9l2.2-5.9H36.3z"/>
	<path fill="#FFFFFF" d="M44.6,40.3c0.6,0.5,0.8,1.3,0.8,2.4V47h-1.3v-4.1c0-0.7-0.2-1.3-0.5-1.6c-0.3-0.4-0.8-0.5-1.5-0.5
		c-0.7,0-1.3,0.2-1.7,0.6c-0.4,0.4-0.6,1-0.6,1.8V47h-1.3v-7.4h1.3v1.1c0.3-0.4,0.6-0.7,1.1-0.9s1-0.3,1.6-0.3
		C43.3,39.5,44,39.8,44.6,40.3z"/>
	<path fill="#FFFFFF" d="M48.6,36.6H50V47h-1.3V36.6z"/>
	<path fill="#FFFFFF" d="M54.4,46.6c-0.6-0.3-1-0.8-1.4-1.4c-0.3-0.6-0.5-1.2-0.5-2c0-0.7,0.2-1.4,0.5-2c0.3-0.6,0.8-1,1.4-1.3
		s1.3-0.5,2-0.5c0.7,0,1.4,0.2,2,0.5c0.6,0.3,1,0.8,1.4,1.3c0.3,0.6,0.5,1.2,0.5,2c0,0.7-0.2,1.4-0.5,2c-0.3,0.6-0.8,1-1.4,1.4
		c-0.6,0.3-1.2,0.5-2,0.5C55.7,47.1,55,46.9,54.4,46.6z M57.7,45.6c0.4-0.2,0.7-0.5,0.9-0.9c0.2-0.4,0.3-0.9,0.3-1.4s-0.1-1-0.3-1.4
		c-0.2-0.4-0.5-0.7-0.9-0.9s-0.8-0.3-1.3-0.3s-0.9,0.1-1.3,0.3s-0.7,0.5-0.9,0.9c-0.2,0.4-0.3,0.9-0.3,1.4s0.1,1,0.3,1.4
		s0.5,0.7,0.9,0.9s0.8,0.3,1.3,0.3S57.3,45.8,57.7,45.6z"/>
	<path fill="#FFFFFF" d="M67.8,40.3c0.5,0.5,0.8,1.3,0.8,2.3V47h-1.3v-1c-0.2,0.3-0.5,0.6-1,0.8c-0.4,0.2-0.9,0.3-1.5,0.3
		c-0.8,0-1.5-0.2-2-0.6c-0.5-0.4-0.7-0.9-0.7-1.6s0.2-1.2,0.7-1.6s1.2-0.6,2.3-0.6h2.1v-0.3c0-0.6-0.2-1-0.5-1.3
		c-0.3-0.3-0.8-0.5-1.5-0.5c-0.4,0-0.9,0.1-1.3,0.2c-0.4,0.1-0.8,0.3-1.1,0.6l-0.6-1c0.4-0.3,0.8-0.5,1.4-0.7
		c0.5-0.2,1.1-0.2,1.7-0.2C66.5,39.5,67.2,39.8,67.8,40.3z M66.5,45.7c0.4-0.2,0.6-0.6,0.8-1v-1h-2.1c-1.1,0-1.7,0.4-1.7,1.1
		c0,0.4,0.1,0.7,0.4,0.9c0.3,0.2,0.7,0.3,1.2,0.3S66.1,45.9,66.5,45.7z"/>
	<path fill="#FFFFFF" d="M78.8,36.6V47h-1.3v-1.2c-0.3,0.4-0.7,0.7-1.1,0.9c-0.5,0.2-1,0.3-1.5,0.3c-0.7,0-1.4-0.2-1.9-0.5
		c-0.6-0.3-1-0.8-1.3-1.3c-0.3-0.6-0.5-1.2-0.5-2s0.2-1.4,0.5-2c0.3-0.6,0.8-1,1.3-1.3c0.6-0.3,1.2-0.5,1.9-0.5c0.5,0,1,0.1,1.5,0.3
		c0.4,0.2,0.8,0.5,1.1,0.9v-4.1H78.8z M76.3,45.6c0.4-0.2,0.7-0.5,0.9-0.9c0.2-0.4,0.3-0.9,0.3-1.4s-0.1-1-0.3-1.4
		c-0.2-0.4-0.5-0.7-0.9-0.9c-0.4-0.2-0.8-0.3-1.3-0.3c-0.5,0-0.9,0.1-1.3,0.3s-0.7,0.5-0.9,0.9c-0.2,0.4-0.3,0.9-0.3,1.4
		s0.1,1,0.3,1.4s0.5,0.7,0.9,0.9s0.8,0.3,1.3,0.3C75.5,45.9,75.9,45.8,76.3,45.6z"/>
	<path fill="#FFFFFF" d="M88.1,38.9v0.6h2.2v1.1h-2.1V47h-1.3v-6.3h-1.3v-1.1h1.3v-0.7c0-0.7,0.2-1.3,0.6-1.8c0.4-0.4,1-0.6,1.8-0.6
		c0.3,0,0.6,0,0.8,0.1c0.3,0.1,0.5,0.2,0.7,0.3l-0.4,1c-0.3-0.2-0.7-0.4-1-0.4C88.5,37.6,88.1,38.1,88.1,38.9z M92.6,37.9
		c-0.2-0.2-0.3-0.4-0.3-0.6c0-0.2,0.1-0.5,0.3-0.6s0.4-0.3,0.7-0.3s0.5,0.1,0.7,0.2c0.2,0.2,0.3,0.4,0.3,0.6c0,0.3-0.1,0.5-0.3,0.6
		c-0.2,0.2-0.4,0.3-0.7,0.3S92.8,38.1,92.6,37.9z M92.6,39.6H94V47h-1.3V39.6z"/>
	<path fill="#FFFFFF" d="M97.2,36.6h1.3V47h-1.3V36.6z"/>
	<path fill="#FFFFFF" d="M108.5,43.7h-6c0.1,0.7,0.4,1.2,0.9,1.6c0.5,0.4,1.1,0.6,1.8,0.6c0.9,0,1.6-0.3,2.1-0.9l0.7,0.9
		c-0.3,0.4-0.8,0.7-1.3,0.9c-0.5,0.2-1.1,0.3-1.7,0.3c-0.8,0-1.5-0.2-2.1-0.5c-0.6-0.3-1.1-0.8-1.4-1.4c-0.3-0.6-0.5-1.2-0.5-2
		c0-0.7,0.2-1.4,0.5-1.9c0.3-0.6,0.8-1,1.3-1.4c0.6-0.3,1.2-0.5,1.9-0.5c0.7,0,1.3,0.2,1.9,0.5s1,0.8,1.3,1.4c0.3,0.6,0.5,1.2,0.5,2
		C108.5,43.4,108.5,43.6,108.5,43.7z M103.3,41.2c-0.4,0.4-0.7,0.9-0.8,1.5h4.8c-0.1-0.6-0.3-1.1-0.8-1.5c-0.4-0.4-1-0.6-1.6-0.6
		S103.7,40.8,103.3,41.2z"/>
</g>
</svg>
