<?xml version="1.0" encoding="utf-8"?>
<!-- Generator: Adobe Illustrator 17.0.0, SVG Export Plug-In . SVG Version: 6.00 Build 0)  -->
<!DOCTYPE svg PUBLIC "-//W3C//DTD SVG 1.1//EN" "http://www.w3.org/Graphics/SVG/1.1/DTD/svg11.dtd" [
	<!ENTITY ns_flows "http://ns.adobe.com/Flows/1.0/">
	<!ENTITY ns_extend "http://ns.adobe.com/Extensibility/1.0/">
	<!ENTITY ns_ai "http://ns.adobe.com/AdobeIllustrator/10.0/">
	<!ENTITY ns_graphs "http://ns.adobe.com/Graphs/1.0/">
]>
<svg version="1.1" id="Layer_1" xmlns:x="&ns_extend;" xmlns:i="&ns_ai;" xmlns:graph="&ns_graphs;"
	 xmlns="http://www.w3.org/2000/svg" xmlns:xlink="http://www.w3.org/1999/xlink" xmlns:a="http://ns.adobe.com/AdobeSVGViewerExtensions/3.0/"
	 x="0px" y="0px" width="156px" height="23.2px" viewBox="0 0 156 23.2" enable-background="new 0 0 156 23.2" xml:space="preserve"
	>
<g>
	<path fill="#4373B9" d="M20.5,6.8l-5.1-5.1H4.1v21.1h16.4V6.8z M20.5,6.8"/>
	<path fill="#91C0E7" d="M7.7,10h9.1c0.2,0,0.4-0.2,0.4-0.4c0-0.2-0.2-0.4-0.4-0.4H7.7c-0.2,0-0.4,0.2-0.4,0.4
		C7.4,9.9,7.5,10,7.7,10L7.7,10z M7.7,10"/>
	<path fill="#91C0E7" d="M7.7,7.1h3.6c0.2,0,0.4-0.2,0.4-0.4c0-0.2-0.2-0.4-0.4-0.4H7.7c-0.2,0-0.4,0.2-0.4,0.4
		C7.4,7,7.5,7.1,7.7,7.1L7.7,7.1z M7.7,7.1"/>
	<path fill="#91C0E7" d="M16.8,12.2H7.7c-0.2,0-0.4,0.2-0.4,0.4c0,0.2,0.2,0.4,0.4,0.4h9.1c0.2,0,0.4-0.2,0.4-0.4
		C17.2,12.4,17,12.2,16.8,12.2L16.8,12.2z M16.8,12.2"/>
	<path fill="#91C0E7" d="M16.8,15.1H7.7c-0.2,0-0.4,0.2-0.4,0.4c0,0.2,0.2,0.4,0.4,0.4h9.1c0.2,0,0.4-0.2,0.4-0.4
		C17.2,15.3,17,15.1,16.8,15.1L16.8,15.1z M16.8,15.1"/>
	<path fill="#91C0E7" d="M16.8,18.1H7.7c-0.2,0-0.4,0.2-0.4,0.4c0,0.2,0.2,0.4,0.4,0.4h9.1c0.2,0,0.4-0.2,0.4-0.4
		C17.2,18.2,17,18.1,16.8,18.1L16.8,18.1z M16.8,18.1"/>
	<g>
		<defs>
			<rect id="SVGID_1_" x="4.1" y="1.5" width="20" height="21.7"/>
		</defs>
		<clipPath id="SVGID_2_">
			<use xlink:href="#SVGID_1_"  overflow="visible"/>
		</clipPath>
		<path clip-path="url(#SVGID_2_)" fill="#91C0E7" d="M15.4,1.7v5.1h5.1L15.4,1.7z M15.4,1.7"/>
		<rect x="16.1" y="14.8" clip-path="url(#SVGID_2_)" fill="#EB1D25" width="8" height="8"/>
	</g>
	<rect x="19.7" y="15.4" fill="#FFFFFF" width="0.7" height="5.8"/>
	<path fill="#FFFFFF" d="M20.1,21.7l-2.5-2.4l0.5-0.5l2,1.9l2-1.9l0.5,0.5L20.1,21.7z M20.1,21.7"/>
</g>
<g>
	<path fill="#4373B9" d="M36.8,7.7h3.9c1,0,1.9,0.2,2.7,0.6s1.4,1,1.8,1.7c0.4,0.7,0.7,1.6,0.7,2.5c0,0.9-0.2,1.8-0.7,2.5
		c-0.4,0.7-1.1,1.3-1.8,1.7s-1.7,0.6-2.7,0.6h-3.9V7.7z M40.6,16.8c0.9,0,1.7-0.2,2.4-0.5c0.7-0.4,1.2-0.9,1.6-1.5
		c0.4-0.6,0.6-1.4,0.6-2.2c0-0.8-0.2-1.6-0.6-2.2c-0.4-0.6-0.9-1.1-1.6-1.5c-0.7-0.4-1.5-0.5-2.4-0.5h-3.1v8.5H40.6z"/>
	<path fill="#4373B9" d="M49.8,17.1c-0.6-0.3-1-0.8-1.3-1.3c-0.3-0.6-0.5-1.2-0.5-1.9c0-0.7,0.2-1.3,0.5-1.9c0.3-0.6,0.8-1,1.3-1.3
		c0.6-0.3,1.2-0.5,1.9-0.5c0.7,0,1.3,0.2,1.9,0.5s1,0.8,1.3,1.3c0.3,0.6,0.5,1.2,0.5,1.9c0,0.7-0.2,1.3-0.5,1.9
		c-0.3,0.6-0.8,1-1.3,1.3s-1.2,0.5-1.9,0.5C51,17.5,50.4,17.4,49.8,17.1z M53.2,16.5c0.4-0.3,0.8-0.6,1-1.1c0.3-0.5,0.4-1,0.4-1.6
		c0-0.6-0.1-1.1-0.4-1.6c-0.3-0.5-0.6-0.8-1-1.1c-0.4-0.3-0.9-0.4-1.5-0.4s-1.1,0.1-1.5,0.4c-0.4,0.3-0.8,0.6-1,1.1
		c-0.3,0.5-0.4,1-0.4,1.6c0,0.6,0.1,1.1,0.4,1.6c0.3,0.5,0.6,0.8,1,1.1c0.4,0.3,0.9,0.4,1.5,0.4S52.8,16.8,53.2,16.5z"/>
	<path fill="#4373B9" d="M68.4,10.2l-2.8,7.3H65l-2.5-6.3l-2.5,6.3h-0.6l-2.8-7.3h0.7l2.4,6.5l2.5-6.5h0.6l2.5,6.5l2.5-6.5H68.4z"/>
	<path fill="#4373B9" d="M76.5,10.9c0.5,0.5,0.8,1.3,0.8,2.3v4.3h-0.7v-4.2c0-0.8-0.2-1.4-0.6-1.9c-0.4-0.4-1-0.6-1.7-0.6
		c-0.9,0-1.5,0.3-2,0.8s-0.7,1.2-0.7,2.1v3.9h-0.7v-7.3h0.7v1.6c0.3-0.5,0.6-0.9,1.1-1.2c0.5-0.3,1.1-0.4,1.8-0.4
		C75.3,10.1,76,10.4,76.5,10.9z"/>
	<path fill="#4373B9" d="M80.9,7.1h0.7v10.4h-0.7V7.1z"/>
	<path fill="#4373B9" d="M86.2,17.1c-0.6-0.3-1-0.8-1.3-1.3c-0.3-0.6-0.5-1.2-0.5-1.9c0-0.7,0.2-1.3,0.5-1.9c0.3-0.6,0.8-1,1.3-1.3
		s1.2-0.5,1.9-0.5c0.7,0,1.3,0.2,1.9,0.5c0.6,0.3,1,0.8,1.3,1.3c0.3,0.6,0.5,1.2,0.5,1.9c0,0.7-0.2,1.3-0.5,1.9
		c-0.3,0.6-0.8,1-1.3,1.3c-0.6,0.3-1.2,0.5-1.9,0.5C87.4,17.5,86.8,17.4,86.2,17.1z M89.6,16.5c0.4-0.3,0.8-0.6,1-1.1s0.4-1,0.4-1.6
		c0-0.6-0.1-1.1-0.4-1.6s-0.6-0.8-1-1.1c-0.4-0.3-0.9-0.4-1.5-0.4c-0.6,0-1.1,0.1-1.5,0.4c-0.4,0.3-0.8,0.6-1.1,1.1
		c-0.3,0.5-0.4,1-0.4,1.6c0,0.6,0.1,1.1,0.4,1.6c0.3,0.5,0.6,0.8,1.1,1.1c0.4,0.3,0.9,0.4,1.5,0.4C88.7,16.9,89.2,16.8,89.6,16.5z"
		/>
	<path fill="#4373B9" d="M99.1,10.8c0.5,0.5,0.7,1.1,0.7,2v4.6h-0.7v-1.3c-0.2,0.4-0.6,0.8-1,1c-0.4,0.2-1,0.4-1.6,0.4
		c-0.8,0-1.5-0.2-1.9-0.6s-0.7-0.9-0.7-1.5c0-0.6,0.2-1.1,0.7-1.5c0.4-0.4,1.1-0.6,2.1-0.6h2.5v-0.6c0-0.7-0.2-1.2-0.6-1.6
		s-0.9-0.5-1.6-0.5c-0.5,0-0.9,0.1-1.4,0.3s-0.8,0.4-1.1,0.7l-0.3-0.5c0.4-0.3,0.8-0.6,1.3-0.8c0.5-0.2,1-0.3,1.6-0.3
		C98,10.1,98.7,10.3,99.1,10.8z M98.2,16.5c0.4-0.3,0.7-0.7,1-1.2v-1.4h-2.5c-0.7,0-1.2,0.1-1.6,0.4c-0.3,0.3-0.5,0.6-0.5,1.1
		c0,0.5,0.2,0.9,0.5,1.1c0.4,0.3,0.9,0.4,1.5,0.4C97.3,17,97.8,16.8,98.2,16.5z"/>
	<path fill="#4373B9" d="M110,7.1v10.4h-0.7v-1.7c-0.3,0.6-0.7,1-1.2,1.3c-0.5,0.3-1.1,0.5-1.8,0.5c-0.7,0-1.3-0.2-1.8-0.5
		c-0.6-0.3-1-0.8-1.3-1.3c-0.3-0.6-0.5-1.2-0.5-1.9s0.2-1.4,0.5-1.9c0.3-0.6,0.7-1,1.3-1.3c0.5-0.3,1.2-0.5,1.8-0.5
		c0.7,0,1.2,0.2,1.8,0.5c0.5,0.3,0.9,0.7,1.2,1.3V7.1H110z M107.8,16.5c0.4-0.3,0.8-0.6,1-1.1c0.3-0.5,0.4-1,0.4-1.6
		c0-0.6-0.1-1.1-0.4-1.6c-0.3-0.5-0.6-0.8-1-1.1c-0.4-0.3-0.9-0.4-1.5-0.4s-1.1,0.1-1.5,0.4c-0.4,0.3-0.8,0.6-1,1.1
		c-0.3,0.5-0.4,1-0.4,1.6c0,0.6,0.1,1.1,0.4,1.6c0.3,0.5,0.6,0.8,1,1.1c0.4,0.3,0.9,0.4,1.5,0.4S107.4,16.8,107.8,16.5z"/>
	<path fill="#4373B9" d="M118.7,9.1v1.1h2.3v0.6h-2.3v6.7h-0.7v-6.7h-1.3v-0.6h1.3V9c0-0.6,0.2-1.1,0.5-1.5c0.4-0.4,0.9-0.5,1.5-0.5
		c0.3,0,0.5,0,0.8,0.1c0.3,0.1,0.5,0.2,0.6,0.4L121.3,8c-0.3-0.3-0.7-0.4-1.1-0.4C119.2,7.6,118.7,8.1,118.7,9.1z M123.6,8.2
		c-0.1-0.1-0.2-0.2-0.2-0.4c0-0.2,0.1-0.3,0.2-0.4c0.1-0.1,0.2-0.2,0.4-0.2c0.2,0,0.3,0.1,0.4,0.2c0.1,0.1,0.2,0.2,0.2,0.4
		c0,0.2-0.1,0.3-0.2,0.4c-0.1,0.1-0.2,0.2-0.4,0.2C123.8,8.4,123.7,8.3,123.6,8.2z M123.6,10.2h0.7v7.3h-0.7V10.2z"/>
	<path fill="#4373B9" d="M128,7.1h0.7v10.4H128V7.1z"/>
	<path fill="#4373B9" d="M138.5,14h-6.3c0,0.6,0.2,1.1,0.4,1.5c0.3,0.4,0.6,0.8,1.1,1c0.5,0.2,1,0.4,1.6,0.4c0.5,0,0.9-0.1,1.3-0.3
		s0.7-0.4,1-0.8l0.4,0.5c-0.3,0.4-0.7,0.7-1.2,0.9c-0.5,0.2-1,0.3-1.6,0.3c-0.7,0-1.4-0.2-1.9-0.5s-1-0.8-1.3-1.3
		c-0.3-0.6-0.5-1.2-0.5-1.9c0-0.7,0.2-1.3,0.5-1.9c0.3-0.6,0.7-1,1.3-1.3c0.5-0.3,1.1-0.5,1.8-0.5c0.7,0,1.3,0.2,1.8,0.5
		c0.5,0.3,0.9,0.7,1.2,1.3c0.3,0.6,0.5,1.2,0.5,1.9L138.5,14z M133.7,11.1c-0.4,0.2-0.7,0.6-1,1c-0.2,0.4-0.4,0.9-0.4,1.4h5.6
		c0-0.5-0.2-1-0.4-1.4c-0.3-0.4-0.6-0.7-1-1c-0.4-0.2-0.9-0.3-1.4-0.3S134.1,10.8,133.7,11.1z"/>
</g>
</svg>
