<?xml version="1.0" encoding="utf-8"?>
<!-- Generator: Adobe Illustrator 17.0.0, SVG Export Plug-In . SVG Version: 6.00 Build 0)  -->
<!DOCTYPE svg PUBLIC "-//W3C//DTD SVG 1.1//EN" "http://www.w3.org/Graphics/SVG/1.1/DTD/svg11.dtd" [
	<!ENTITY ns_flows "http://ns.adobe.com/Flows/1.0/">
	<!ENTITY ns_extend "http://ns.adobe.com/Extensibility/1.0/">
	<!ENTITY ns_ai "http://ns.adobe.com/AdobeIllustrator/10.0/">
	<!ENTITY ns_graphs "http://ns.adobe.com/Graphs/1.0/">
]>
<svg version="1.1" id="Layer_1" xmlns:x="&ns_extend;" xmlns:i="&ns_ai;" xmlns:graph="&ns_graphs;"
	 xmlns="http://www.w3.org/2000/svg" xmlns:xlink="http://www.w3.org/1999/xlink" xmlns:a="http://ns.adobe.com/AdobeSVGViewerExtensions/3.0/"
	 x="0px" y="0px" width="274px" height="80px" viewBox="0 0 274 80" enable-background="new 0 0 274 80" xml:space="preserve">
<g>
	<path fill="#989898" d="M106.4,47.8h0.8l2.3,5.3v-5.3h0.9v8.1h-0.7l-2.3-5.5v5.5h-1V47.8z"/>
	<path fill="#989898" d="M112.9,47.8h1.1l1.7,8.1h-1.1l-0.4-2h-1.6l-0.4,2h-1.1L112.9,47.8z M114.1,53.1l-0.7-3.6l-0.7,3.6H114.1z"
		/>
	<path fill="#989898" d="M116.7,47.8h1.1l1.4,6.5l1.4-6.5h1.1l0.1,8.1h-0.9l-0.1-5.8l-1.4,5.8h-0.6l-1.4-5.8l-0.1,5.8h-0.9
		L116.7,47.8z"/>
	<path fill="#989898" d="M125,47.8h1.1l1.3,5.9l1.2-5.9h1l-1.8,8.1h-1L125,47.8z"/>
	<path fill="#989898" d="M130.4,47.8h1.1v8.1h-1.1V47.8z"/>
	<path fill="#989898" d="M132.8,47.8h3.1v0.8h-2v2.7h1.6v0.8H134v3h2v0.8h-3.1V47.8z"/>
	<path fill="#989898" d="M137.7,48.7h-1.5v-0.8h4v0.8h-1.4v7.2h-1.1V48.7z"/>
	<path fill="#989898" d="M142.6,55.3c0.3,0,0.6,0,0.8-0.1c0.2-0.1,0.3-0.2,0.3-0.3c0.1-0.2,0.1-0.4,0.1-0.8v-6.2h1.1v6.2
		c0,0.5,0,0.9-0.1,1.2c-0.1,0.3-0.3,0.5-0.5,0.6c-0.3,0.1-0.6,0.2-1.1,0.2h-0.5V55.3z"/>
	<path fill="#989898" d="M146.5,55.3c-0.3-0.4-0.5-1.1-0.5-1.9v-3.1c0-0.8,0.2-1.5,0.5-1.9c0.3-0.4,0.9-0.6,1.7-0.6
		c0.8,0,1.3,0.2,1.7,0.7c0.3,0.4,0.5,1.1,0.5,1.9v3.1c0,0.8-0.2,1.5-0.5,1.9c-0.3,0.5-0.9,0.7-1.7,0.7
		C147.4,56,146.8,55.8,146.5,55.3z M149,54.7c0.1-0.2,0.2-0.6,0.2-1.1v-3.5c0-0.5-0.1-0.9-0.2-1.1c-0.1-0.2-0.4-0.4-0.8-0.4
		c-0.4,0-0.7,0.1-0.9,0.4c-0.1,0.2-0.2,0.6-0.2,1.1v3.5c0,0.5,0.1,0.9,0.2,1.1c0.1,0.2,0.4,0.4,0.9,0.4
		C148.6,55.1,148.9,55,149,54.7z"/>
	<path fill="#989898" d="M151.6,47.8h1.1v8.1h-1.1V47.8z"/>
	<path fill="#989898" d="M154,47.8h0.8l2.3,5.3v-5.3h0.9v8.1h-0.7l-2.3-5.5v5.5h-1V47.8z"/>
	<path fill="#989898" d="M161.8,55.4c-0.4-0.4-0.6-1-0.6-1.7l1-0.3c0,0.5,0.1,0.9,0.3,1.3s0.4,0.5,0.8,0.5c0.3,0,0.5-0.1,0.7-0.2
		c0.1-0.2,0.2-0.4,0.2-0.7c0-0.3-0.1-0.6-0.2-0.8c-0.1-0.2-0.4-0.5-0.7-0.7l-1.4-1.2c-0.3-0.2-0.5-0.5-0.6-0.8
		c-0.1-0.3-0.2-0.6-0.2-1c0-0.6,0.2-1.1,0.5-1.4c0.3-0.3,0.8-0.5,1.4-0.5c0.6,0,1.1,0.2,1.4,0.5s0.5,0.9,0.6,1.6l-1,0.3
		c0-0.5-0.1-0.8-0.3-1.1s-0.4-0.4-0.7-0.4c-0.6,0-1,0.3-1,0.9c0,0.2,0,0.4,0.1,0.6c0.1,0.2,0.2,0.3,0.4,0.5l1.4,1.2
		c0.4,0.3,0.6,0.7,0.8,1c0.2,0.4,0.3,0.8,0.3,1.2c0,0.6-0.2,1.1-0.5,1.4c-0.4,0.3-0.8,0.5-1.4,0.5C162.7,56,162.2,55.8,161.8,55.4z"
		/>
	<path fill="#989898" d="M167,48.7h-1.5v-0.8h4v0.8h-1.4v7.2H167V48.7z"/>
	<path fill="#989898" d="M170.5,55.3c-0.3-0.4-0.5-1.1-0.5-1.9v-3.1c0-0.8,0.2-1.5,0.5-1.9c0.3-0.4,0.9-0.6,1.7-0.6
		c0.8,0,1.3,0.2,1.7,0.7c0.3,0.4,0.5,1.1,0.5,1.9v3.1c0,0.8-0.2,1.5-0.5,1.9c-0.3,0.5-0.9,0.7-1.7,0.7
		C171.4,56,170.9,55.8,170.5,55.3z M173.1,54.7c0.1-0.2,0.2-0.6,0.2-1.1v-3.5c0-0.5-0.1-0.9-0.2-1.1c-0.1-0.2-0.4-0.4-0.8-0.4
		c-0.4,0-0.7,0.1-0.9,0.4c-0.1,0.2-0.2,0.6-0.2,1.1v3.5c0,0.5,0.1,0.9,0.2,1.1c0.1,0.2,0.4,0.4,0.9,0.4
		C172.6,55.1,172.9,55,173.1,54.7z"/>
	<path fill="#989898" d="M175.9,55.3c-0.3-0.5-0.5-1.1-0.5-2v-2.8c0-0.9,0.2-1.6,0.5-2c0.3-0.5,0.9-0.7,1.7-0.7
		c0.7,0,1.2,0.2,1.6,0.6c0.3,0.4,0.5,1,0.5,1.7v0.6h-1.1v-0.6c0-0.4,0-0.7,0-0.9c0-0.2-0.1-0.4-0.3-0.5c-0.1-0.1-0.4-0.2-0.7-0.2
		c-0.3,0-0.5,0.1-0.7,0.2c-0.1,0.1-0.2,0.3-0.3,0.5c0,0.2-0.1,0.5-0.1,0.9v3.2c0,0.4,0,0.7,0.1,1c0.1,0.2,0.2,0.4,0.3,0.5
		c0.1,0.1,0.4,0.1,0.6,0.1c0.3,0,0.5-0.1,0.6-0.2s0.2-0.3,0.3-0.5s0.1-0.5,0.1-0.9v-0.6h1.1v0.6c0,0.8-0.2,1.4-0.5,1.8
		s-0.8,0.6-1.6,0.6C176.7,56,176.2,55.7,175.9,55.3z"/>
	<path fill="#989898" d="M180.6,47.8h1.1v3.8l1.8-3.8h1l-1.6,3.5l1.8,4.5h-1.1l-1.5-3.8l-0.5,0.9v2.8h-1.1V47.8z"/>
	<path fill="#989898" d="M187.9,47.8h1.1v8.1h-1.1V47.8z"/>
	<path fill="#989898" d="M190.3,47.8h0.8l2.3,5.3v-5.3h0.9v8.1h-0.7l-2.3-5.5v5.5h-1V47.8z"/>
	<path fill="#989898" d="M195.9,55.4c-0.4-0.4-0.6-1-0.6-1.7l1-0.3c0,0.5,0.1,0.9,0.3,1.3s0.4,0.5,0.8,0.5c0.3,0,0.5-0.1,0.7-0.2
		c0.1-0.2,0.2-0.4,0.2-0.7c0-0.3-0.1-0.6-0.2-0.8c-0.1-0.2-0.4-0.5-0.7-0.7l-1.4-1.2c-0.3-0.2-0.5-0.5-0.6-0.8
		c-0.1-0.3-0.2-0.6-0.2-1c0-0.6,0.2-1.1,0.5-1.4c0.3-0.3,0.8-0.5,1.4-0.5c0.6,0,1.1,0.2,1.4,0.5s0.5,0.9,0.6,1.6l-1,0.3
		c0-0.5-0.1-0.8-0.3-1.1s-0.4-0.4-0.7-0.4c-0.6,0-1,0.3-1,0.9c0,0.2,0,0.4,0.1,0.6c0.1,0.2,0.2,0.3,0.4,0.5l1.4,1.2
		c0.4,0.3,0.6,0.7,0.8,1c0.2,0.4,0.3,0.8,0.3,1.2c0,0.6-0.2,1.1-0.5,1.4c-0.4,0.3-0.8,0.5-1.4,0.5C196.8,56,196.3,55.8,195.9,55.4z"
		/>
	<path fill="#989898" d="M200.3,47.8h2c0.7,0,1.2,0.2,1.5,0.6s0.5,0.9,0.5,1.7c0,0.7-0.2,1.2-0.5,1.5c-0.3,0.4-0.8,0.5-1.5,0.5h-0.9
		v3.7h-1.1V47.8z M201.9,51.3c0.3,0,0.6,0,0.8-0.1c0.2-0.1,0.3-0.2,0.4-0.4s0.1-0.4,0.1-0.8c0-0.4,0-0.7-0.1-0.9s-0.2-0.3-0.4-0.4
		c-0.2-0.1-0.5-0.1-0.8-0.1h-0.5v2.7H201.9z"/>
	<path fill="#989898" d="M205,47.8h3.1v0.8h-2v2.7h1.6v0.8h-1.6v3h2v0.8H205V47.8z"/>
	<path fill="#989898" d="M209.4,55.3c-0.3-0.5-0.5-1.1-0.5-2v-2.8c0-0.9,0.2-1.6,0.5-2c0.3-0.5,0.9-0.7,1.7-0.7
		c0.7,0,1.2,0.2,1.6,0.6c0.3,0.4,0.5,1,0.5,1.7v0.6h-1.1v-0.6c0-0.4,0-0.7,0-0.9c0-0.2-0.1-0.4-0.3-0.5c-0.1-0.1-0.4-0.2-0.7-0.2
		c-0.3,0-0.5,0.1-0.7,0.2c-0.1,0.1-0.2,0.3-0.3,0.5c0,0.2-0.1,0.5-0.1,0.9v3.2c0,0.4,0,0.7,0.1,1c0.1,0.2,0.2,0.4,0.3,0.5
		c0.1,0.1,0.4,0.1,0.6,0.1c0.3,0,0.5-0.1,0.6-0.2s0.2-0.3,0.3-0.5s0.1-0.5,0.1-0.9v-0.6h1.1v0.6c0,0.8-0.2,1.4-0.5,1.8
		s-0.8,0.6-1.6,0.6C210.3,56,209.7,55.7,209.4,55.3z"/>
	<path fill="#989898" d="M215,48.7h-1.5v-0.8h4v0.8h-1.4v7.2H215V48.7z"/>
	<path fill="#989898" d="M218.2,47.8h1.1v8.1h-1.1V47.8z"/>
	<path fill="#989898" d="M221,55.3c-0.3-0.4-0.5-1.1-0.5-1.9v-3.1c0-0.8,0.2-1.5,0.5-1.9c0.3-0.4,0.9-0.6,1.7-0.6
		c0.8,0,1.3,0.2,1.7,0.7c0.3,0.4,0.5,1.1,0.5,1.9v3.1c0,0.8-0.2,1.5-0.5,1.9c-0.3,0.5-0.9,0.7-1.7,0.7C221.9,56,221.3,55.8,221,55.3
		z M223.5,54.7c0.1-0.2,0.2-0.6,0.2-1.1v-3.5c0-0.5-0.1-0.9-0.2-1.1c-0.1-0.2-0.4-0.4-0.8-0.4c-0.4,0-0.7,0.1-0.9,0.4
		c-0.1,0.2-0.2,0.6-0.2,1.1v3.5c0,0.5,0.1,0.9,0.2,1.1c0.1,0.2,0.4,0.4,0.9,0.4C223.1,55.1,223.4,55,223.5,54.7z"/>
	<path fill="#989898" d="M226,47.8h0.8l2.3,5.3v-5.3h0.9v8.1h-0.7l-2.3-5.5v5.5h-1V47.8z"/>
	<path fill="#989898" d="M233.9,55.3c-0.3-0.5-0.5-1.1-0.5-2v-2.8c0-0.9,0.2-1.6,0.5-2c0.3-0.5,0.9-0.7,1.7-0.7
		c0.7,0,1.2,0.2,1.6,0.6c0.3,0.4,0.5,1,0.5,1.7v0.6h-1.1v-0.6c0-0.4,0-0.7,0-0.9c0-0.2-0.1-0.4-0.3-0.5c-0.1-0.1-0.4-0.2-0.7-0.2
		c-0.3,0-0.5,0.1-0.7,0.2c-0.1,0.1-0.2,0.3-0.3,0.5c0,0.2-0.1,0.5-0.1,0.9v3.2c0,0.4,0,0.7,0.1,1c0.1,0.2,0.2,0.4,0.3,0.5
		c0.1,0.1,0.4,0.1,0.6,0.1c0.3,0,0.5-0.1,0.6-0.2s0.2-0.3,0.3-0.5s0.1-0.5,0.1-0.9v-0.6h1.1v0.6c0,0.8-0.2,1.4-0.5,1.8
		s-0.8,0.6-1.6,0.6C234.7,56,234.2,55.7,233.9,55.3z"/>
	<path fill="#989898" d="M239,55.3c-0.3-0.4-0.5-1.1-0.5-1.9v-3.1c0-0.8,0.2-1.5,0.5-1.9c0.3-0.4,0.9-0.6,1.7-0.6
		c0.8,0,1.3,0.2,1.7,0.7c0.3,0.4,0.5,1.1,0.5,1.9v3.1c0,0.8-0.2,1.5-0.5,1.9c-0.3,0.5-0.9,0.7-1.7,0.7C239.9,56,239.3,55.8,239,55.3
		z M241.5,54.7c0.1-0.2,0.2-0.6,0.2-1.1v-3.5c0-0.5-0.1-0.9-0.2-1.1c-0.1-0.2-0.4-0.4-0.8-0.4c-0.4,0-0.7,0.1-0.9,0.4
		c-0.1,0.2-0.2,0.6-0.2,1.1v3.5c0,0.5,0.1,0.9,0.2,1.1c0.1,0.2,0.4,0.4,0.9,0.4C241.1,55.1,241.4,55,241.5,54.7z"/>
	<path fill="#989898" d="M244.1,47.8h1.1l1.4,6.5l1.4-6.5h1.1l0.1,8.1h-0.9l-0.1-5.8l-1.4,5.8h-0.6l-1.4-5.8l-0.1,5.8H244
		L244.1,47.8z"/>
	<path fill="#989898" d="M250.6,47.8h2c0.7,0,1.2,0.2,1.5,0.6s0.5,0.9,0.5,1.7c0,0.7-0.2,1.2-0.5,1.5c-0.3,0.4-0.8,0.5-1.5,0.5h-0.9
		v3.7h-1.1V47.8z M252.2,51.3c0.3,0,0.6,0,0.8-0.1c0.2-0.1,0.3-0.2,0.4-0.4s0.1-0.4,0.1-0.8c0-0.4,0-0.7-0.1-0.9s-0.2-0.3-0.4-0.4
		c-0.2-0.1-0.5-0.1-0.8-0.1h-0.5v2.7H252.2z"/>
	<path fill="#989898" d="M256.2,47.8h1.1l1.7,8.1H258l-0.4-2H256l-0.4,2h-1.1L256.2,47.8z M257.4,53.1l-0.7-3.6l-0.7,3.6H257.4z"/>
	<path fill="#989898" d="M259.8,47.8h0.8l2.3,5.3v-5.3h0.9v8.1h-0.7l-2.3-5.5v5.5h-1V47.8z"/>
	<path fill="#989898" d="M266.3,53.1l-1.7-5.2h1l1.2,3.9l1.2-3.9h1.1l-1.7,5.2v2.8h-1.1V53.1z"/>
</g>
<g>
	<path fill-rule="evenodd" clip-rule="evenodd" fill="#1794CC" d="M49.9,4.2c24.4,0,44.3,12.4,44.3,27.8c0,15.3-19.8,27.8-44.3,27.8
		S5.6,47.4,5.6,32C5.6,16.7,25.4,4.2,49.9,4.2z"/>
	<g>
		<defs>
			<path id="SVGID_1_" d="M49.9,4.2c24.4,0,44.3,12.4,44.3,27.8c0,15.3-19.8,27.8-44.3,27.8S5.6,47.4,5.6,32
				C5.6,16.7,25.4,4.2,49.9,4.2z"/>
		</defs>
		<clipPath id="SVGID_2_">
			<use xlink:href="#SVGID_1_"  overflow="visible"/>
		</clipPath>
		<g clip-path="url(#SVGID_2_)">
			
				<path fill-rule="evenodd" clip-rule="evenodd" fill="none" stroke="#FFFFFF" stroke-width="0.9507" stroke-miterlimit="22.9256" d="
				M88.1,17.8C80.3,21,66,23,49.9,23c-16.1,0-30.4-2.1-38.2-5.2"/>
			
				<path fill-rule="evenodd" clip-rule="evenodd" fill="none" stroke="#FFFFFF" stroke-width="0.9507" stroke-miterlimit="22.9256" d="
				M90.8,42.5C84,46.3,68.1,49,49.9,49c-18.3,0-34.2-2.7-41-6.5"/>
			
				<path fill-rule="evenodd" clip-rule="evenodd" fill="none" stroke="#FFFFFF" stroke-width="0.9507" stroke-miterlimit="22.9256" d="
				M93.5,29.1c-4,5-22.2,8.8-43.7,8.7c-21.5-0.1-40-5.3-43.7-9"/>
			<g>
				
					<path fill-rule="evenodd" clip-rule="evenodd" fill="none" stroke="#FFFFFF" stroke-width="0.9507" stroke-miterlimit="22.9256" d="
					M48.9,60c11.4,0,20.7-12.5,20.7-27.8c0-15.3-9.3-27.8-20.7-27.8c-11.4,0-20.7,12.5-20.7,27.8C28.2,47.5,37.5,60,48.9,60z"/>
				
					<path fill-rule="evenodd" clip-rule="evenodd" fill="none" stroke="#FFFFFF" stroke-width="0.9507" stroke-miterlimit="22.9256" d="
					M48.9,60c3.7,0,6.6-12.5,6.6-27.8c0-15.3-3-27.8-6.6-27.8c-3.7,0-6.6,12.5-6.6,27.8C42.2,47.5,45.2,60,48.9,60z"/>
			</g>
		</g>
		<g clip-path="url(#SVGID_2_)">
			<path fill-rule="evenodd" clip-rule="evenodd" fill="#B24642" d="M67.4,4.1l0-0.1L67.4,4.1L67.4,4.1L67.4,4.1z M66.2,1.6v0.2
				h-0.2l-0.1,0.1L65.9,2v0.5h-0.2l-0.1,0.1l-0.1,0.2v0.4l0.1,0.2l0.1,0.1l0.2,0.1l0.1,0.1L66,3.7l0.1,0.1l0.1,0.1l0.1,0.1L66.3,4
				h0.2v0.2l0.1,0.1h0.5l0.1-0.1l0.2-0.1l-0.1,0.1l-0.1,0.1v0.3l0.1,0.1l0.2,0.1h0.4l0.6-0.1l0.2-0.1l0.1-0.1l0.2-0.1L69,4.3V3.9
				h-0.2V3.7l-0.1-0.1l-0.1-0.1l-0.1-0.1l-0.1-0.1l-0.2-0.1h-0.2h-0.2l-0.1-0.7l-0.1-0.1L67,2.4V2.3l0.2-0.1V1.7l-0.1-0.1l-0.1-0.1
				h-0.6L66.2,1.6z"/>
			<path fill-rule="evenodd" clip-rule="evenodd" fill="#B24642" d="M51.5,4.8L51.5,4.8l0.1-0.2h0.1v0.5h-0.2V4.8L51.5,4.8z
				 M50.6,4.1h0.2v0.2h-0.2V4.1L50.6,4.1z M52.1,1.1L52,1.2h-0.2h-0.2l-0.2,0.1l-0.1,0.1v0.5L51.3,2l-0.4,0.1l-0.2,0.1h-0.1
				l-0.2-0.1h-0.4l-0.2,0.1l-0.1,0.3l-0.1,1v0.8l0.1,0.1l0.5,0.1l-0.1,0.7v0.7l0.1,0.1h0.2v0.2l0.1,0.1l0.1,0.1l0.1,0.2l0.1,0.1
				L51,6.7h0.3l0.1-0.1l0.1-1V5.4h0.2v0.2l0.2,0.1h0.5l0.2-0.1l0.1-0.1l0.1-0.1l0.1-0.1V5l-0.1-0.1l-0.1-0.2l-0.1-0.1l-0.1-0.1
				l-0.1-0.1l-0.1-0.1h-0.4h-0.1l0.1-0.2V3.9l-0.1-0.1l-0.1-0.6h-0.2V2.9h0.2v0.2l0.1,0.1L52,3.3H53l0.1-0.1l0.1-0.1l0.1-0.4
				l0.1-0.2l0.1-0.2l0.1-0.1V1.8l-0.1-0.2l-0.1-0.2l-0.1-0.1l-0.2-0.1l-0.2-0.1L52.6,1l-0.1-0.1h-0.2v0.2H52.1z"/>
			<polygon fill-rule="evenodd" clip-rule="evenodd" fill="#B24642" points="24.2,4.7 23.9,4.8 23.9,4.9 23.7,5 23.5,5.1 23.5,5.2 
				23.4,5.3 23.3,5.4 23.2,5.5 23.2,5.8 23.1,6 23.1,6.6 23.2,6.7 23.2,6.8 23.9,6.8 23.9,6.6 24.2,6.6 24.2,6.4 24.3,6.4 24.3,6.9 
				24.2,6.9 24.2,7.3 24.2,7.7 24.2,7.8 24.8,7.9 24.8,8.2 24.9,8.3 25.1,8.4 25.7,8.4 25.7,8.3 25.9,8.2 26,8.1 26.3,8 26.3,7.8 
				26.6,7.8 26.6,7.7 26.7,7.6 26.8,7.5 26.9,7.4 27,7.2 27,6.9 26.9,6.8 26.8,6.7 26.7,6.6 26.6,6.5 26.6,6.4 26.5,6.2 26.3,6.2 
				26.3,6 26.2,5.9 26.1,5.8 25.7,5.8 25.7,5.9 25.7,6.5 25.5,6.4 25.4,6.2 25.3,6.1 25.2,6 24.6,6 24.7,5.8 24.8,5.4 24.8,5.2 
				24.8,4.8 24.8,4.7 24.7,4.6 24.2,4.6 			"/>
			<polygon fill-rule="evenodd" clip-rule="evenodd" fill="#B24642" points="74.9,7.2 74.8,7.3 74.7,7.5 74.6,7.6 74.6,8.3 
				74.7,8.5 74.8,8.6 74.9,8.7 75.3,8.7 75.5,8.6 75.6,8.5 75.7,8.5 75.8,8.4 75.9,8.2 75.9,7.7 75.8,7.6 75.7,7.6 75.7,7.4 
				75.6,7.1 75.5,7 75.1,7 75.1,7.2 			"/>
			<polygon fill-rule="evenodd" clip-rule="evenodd" fill="#B24642" points="42.9,14.4 42.8,14.5 42.7,14.5 42.7,14.7 42.6,14.7 
				42.6,15.2 42.7,15.2 42.7,15.5 42.8,15.6 42.9,16 43,16 43.1,16.1 43.3,16.2 43.3,16.3 43.4,16.4 43.6,16.5 44.4,16.5 44.6,16.4 
				44.7,16.3 44.8,16.2 44.9,16.1 44.9,16 45,15.7 45.1,15.6 45.1,14.7 45,14.6 44.9,14.5 44.9,14.5 43.9,14.5 43.7,14.5 43.5,14.4 
				43.3,14.3 43,14.3 			"/>
			<path fill-rule="evenodd" clip-rule="evenodd" fill="#B24642" d="M41.8-1.7h-0.2H41.8L41.8-1.7z M37.3-1.8L37.3-1.8L37.3-1.8
				L37.3-1.8z M37.3-1.8L37.3-1.8L37.3-1.8L37.3-1.8L37.3-1.8z M39.2-4.8L39-4.7l-0.2,0.1l-0.1,0.1l-0.1,0.1l-0.1,0.3L38.5-4v0.6
				l0.1,0.4l0.1,0.2l0.1,0.1l0.1,0.3h-0.2l-0.2,0.1l-0.1,0.1h-0.2l-0.2-0.1l-0.1-0.1l-0.1-0.2h-0.4v0.2h-0.2l-0.1,0.1V-2h-0.8
				L36-1.9l-0.1,0.1l-0.1,0.1v0.6l0.1,0.2h-0.5l-0.1,0.1l-0.1,0.3l-0.1,0.1v0.4l0.1,0.2l0.1,0.5h-0.8l-0.1,0.1l-0.1,0.1l-0.1,0.2
				L34.3,1l-0.1,0.2l-0.1,0.2v0.5L34.2,2l0.1,0.1l0.2,0.1h0.2v0.2v0.4l-0.1,0.1l-0.1,0.1L34.2,3l-0.1,0.1L34,3.2l-0.1,0.1l-0.4,0.1
				l-0.1,0.1l-0.1,0.1l-0.1,0.1v0.6l0.1,0.1l0.1,0.1l0.1,0.5l0.1,0.2l0.2,0.1v0.6l0.1,0.1L34,5.9l0.2,0l-0.1,0.2v0.5l0.1,0.1
				l0.1,0.1l0.2,0.1l1.1,0.1L35.7,7l0.5,0.1l0.1,0.1l0.1,0.4l0.1,0.2v0.3l-0.1,0.4v0.5L36.5,9l0.1,0.8l0.1,0.8l0.1,0.6l0.2,0.1
				l0.3,0L37,11.4l-0.2,0.1l-0.2,0.1v0.7l0.1,0.2l0.1,0.1l0.1,0.2h0.5v0.2h-0.5L36.7,13l-0.1,0.2v0.6l0.1,0.1l0.2,0.1l0.1,0.2
				l0.2,0.1v0.1v0.2l0.1,0.3l0.1,0.7l0.1,0.1l0.1,0.2l0.1,0.8l0.1,0.7l0.1,0.2l0.1,0.9l0.1,0.1l0.1,0.1h0.4l0.2-0.1h0.2l0.1,0.5
				l0.1,0.1h0.6l0.1-0.1l0.1-0.1v-0.7L39.4,18v-0.3l0.1-0.3l0.1-0.5l0.1-0.4l0.1-0.2l0.2-0.1l0.1-0.1L40,16l0.1-0.3v-0.2v-0.2v-0.2
				h0.1V15h0.2l0.1-0.1l0.2-0.1v-0.2h0.2l0.1-0.2l0.2-0.1l0.1-0.5l0.2-0.1l0.4-0.1l0.2-0.1l0.1-0.1l0.1-0.1l0.2-0.1l0.1-0.2l0.1-0.1
				l0.2-0.1l0.1-0.1l0.1-0.1l0.3-0.1l0.1-0.1l0.1-0.1l0.1-0.1l0.1-0.1v-0.5h0.2V11l-0.1-0.5l-0.1-0.1l-0.1-0.1h-0.2v-0.2L43,10
				L43,9.9V9.6l0-0.2l0.1,0.1l0.1,0.1l0.2,0.1h0.3l0.1-0.1l0.1-0.1l0.1-0.1V9.1h-0.2V8.9H44l0.1-0.1l0.1-0.1V8L44,7.9l-0.2-0.1V7.7
				V7.4H44V6.9L44,6.7l-0.1-0.1l-0.1-0.1l-0.1-0.1h-0.3l0-0.2l0.2,0.1H44l0.2-0.1l0.1-0.1L44.4,6l0.1-0.1V5.4h-0.2V5.3l-0.2-0.1
				l-0.1-0.1h-0.2V4.8l-0.2-0.1l-0.1-0.3V4.3V3.8l-0.1-0.5V3.2V2.6l0.3,0.1h0.6l0.2-0.1l0.1-0.1V2l-0.1-0.1l-0.2-0.1l-0.1-0.1
				l-0.2-0.1h0.3l0.1-0.1l0.2-0.1l0.1-0.1V1H45l0.1-0.2V0.4h0.2l0.1-0.2v-0.5l-0.1-0.1l-0.1-0.1l-0.1-0.1l-0.5-0.1l-0.1-0.3L44.6-1
				H44l-0.5,0.1l-0.1,0.1l-0.1,0.2l-0.2,0.1l-0.1,0.3l-0.1,0.1L43,0l-0.2,0.1l-0.2,0.1h-0.1l0.1-0.1L42.8,0l0.1-0.1L43-0.2v-0.3h0.2
				l0.1-0.3v-0.4l-0.1-0.2L43-1.4h-0.3h-0.2l-0.1-0.3h-0.6l0.6-0.1V-2h0.5L43-2.1V-3l-0.1-0.1l-0.2-0.1l-0.1-0.1l-0.1-0.1v-0.1
				l0.1-0.1l0.1-0.3l0.1-0.1V-4l-0.1-0.1l-0.1-0.1l-0.1-0.1l-0.1-0.2l-0.1-0.1l-0.8-0.1l-0.2-0.1l-0.1-0.1L41.2-5h-1.9L39.2-4.8z"/>
			<polygon fill-rule="evenodd" clip-rule="evenodd" fill="#B24642" points="32.3,31.4 32.2,31.5 32.2,31.6 32.1,31.8 32.1,32.1 
				32.2,32.4 32.5,32.5 33.7,32.5 33.9,32.4 34,32.3 34.1,32.2 34.2,32.1 34.2,31.7 34.1,31.6 33.9,31.5 33.8,31.4 33.1,31.3 
				32.5,31.3 			"/>
			<polygon fill-rule="evenodd" clip-rule="evenodd" fill="#B24642" points="70.7,32 70.6,32.3 70.6,32.7 70.6,33 70.6,33.1 
				70.7,33.2 70.8,33.3 70.9,33.4 71,33.4 70.9,33.6 70.8,33.7 70.6,33.8 70.4,33.9 70.4,34.1 70.2,34.1 70.1,34.2 70,34.2 
				69.9,34.3 69.9,34.8 69.7,34.9 69.6,35 69.5,35.3 69.4,35.4 69.3,35.5 69.2,35.6 69,35.7 69,35.7 68.9,35.8 68.9,36 68.4,36 
				68.4,36.1 68.3,36.2 68.3,36.7 68.4,36.8 68.4,37.2 68.5,37.5 68.6,37.6 68.7,37.7 68.8,37.8 69,37.9 69.3,38 69.6,38 69.9,37.9 
				70.1,37.8 70.2,37.6 70.3,37.5 70.4,37.4 70.4,38.2 70.5,38.3 70.9,38.3 71.2,38.2 71.2,38.1 71.4,38 71.5,37.9 71.5,37.8 
				71.5,37.2 71.4,37.2 71.4,36.9 71.9,36.9 72,36.8 72,36.2 71.8,36.1 71,36.1 70.8,36.2 70.6,36.3 70.6,35.8 70.7,35.7 70.7,35.5 
				70.6,35.3 70.6,35.1 70.5,35 70.5,34.9 70.6,34.8 70.7,34.7 70.8,34.6 70.8,34.4 70.9,34.4 71.2,34.4 71,34.4 71,35.1 71.2,35.2 
				71.3,35.3 71.4,35.4 71.6,35.5 72,35.5 72.1,35.4 72.1,35.3 72.2,35.2 72.3,35.1 72.4,35 72.4,34.5 72.3,34.4 72.2,34.3 
				72.1,34.2 71.7,34.2 71.7,33.8 72,33.8 72,33.1 71.9,33 71.7,33 71.7,32.8 71.7,32.6 71.7,32.3 71.6,32 71.3,31.9 70.9,31.9 			
				"/>
			<path fill-rule="evenodd" clip-rule="evenodd" fill="#B24642" d="M29.7,10.9l0.1,0.2l0.2,0.1l0.2,0.1l0.1,0.1l0.1,0.1l0.1,0.2
				l0.2,0.1v0.1v0.7h-0.2v-0.2l-0.1-0.1h-0.6V12l-0.1-0.5h-0.2v-0.3l-0.1-1.4h0.1l0.1-0.1l0.1-0.2V10v0.3V10.9L29.7,10.9z M29.7,9.3
				C29.8,9.1,29.5,9.5,29.7,9.3L29.7,9.3z M28.4,5.4L28.4,5.4l-0.1,0.3l-0.1-0.1H28l-0.2,0.1l-0.2,0.1L27.6,6l-0.7,0.1l-0.2,0.1v0.3
				l0.1,0.2l0.1,0.1L27,6.9L27,6.9L27.1,7l0.1,0.3l0.1,0.1l0.3,0.1l0.1,0.1l0.2,0.1h0.5l0.1-0.1l0.1-0.2V7.2V6.6l0-0.4l0.1,0.1
				L29,6.4l0.1,0.1h0.2v1.3L29.3,8l-0.2,0.1L29,8.2l-0.2,0.1l-0.2,0.1l-0.1,0.1l-0.1,0.1l-0.1,0.2l0,0.3l0-0.2l-0.2-0.1l-0.3-0.1
				h-0.5l-0.2,0.1l-0.1,0.1l-0.1,0.5L27,9.4V10l0.1,0.1l0.1,0.2l0.1,0.1l0.1,0.1l0.1,0.1l0.1,0.1l0.1,0.1l0.1,0.3l0.1,0.1l0.3,0.1
				l0.2,0.1l0.1,0.2l0.1,0.1l0.1,0.2l0.1,0.1l0.2,0.1v0.6l-0.1,0.1l-0.1,0.1l-0.2,0.1h-1.1l0.1-0.1v-0.7h0.2l0.1-0.1l0.1-0.1v-0.2
				l-0.1-0.1l-0.1-0.1l-0.2-0.1l-0.1-0.1L27,11.3l-0.1-0.1l-0.1-0.1h-0.2v-0.2l-0.1-0.2h-0.2v-0.2l-0.1-0.1l-0.1-0.3L26.2,10
				L26.1,10L26,9.8L26,9.7l-0.1-0.2l-0.1-0.1l-0.2-0.1l-0.2-0.1h-0.5V8.9h-0.2V8.6l-0.1-0.1l-0.1-0.1l-0.2-0.1l-0.3-0.1l-0.1-0.1
				L24,8.1h-1l-0.1,0.1l-0.1,0.1l-0.1,0.2l-0.1,0.5l-0.1,0.3L22.6,10v0.4l0.1,0.5h0.2v0.3l0.2,0.1h0.5l0.2-0.1l0.2-0.1l0.1-0.1
				l0.1,0.2l0.1,0.1l0.1,0.2l0.1,0.1l0.2,0.1l-0.1,0.1v0.2l-0.3-0.1h-0.2v-0.2h-0.2v-0.2l-0.1-0.1H23l-0.1,0.1l-0.2,0.1h-0.2
				l-0.2-0.1H22l-0.2,0.1l-0.2,0.1l-0.2,0.1l-0.2,0.1l-0.1,0.1l-0.2,0.1L20.8,12l-0.4,0.1L20.4,12l-0.1-0.1l-0.5-0.1l-0.3-0.1
				l-0.1-0.1l-0.1-0.1l-0.1-0.1L19,11.4l-0.6-0.1l-0.2-0.1L18,11.1L17.2,11l-0.1-0.1h-0.2v-0.2h-0.2v0.2H16L15.8,11l-0.2,0.1
				l-0.2,0.1l-0.1,0.1l-0.1,0.1l-0.1,0.2l-0.1,0.1l-0.1,0.1l-0.2,0.1l-0.2,0.1l-0.1,0.3l-0.2,0.1l-0.2,0.1l-0.1,0.1l-0.1,0.1
				l-0.1,0.1V13l0.1,0.1l0.1,0.1l0.1,0.2l0.1,0.2l0.2,0.1l0.2,0.1l0.1,0.2h-0.5l-0.2,0.1v1.1l0.1,0.1l0.1,0.1l0.1,0.1l0.1,0.1l0.7,0
				l-0.1,0.3L15,16L14.9,16l-0.1,0.1l-0.1,0.1v0.4h-0.2l-0.1,0.1v0.8h0.2v0.4l0.1,0.2l0.1,0.1l0.1,0.1l0.2,0.1l0.2,0.1l0.1,0.1
				l0.3,0.1l0.2,0L15.8,19l-0.1,0.2l-0.2,0.1l-0.1,0.1l-0.1,0.1l-0.1,0.1l-0.2,0.1l-0.2,0.1l-0.2,0.1l-0.2,0.1L14.5,20l-0.1,0.1
				l-0.1,0.1l-0.2,0.1v0.5l0.1,0.1h0.7l0.1-0.1l0.1-0.1l0.2-0.1l0.2-0.1l0.2-0.1l0.2-0.1l0.2-0.1l0.1-0.1l0.1-0.1l0.2-0.1l0.1-0.2
				v-0.2h0.2l0.1-0.2v-0.2h0.2l0.1-0.1L17,19l0.1-0.2l0.1-0.1l0.1-0.1l0.1-0.1l0.1-0.1l0.5-0.1l0.2-0.1l0.2-0.1l0.2-0.1l0.2-0.1h0.1
				l0.2,0.1l0.2,0.1l0.8,0.1l0.1,0.1l0.1,0.1l0.1,0.1l0.1,0.3h0.2V19h0.7v0.2l0.1,0.1l0.1,0.1h0.2v0.2l0.1,0.2l0.1,0.1l0.1,1
				l0.1,0.1l0.2,0.1l0.1,0.4l0.1,0.1l0.2,0.1l0.1,0.3l0.1,0.1l0.1,0.1l0.1,0.1l0.1,0.2l0.2,0.1l0.1,1.1v0.8v1.3l0.1,0.2l0.1,0.4
				l0.1,0.3l0.1,0.2l0.1,0.1l0.1,0.2l0.1,0.1l0.1,0.4h0.2v0.3l0.1,0.1l0.2,0.1l0.1,0.1h0.2v0.2l0.2,0.1l0.1,0.5l0.1,0.2l0.1,0.1
				l0.1,0.2l0.1,0.4l0.1,0.1l0.1,0.1l0.1,0.1l0.1,0.1l0.1,0.1l0.1,0.3l0.1,0.1l0.1,0.1l0.1,0.1l0.2,0.1l0.1,0.1h0.5l0.2-0.1l0.1-0.1
				l0.1,0.2l0.1,0.1l0.1,0.1l0.1,0.5l0.1,0.1l0.1,0.3h0.2v0.2l0.2,0.1h0.2v0.2l0.2,0.1l0.1,0.1l0.2,0.1l0.2,0.1l0.2,0.1l0.8,0.1H29
				v0.2l0.2,0.1h0.2v0.2l0.2,0.1l0.2,0.1l0.1,0.1l0.1,0.1l0.1,0.1l0.2,0.1l0.1,0.2l0.1,0.1l0.1,0.2l0.1,0.1l0.2,0.1l0.1,0.1l0.1,0.1
				l0.2,0.1L31,35h0.6v0.2v0.2l-0.1,0.4l-0.2,0.1l-0.1,0.1v0.2h-0.2L31,36.4L31,36.5L30.9,37l-0.1,0.1v1H31v0.2l0.1,0.2l0.1,0.3
				l0.1,0.1l0.1,0.3l0.2,0.1l0.1,0.1l0.1,0.1l0.1,0.1l0.1,0.6l0.1,0.2h0.2v0.2l0.1,0.2l0.1,0.1l0.1,0.2l0.1,0.1l0.3,0.1l0.1,0.1
				l0.1,0.5l0.1,0.3h0.2v0.2h-0.2l-0.1,0.4l-0.1,0.8l-0.1,1l-0.1,0.3V45v0.3l-0.1,0.1L32.3,46l-0.1,0.3l-0.1,0.2l-0.1,0.5v1l0.1,0.2
				v0.1l-0.1,0.6L32,49.2v1.7l0.1,0.9l0.1,0.1l0.2,0.1l0.1,0.1l0.1,0.1l0.1,0.1l0.1,0.3l0.1,0.1l0.2,0.1l0.1,0.1l0.1,0.1h0.8
				l0.2-0.1l0.1-0.1v-0.4L34,52.2l-0.1-0.1l-0.1-0.2l-0.1-0.1h-0.2l0.1-0.9l0.1-0.1l0.1-0.1l0.1-0.2l0.1-0.2l0.1-0.1l0.1-0.1v-0.7
				v-0.3l0.1-0.2l0.1-0.1l0.1-0.1v-0.3h0.2l0.1-0.6l0.2-0.1l0.2-0.1l0.1-0.1l0.1-0.3l0.1-0.1v-0.2h0.6v-0.5h0.1l0.1-0.1l0.1-0.1
				l0.1-0.2l0.1-0.1l0.2-0.1l0.2-0.1l0.1-0.1v-0.4h0.2l0.1-0.1l0.1-0.2l0.1-0.1l0.1-0.1l0.1-0.3l0.1-0.1v-0.3h0.2l0.1-0.1l0.1-0.1
				l0.1-0.2l0.1-0.7l0.1-0.1l0.1-0.1l0.2-0.1l0.1-0.1v-0.2h0.2l0.2-0.1v-0.2H39l0.1-0.1l0.1-0.2l0.1-0.1l0.1-0.2l0.1-0.2l0.1-0.1
				l0.1-0.1l0.1-0.1l0.1-0.3l0.1-0.7v-0.4V40l0.1-0.1l0.1-0.1l0.1-0.1l0.1-0.1l0.1-0.1l0.1-0.1l0.1-0.1v-0.2h0.2v-0.6h-0.2V38
				l-0.1-0.1l-0.1-0.1l-0.2-0.1l-0.1-0.1h-0.2v-0.2l-0.1-0.1l-0.1-0.1l-0.1-0.1h-0.2V37L39,36.9l-0.2-0.1l-0.4-0.1l-0.2-0.1L38,36.5
				l-0.4-0.1l-0.1-0.2l-0.1-0.3l-0.2-0.1l-0.1-0.5l-0.1-0.1l-0.1-0.2L37,35l-0.2-0.1l-0.8-0.1h-0.3v-0.2l-0.1-0.2l-0.1-0.1l-0.1-0.1
				l-0.2-0.1l-0.1-0.1l-0.1-0.2l-0.3-0.1l-0.7-0.1l-0.4-0.1l-0.2-0.1h-0.3v-0.2h-0.5v0.2h-0.3l-0.1,0.1l-0.1,0.1L32,33.8l-0.2,0.1
				L31.8,34h-0.2l-0.1-0.1h-0.4V33L31,32.6h-0.2v-0.2l-0.2-0.1l-0.4-0.1l-0.1-0.2v-0.2v-0.4h0.2v-0.4l-0.1-0.1L30.3,31l-0.2-0.1
				h-0.6L29.3,31l-0.1,0.2l-0.1,0.1l-0.1,0.1h-0.5l-0.2-0.1l-0.1-0.1v-0.8v-0.2h0.2l0.1-0.5l0.1-0.2l0.5-0.1h0.2h0.2l0.4-0.1
				c0.1-0.3,0.5-0.3,0.6,0l0.2,0.1l0.1,0.6l0.1,0.1l0.1,0.1l-0.1,0.1l-0.1,0.1l-0.2,0.1l-0.2,0.1V31l0.2,0.1l0.2,0.1l0.2,0.1
				l0.3,0.1l0.3,0.1h0.4l0.2-0.1l0.1-0.1V31l-0.1-0.2l-0.1-0.1L32,30.6l-0.2-0.1l-0.2,0l0.1-0.2l0.1-0.2v-0.4v-1.4l0.1-0.1v-0.2H32
				l0.1-0.1v-0.2h0.2l0.1-0.1l0.1-0.1l0.2-0.1l0.1-0.4l0.1-0.2l0.1-0.4l0.2-0.1l0.1-0.1l0.1-0.1l0.1-0.2l0.1-0.1l0.2-0.1l0.1-0.1
				l0.2-0.1l0.1-0.5l0.1-0.1L34,25l0.2-0.1l0.3-0.1V25h0.4l0.2-0.1l0.1-0.1l0.1-0.2l0.1-0.1l0.1-0.1v-0.2h0.2v-0.5h-0.2v-0.2
				L35,23.5L35,23.2v-0.1l0.1-0.3h0.5v0.6l0.1,0.1l0.1,0.1l0.2,0.1l0.3,0.1l0.1,0.1h0.7l0.1-0.1l0.1-0.1l0.1-0.1l0.1-0.1v-0.7
				l-0.1-0.2l-0.1-0.1L37,22.3l-0.1-0.1l-0.1-0.1l-0.1-0.1L36.7,22v-0.3v-0.4l-0.1-0.5l-0.1-0.1l-0.1-0.3l-0.1-0.1l-0.1-0.2
				l-0.1-0.1L36.2,20l-0.2-0.1l-0.1-0.1l-0.1-0.1l-0.1-0.1l-0.1-0.2l-0.1-0.2l-0.1-0.4l-0.1-0.4l-0.1-0.3l-0.1-0.4l-0.1-0.4L35,17.4
				h-0.5l-0.1,0.1v0.5h-0.2L34,18v-0.6l-0.1-0.1l-0.2-0.1l-0.2-0.1l-0.1-0.1L33.5,17l-0.1-0.1l-0.1-0.1l-0.1-0.1l-0.2-0.1l-0.2-0.1
				l-0.2-0.1h-0.6L32,16.5l-0.1,0.1L31.9,17l-0.1,0.1v0.2l0.1,0.1l-0.1,0.1l-0.1,0.1v1.3l0.1,0.1h0.2v0.2v0.1l-0.1,0.4l-0.1,0.1
				l-0.1,0.1l-0.1,0.6l0,0.6l0-0.2l-0.1-0.3l-0.1-0.3h-0.2V20l-0.1-0.1l-0.3-0.1l-0.2-0.1l-0.1-0.1h-0.3v-0.2l-0.2-0.1l-0.1-0.1
				L30,19.1L29.9,19l-0.1-0.2l-0.1-0.1l-0.1-0.2l-0.1-0.1h-0.1v-0.3l-0.1-0.1L29.2,18l-0.1-0.1l-0.1-0.6v-0.1l0.1-0.1l0.1-0.1
				l0.1-0.2l0.1-0.1l0.1-0.1l0.2-0.1v-0.2h0.2l0.2-0.1l0.1-0.1l0.2-0.1l0.1,0.1l0.2,0.1h0.2v0.2l0.2,0.1l0.2,0.1H31l0.1-0.1l0.1-0.1
				l0.1-0.1l0.5-0.1l0.1-0.1v-0.6l-0.1-0.1l-0.1-0.1l-0.1-0.1l-0.1-0.1l-0.1-0.1l-0.1-0.1L31.3,15l-0.1-0.1l-0.1-0.1L31,14.7
				l-0.2-0.1l-0.2-0.1l0.3-0.1l0.2-0.1l0.1-0.2l0.2-0.1l0.1-0.2l0.1-0.1l0.2-0.1V13L31.6,13l-0.2-0.1v-0.3v-0.5l-0.1-0.2l0.5,0.1
				l0.1,0.2l0.1,0.1l0.1,0.1l0.1,0.1l0.1,0.2l0.1,0.2l0.2,0.1l0.2,0.1l0.2,0.1l0.1,0.1l0.1,0.2v0.1L33,13.6l-0.1,0.1v0.6h-0.2
				l-0.1,0.1l-0.1,0.1l-0.4,0.1L32,14.6l-0.1,0.1l-0.1,0.1l-0.1,0.1v0.5h0.2v0.2l0.2,0.1h0.8v0.2L33,16l0.1,0.2l0.1,0.4l0.2,0.1
				l0.2,0.1l0.2,0.1l0.2,0.1l0.2,0.1l0.1,0.1h0.8v-0.6H35l0.1-0.3v-0.9h0.2l0.1-0.1v-0.5h0.2l0.1-0.1l0.1-0.3V14l-0.1-0.3l-0.2-0.1
				l-0.1-0.1l-0.1-0.1l-0.1-0.1l-0.1-0.1L35,13L34.9,13l-0.1-0.2l-0.1-0.2l-0.1-0.1l-0.1-0.1v-0.1v-0.4l-0.1-0.3l-0.1-0.1l-0.1-0.2
				l-0.1-0.2l-0.1-0.1L34.1,11L34,10.9l-0.1-0.1l-0.1-0.1l-0.1-0.1h-0.2v-0.2l-0.2-0.1h-0.2v-0.2L33.1,10L33,9.9l-0.1-0.1l-0.1-0.1
				l-0.2-0.1l-0.1-0.4h-0.2V9l-0.1-0.1l-0.1-0.1l-0.1-0.1l-0.2-0.1l-0.5-0.1l-0.3-0.1h-0.5l-0.5,0.1l-0.2,0.1L30,8.5l-0.1-0.1
				l-0.1-0.1h0.1l0.2,0.1l0.5,0.1h0.2l0.8-0.1l0.2-0.1l0.1-0.1V7.8H32l0.1-0.2V7L32,6.9l-0.2-0.1l-0.1-0.1l-0.1-0.1h-0.6h-0.6
				l-0.3-0.1l-0.1-0.3l-0.1-0.1L30,6.1L29.9,6l-0.1-0.2l-0.1-0.1l-0.1-0.1l-0.1-0.1l-0.3-0.1H29V5.3h-0.4v0.2H28.4z"/>
			<path fill-rule="evenodd" clip-rule="evenodd" fill="#B24642" d="M67.2,37.2L67.2,37.2L67.2,37.2L67.2,37.2L67.2,37.2z
				 M67.2,37.1l0.1,0.2L67.2,37.1z M67.2,37.1L67.2,37.1L67.2,37.1L67.2,37.1L67.2,37.1z M66.9,36.8C67.1,36.6,66.8,36.9,66.9,36.8
				L66.9,36.8z M66.6,35.6L66.6,35.6L66.6,35.6L66.6,35.6L66.6,35.6z M54.8,32l0.2,0.1l0.1,0.1l0.1,0.2l0.1,0.3l0.1,0.4l-0.2-0.1
				L55,32.7l-0.1-0.2l-0.1-0.2V32L54.8,32L54.8,32z M54.5,31.1C54.7,31,54.4,31.3,54.5,31.1L54.5,31.1z M58.7,30.8L58.7,30.8
				L58.7,30.8L58.7,30.8L58.7,30.8z M54.3,30.6C54.3,30.2,54.3,31,54.3,30.6L54.3,30.6z M70.9,30.3C71.1,30.1,70.8,30.5,70.9,30.3
				L70.9,30.3z M49.9,27.4v-0.2h0.4l0.2-0.1l0.1-0.1l0.1-0.1l0.2-0.1l0.1-0.1l0-0.2l0.3,0.1l0.1,0.5l0.1,0.1l0.2,0.1h0.2v0.2
				l0.1,0.1H52l0.1-0.1v-0.2h0.2l0.1-0.2l0.1-0.1l0.1-0.1l0.1,0.1l0.1,0.2l0.1,0.1l0.1,0.2l0.2,0.1l1.1,0l-0.1,0.2l-0.1,0.6
				l-0.2,0.1h-0.1h-0.2l-0.1,0.1l-0.1-0.1l-0.2-0.1l-0.5-0.1L52,28.1L52,28.1h-0.6v0.2h-0.2l-0.1,0.1v0.3h-0.5v-0.2l-0.1-0.2
				l-0.3-0.1l-0.2-0.1L50,27.7L49.9,27.4L49.9,27.4L49.9,27.4z M49.6,26.4L49.6,26.4l0.3-0.1l-0.2-0.1l-0.2-0.1L49.5,26l-0.1-0.1
				l-0.1-0.1l-0.1-0.1l-0.1-0.4h-0.8l-0.2,0.1h-0.2v0.4L48,25.9L48,26l-0.2,0.1l-0.1,0.1l-0.1,0.3l-0.1,0.3l2,0.1L49.6,26.4
				L49.6,26.4L49.6,26.4z M50.8,25.4L50.8,25.4L50.8,25.4L50.8,25.4z M50.8,25.4L50.8,25.4L50.8,25.4L50.8,25.4L50.8,25.4z
				 M47.2,21.6l0.1,0.1L47.2,21.6L47,21.5l-0.1-0.1l0.1-0.1l0.1-0.1v-0.4h0.2V21v0.1V21.6L47.2,21.6z M49.8,19.3L49.8,19.3
				L49.8,19.3L49.8,19.3z M49.8,19.3L49.8,19.3L49.8,19.3L49.8,19.3z M51.8,18.6H52v-0.2l0.1-0.1h-0.2l-0.2-0.1V18l-0.2,0.1
				l-0.1,0.2l-0.1,0.2l-0.1,0.1l-0.1,0.1l-0.1,0.5L51,19.3l-0.1,0.5L50.8,20l-0.1,0.1l-0.2,0.1l-0.2,0.1h-0.6V20l-0.1,0.4l0.4,0h0.2
				l0.5-0.1l0.4-0.1l0.2-0.1l0.1-0.2l0.1-0.8h0.2v-0.3L51.8,18.6L51.8,18.6L51.8,18.6z M52,18.3l0.2-0.1L52,18.3L52,18.3z M51.3,17
				l0.1-0.2l0,0.8l0-0.3V17L51.3,17z M51.9,15.8C51.9,15.4,51.9,16.1,51.9,15.8L51.9,15.8z M55,14.9C55.1,14.8,54.9,15.1,55,14.9
				L55,14.9z M54.5,14.9C54.6,14.8,54.8,15.1,54.5,14.9L54.5,14.9C54.6,15,54.5,14.9,54.5,14.9L54.5,14.9z M55.8,13.8v0.4V13.8
				L55.8,13.8z M58.2,10.6C58.4,10.4,58.1,10.8,58.2,10.6L58.2,10.6z M58.5,9.4l-0.1,0.4l0.1-0.6l0.1-0.1l0.1-0.2l-0.1,0.3L58.5,9.4
				L58.5,9.4z M58.8,8.6L58.8,8.6l0.1-0.3V8l-0.1,0.4V8.6l-0.2,0.3l0.1-0.1L58.8,8.6L58.8,8.6z M59,7.9L59,7.9L59,7.9l0.2-0.2
				L59,7.9L59,7.9L59,7.9z M59.1,7.7L59.1,7.7l0-0.1L59.1,7.7L59.1,7.7z M59.3,7.5C59.4,7.3,59.2,7.7,59.3,7.5L59.3,7.5z M59.6,7.4
				l-0.2,0.1L59.6,7.4L59.6,7.4z M59.7,7.3L59.7,7.3l-0.1-0.2h0.2h0.1v0.2H59.7L59.7,7.3z M68.1,4.9L68.1,4.9l-0.2,0.2l-0.1,0.1
				l-0.1,0.1l-0.1,0.1l-0.1,0.1l-0.1,0.2l-0.1,0.1l-0.1,0.1v0.6h-0.2h-0.7l-0.3-0.1h-0.6l-0.2,0.1l-0.1,0.1l-0.2,0.1l-0.1,0.2
				l-0.1,0.1L65,7L65,7.2l-0.2,0.1l-0.2,0.1l-0.1,0.1l-0.2,0.1l-0.2,0.1l-0.1,0.1L64.1,8l-0.1,0.1v0.7l0.1,0.2H64v0.2h-0.2l-0.2,0.1
				l-0.1,0.1v0.2h-0.2l-0.1,0.1V10l0.1,0.1l0.2,0.1l-0.3,0.1l-0.2,0.1h-0.2h-0.5l-0.1,0.1l-0.1-0.2v-0.2V10L62,9.5l-0.1-0.2
				l-0.1-0.1h-0.5l-0.1,0.1l-0.1,0.1l-0.1,0.4L61.1,10L61,10v0.3h-0.2l-0.1,0.2v0.2h-0.2l-0.1,0.2l-0.1,0.5v0.6l-0.3-0.1l-0.5-0.1
				l-0.1-0.1l-0.2-0.1l-0.3-0.1v-0.3L59,11.1L58.9,11l-0.1-0.3v-0.1v-0.5l0.1-0.1L59,9.9l0.1-0.3l0.1-0.1l0.1-0.2l0.1-0.2l0.1-0.2
				l0.1-0.4V8.2h0.3l0.2-0.1L60,8l0.1-0.1l0.1-0.1l0.1-0.1V7.5h0.2l0.1-0.1l0.1-0.2l0.2-0.1L61,7l0.1-0.1l0.1-0.1V6.1l-0.1-0.4h-0.5
				l-0.1,0.1L60.5,6l-0.1,0.2l-0.8,0.1l-0.1,0.1l-0.2,0.1l-0.1,0.1l-0.1,0.1v0.3H59L58.8,7v0.2h-0.2l-0.1,0.1l-0.1,0.2l-0.2,0.1
				l-0.1,0.2l-0.1,0.6l-0.1,0.2l-0.1,0.3L58,8.9l-0.1,0.4l-0.1,0.6L57.8,10L57.7,10l-0.1,0.4v0.4l0.1,0.3l0.1,0.1l0.1,0.1l0.1,0.1
				l0.1,0.1l0.2,0.1l0.1,0.1l0.2,0.1l0.2,0.1V12l0.1,0.1l0.1,0.1l0.1,0.1l0.1,0.1l0.2,0.1l0.1,0.3h-1.4l-0.3,0.1L57.2,13L57.1,13
				L57,13.3L57,13.4v0.2h-0.2v-0.4l-0.1-0.1L56.7,13L56.6,13l-0.3-0.1h-0.4L55.8,13l0,0.8l-0.1-0.1l-0.2-0.1l-0.1-0.1l-0.1-0.1
				l-0.1-0.2L55.2,13L55.1,13l-0.2-0.1l-0.1-0.1l-0.1-0.1l-0.1-0.1h-0.2v-0.2l-0.1-0.1l-0.1-0.1l-0.2-0.1L54.1,12L54,11.9h-0.2v-0.2
				l-0.1-0.1l-0.1-0.1h-0.2v-0.3l-0.2-0.1h-1.1L52,11.3l-0.2,0.1l-0.2,0.1v0.3h-0.2l-0.1,0.1l-0.2,0.1L51.1,12l-0.1,0.1l-0.2,0.1
				l-0.1,0.1l-0.1,0.1V13h-0.2L50.5,13l-0.1,0.1l-0.1,0.2l-0.1,0.1l-0.2,0.1l-0.1,0.1l-0.1,0.1l-0.1,0.2l-0.1,0.4l-0.1,0.3l-0.1,0.6
				l-0.1,0.1l-0.1,0.1l-0.1,0.1l-0.1,0.1l-0.1,0.2L49.2,16v0.2h-0.2l-0.2,0.1l-0.2,0.1l-0.2,0.1l-0.1,0.1v1.6l0.1,0.6l0.1,0.2
				l0.1,0.1l0.2,0.1h0.6l0.2-0.1h0.1l0.1,0.1l0.1,0.1h-0.5v0.2H49l-0.1,0.2l-0.1,0.3l-0.1,0.4l-0.1,0.2v0.3h-0.3l-0.1,0.1l-0.1,0.1
				L48.2,21l-0.1,0.1L48,21.2l0,0.2l-0.1-0.1l-0.1-0.5l-0.1-0.1l-0.1-0.1l-0.1-0.3L47.5,20l-0.1-0.1v-0.3v-0.3l-0.1-0.2L47.3,19
				l-0.1-0.2l-0.1-0.3l-0.1-0.1h-0.5l-0.1,0.1l-0.1,0.3L46.3,19l-0.1,0.2l-0.1,0.1l-0.1,0.1v0.5h0.2V20l0.2,0.1h-0.5l-0.2,0.1
				l-0.1,0.1l-0.2,0.1l-0.1,0.1L45.3,21v0.4l0.1,0.2l0.2,0.1h0.5h0.2v0.2v0.2h-0.2v0.3l0.2,0.1h0.3v0.2h0.2l0.1-0.1l0.1-0.1h0.1
				l-0.2,0.1l-0.1,0.1l-0.2,0.1l-0.2,0.1l-0.2,0.1l-0.1,0.2v0.4l0.1,0.1l0.1,0.1l0.1,0.1l0.1,0.1h0.2v0.4H47v0.3h-0.5h-0.3h-0.3
				l-0.2,0.1l-0.1,0.1l-0.1,0.2l-0.1,0.2v0.3l0.1,0.1v0.2v1.3l0.1,0.2l0.1,0.1l0.2,0.1h0.2v0.2h-0.2l-0.2,0.1l-0.1,0.1l-0.2,0.1
				L45.5,28l-0.1,0.2l-0.1,0.5l-0.1,0.6l-0.2,0.1l-0.4,0.1l-0.1,0.1l-0.1,0.2l-0.1,0.2l-0.1,0.3l-0.1,0.1v0.3h-0.2l-0.1,0.1L44,31.1
				L44,31.1v0.6v0.8l-0.1,0.1l-0.1,0.2v0.6l0.1,0.1l0.1,0.3l0.1,0.2l0.1,0.2l0.1,0.1l0.1,0.1h0.2v0.2l0.1,0.2l0.1,0.1l0.1,0.1
				l0.1,0.1l0.1,0.1l0.1,0.1l0.1,0.1l0.1,0.1l0.1,0.1l0.2,0.1l0.1,0.1l0.2,0.1l0.2,0.1h1.6l0.2-0.1l0.2-0.1l0.2-0.1h0.1l0.2,0.1
				l0.1,0.2h0.5V36v0.7v0.5l0.1,0.3l0.1,0.1h0.2v0.2l0.1,0.4l0.1,0.4l0.1,0.2l0.1,0.4l0.1,1h-0.2l-0.1,0.1l-0.1,0.1l-0.1,0.2V41
				l0.1,0.4l0.1,0.5l0.1,0.1l0.1,0.2l0.1,0.2l0.1,0.1l0.1,0.1l0.1,0.9l0.1,0.2l0.1,0.4l0.1,0.2h0.2v0.2l0.1,0.1l0.1,0.1v0.1v0.8
				l0.1,0.1l0.1,0.2l0.1,0.1h1.3l0.2-0.1v-0.3h0.2l0.1-0.1l0.1-0.1l0.2-0.1l0.2-0.1l0.1-0.1l0.2-0.1v-0.2h0.2l0.1-0.1l0.1-0.1
				l0.1-0.1l0.1-0.1l0.1-0.1l0.1-0.4l0.1-0.1l0.1-0.2l0.1-0.2l0.1-0.3L54,43l0.2-0.1l0.1-0.2V42v-0.3v-0.3h0.2l0.1-0.1l0.1-0.2V41
				h0.2l0.1-0.1l0.1-0.2l0.2-0.1l0.1-0.2v-1L55,38.9v-0.3V38v-0.1l0.1-0.1v-0.2h0.2l0.1-0.1l0.1-0.1l0.1-0.2v-0.4h0.2l0.1-0.1
				l0.1-0.1l0.2-0.1l0.1-0.1l0.2-0.1l0.1-0.1l0.1-0.1l0.1-0.2l0.1-0.1v-0.2h0.2l0.1-0.1l0.1-0.1l0.2-0.1L57,35l0.1-0.1l0.1-0.2
				l0.1-0.1l0.1-0.3v-0.6h-0.7h-0.3h-0.6v-0.1h0.8l0.2-0.1l0.2-0.1l0.1-0.2l0.3-0.1l0.2-0.1l0.2-0.1l0.1-0.1v-0.2h0.2l0.1-0.1
				l0.1-0.1l0.2-0.1l0.1-0.1l0.1-0.1l0.1-0.1l0.2-0.1l0.1-0.2l0.1-0.3l0.1-0.2v-0.3L58.8,31l-0.1-0.2h0.5h0.9l0.1,0.1l0.1,0.1h0.2
				v0.2l0.1,0.1l0.1,0.1l0.1,0.2l0.1,0.1l0.1,0.1l0.3,0.1l0.2,0.1v0.4v0.2l0.1,0.3l0.1,0.1l0.1,0.2l0.1,0.4l0.1,0.5l0.1,0.2l0.1,0.2
				l0.1,0.4l0.1,0.2l0.1,0.1l0.1,0.1h0.5v0.5l0.2,0.1H63l0.1-0.1l0.1-0.1v-0.7l-0.1-0.2l-0.1-0.3v-0.2l0.1-0.1v-0.2v-0.4l0.1-0.5
				v-0.2h0.2l0.1-0.1l0.1-0.1l0.2-0.1l0.1-0.1l0.1-0.1l0.2-0.1l0.2-0.1l0.1-0.1l0.2-0.1h0.7l0.1,0.4l0.1,0.1l0.1,0.1l0.1,0.2
				l0.1,0.3l0.1,0.1l0.1,0.1l0.2,0.1h0.1v0.5l0.1,1.4l0.1,0.1h0.2v0.2l0.1,0.1l0.1,0.1l-0.2-0.1l-0.2-0.1h-0.3l-0.2,0.1l-0.1,0.1
				v0.4l0.1,0.2l0.2,0.1l0.2,0.1l0.1,0.1l0.1,0.3l0.1,0.3h0.2v0.3l0.2,0.1l0.1,0.1l0.1,0.2h0.2v0.2l0.1,0.2h0.2v0.2l0.2,0.1l0.2,0.1
				l0.1,0.1l0.1,0.1l0.1,0.1l0.1,0.1l0.2,0.1h0.5V39l0.4,0.1l0.5,0.1h0.5l0.2-0.1v-0.4L70,38.7l-0.1-0.1l-0.1-0.1l-0.2-0.1l-0.2-0.1
				l-0.2-0.1l-0.1-0.1L69,38h-0.4h-0.3l-0.2-0.1L68,37.8h-0.2v-0.7l-0.1-0.3v-0.2v-0.8l-0.1-0.2l-0.1-0.2h-0.1v-0.2l-0.1-0.1h-0.2
				v-0.2l-0.1-0.5l-0.1-0.2L67,34.2l0.2,0.1l0.1,0.1l0.2,0.1l0.1,0.1h0.5l0.2-0.1l0.1-0.1l0.2-0.1l0.2-0.1l0.1-0.2l0.1-0.9v-0.3
				l-0.1-0.5h-0.2V32l-0.1-0.1l0.2-0.1l0.4-0.1l0.2-0.1l0.2-0.1l0.2-0.1l0.4-0.1l0.3-0.1l0.2-0.1V31h0.3v0.3l0.1,0.1h0.5l0.1-0.1
				l0.1-0.1l0.1-0.2v-0.4l-0.1-0.1l-0.1-0.1l-0.1-0.2l-0.1-0.1l0.1-0.1l0.1-0.2l0.1-0.1l0.1-0.1l0.1-0.1v-0.5l-0.1-0.2h-0.2v-0.7
				l-0.1-0.2L71.2,28l-0.1-0.3h0.2l0.1-0.1l0.2-0.1l0.1-0.2l0.1-0.1l0.1-0.2v-0.2h0.2V27v0.3v0.2l0.1,0.2l0.1,0.1h0.8l0.2-0.1v0.1
				l-0.1,0.1L72.8,28v0.3h-0.1v0.3h0.1v0.4l0.1,0.1h0.6l0.1-0.1l0.1-0.3v-0.2h0.2l0.5-0.1l0.2-0.1l0.2-0.1l0.1-0.1l0.2-0.1l0.1-0.1
				l0.1-0.1l0.2-0.1l0.2-0.1l0.1-0.1l0.1-0.3l0.1-0.5l0.1-0.3v-0.4l-0.1-0.2v-0.1l0.1-0.1l0.2-0.1l0.1-0.1l0.2-0.1l0.3-0.1l0.2-0.1
				v-0.6l-0.1-0.1l-0.1-0.1l-0.2-0.1l-0.2-0.1h-0.2v-0.2h-0.5l-0.1,0.1l-0.1,0.1L75,24.6l-0.1,0.3l-0.1,0.4l-0.1,0.4l-0.1,0.6v0.2
				h-0.2l-0.1,0.1l-0.1,0.1l-0.1,0.2l-0.2,0.1L74,26.9v0.2h-0.2l-0.3,0.1l-0.1,0.1l-0.1,0.1l-0.2,0.1v-0.8l-0.1-0.2l-0.1-0.2v-0.1
				l0.1-0.2l0.1-0.1l0.1-0.3l0.1-0.1l0.1-0.1l0.1-0.1l0.2-0.1l0.5-0.1l0.1-0.1l0.1-0.1l0.2-0.1l0.1-0.2l0.1-0.1l0.1-0.1l0.1-0.2
				v-0.5h0.2l0.1-0.2l0.1-0.2l0.1-0.1l0.1-0.1l0.1-0.2l-0.1,0.3v0.5l0.2,0.1h0.4l0.2-0.1l0.1-0.7l0.1-0.1l0.1-0.1l0.1-0.1l0.1-0.1
				v-0.5l-0.1-0.2l-0.1-0.4l-0.1-0.4v-0.4v-0.7L76,20.3h-0.5h-0.3V20l0.1-0.1v-0.5v-0.3V19h0.3v-0.2h0.2l0.1-0.1h0.8l0.2,0.1h0.3V19
				h0.5l0.1-0.1l0.2-0.1l0.2-0.1l0.2-0.1l0.2-0.1l0.1-0.2V18h0.2l0.1-0.1l0.1-0.1l0.1-0.1v-0.3h0.2v0.4h-0.2L79,17.9l-0.1,0.2
				l-0.1,0.2l-0.1,0.3l-0.1,0.1v0.2h-0.2L78.4,19l-0.1,0.1l-0.1,0.2v2.5l0.1,0.2l0.1,0.1l0.1,0.1h0.5l0.1-0.1l0.1-0.1l0.1-0.1
				l0.1-0.1l0.1-0.2l0.1-0.1l0.1-0.5l0.1-0.3l0.2-0.1l0.1-0.1l0.2-0.1l0.1-0.1l0.1-0.1l0.1-0.1l0.1-0.4v-1v-0.4l0.1-0.2l0.1-0.1
				l0.2-0.1L81,18l0.1-0.1h0.2l0.1,0.1l0.1,0.1h0.3l0.2-0.1l0.1-0.1l0.1-0.4l0.1-0.2l0.1-0.2l0.2-0.1l0.3-0.1l0.3-0.1l0.5-0.1
				l0.4-0.1V16l-0.1-0.1h-0.2v-0.3l-0.1-0.2h0.3l0.3-0.1h0.3l0.3,0.1l0.2,0.1h0.3l0.1-0.1l0.1-0.2v-0.5h0.2l0.1-0.1v-0.6L85.5,14
				l-0.1-0.3l-0.1-0.1l-0.1-0.2l-0.1-0.1L85,13.2l-0.1-0.1L84.8,13l-0.1-0.1l-0.1-0.1l-0.1-0.1l-0.1-0.1l-0.1-0.1l-0.1-0.1l-0.1-0.1
				l-0.2-0.1l-0.6-0.1L83.4,12l-0.1-0.1l-0.2-0.1l-0.4-0.1l-0.2-0.1l-0.2-0.1h-0.8l-0.1,0.2h-0.1l-0.3-0.1h-0.4l-0.9,0.1h-0.2v-0.3
				v-0.6l-0.1-0.2l-0.4-0.1h-0.6l-0.4,0.1h-0.1l-0.3,0l0.1-0.2V10L77.8,10l-0.2-0.1l-0.9-0.1l-0.2-0.1l-0.2-0.1l-0.2-0.1h-0.4
				l-0.2,0.1l-0.1,0.1l-0.1,0.1l-0.1,0.1L75.2,10L75.1,10L75,10.3l-1,0.1l-0.2,0.1h-0.1l-0.1-0.1l-0.1-0.1h-0.2v-0.2L73.3,10
				L73.1,10l-0.3-0.1h-0.2V9.7l-0.1-0.1l-0.1-0.1l-0.2-0.1L72,9.3l-0.2-0.1l-0.1-0.4l-0.2-0.1l-0.3-0.1l-0.2-0.1L71,8.5l-0.1-0.1
				l-0.8-0.1L70,8.2l-0.2-0.1V7.8h0.2L70,7.7L70,7.5l0.1-0.1l0.1-0.2V6.7l-0.1-0.5L70,6L70,5.8l-0.1-0.1l-0.3-0.1h-0.2h-0.2L69,5.5
				L69,4.8h-0.7L68.1,4.9z"/>
			<polygon fill-rule="evenodd" clip-rule="evenodd" fill="#B24642" points="71.4,38.7 71.3,38.8 71.2,38.9 71.1,39 71.1,39.5 
				71.2,39.6 71.8,39.6 72,39.5 72.1,39.4 72.1,39.3 72.2,39.2 72.2,38.9 72.1,38.7 72,38.7 71.5,38.7 			"/>
			<polygon fill-rule="evenodd" clip-rule="evenodd" fill="#B24642" points="72.9,36.8 72.8,37 72.8,37.3 72.9,37.5 73,37.6 
				73.1,37.8 73.1,37.9 73.3,38 73.7,38.1 73.9,38.2 74,38.3 74.1,38.4 74.3,38.4 74.3,38.6 74.4,38.7 74.5,39 74.6,39.1 74.8,39.2 
				74.9,39.3 76,39.4 76.1,39.5 76.2,39.6 76.4,39.7 76.5,39.8 76.9,39.8 77,39.7 77.1,39.5 77.1,39.2 77,39.1 76.9,39 76.8,38.9 
				76.8,38.7 76.7,38.7 76.5,38.7 76.5,38.3 76.5,38.2 76.4,38 76.2,37.9 76.1,37.8 75.9,37.8 75.9,37.6 75.7,37.5 75.6,37.4 
				75.5,37.3 75.2,37.2 75.1,37.2 74.7,37.1 74.6,37 74.6,36.9 73.7,36.8 73.5,36.7 73.1,36.7 			"/>
			<polygon fill-rule="evenodd" clip-rule="evenodd" fill="#B24642" points="56.3,39.8 56.2,40.1 56,40.2 55.7,40.2 55.7,40.3 
				55.6,40.4 55.4,40.5 55.4,40.7 55.3,41 55.3,41.4 55.3,41.7 55.3,43.1 55.4,43.2 55.4,43.2 55.6,43.3 56,43.3 56.3,43.2 
				56.3,43.1 56.4,43 56.5,42.9 56.6,42.5 56.7,42 56.7,41.7 56.8,41.3 56.9,41.2 57,40.9 57,40.5 57,40.2 57,39.9 56.9,39.7 
				56.4,39.7 			"/>
			<polygon fill-rule="evenodd" clip-rule="evenodd" fill="#B24642" points="72.9,39.4 72.7,39.5 72.6,39.6 72.5,39.7 72.4,39.8 
				71.9,39.9 71.8,40 71.7,40.1 71.5,40.2 71.4,40.2 71.2,40.3 71.1,40.4 71,40.5 70.9,40.7 70.9,40.8 70.6,40.9 70.5,41 70.4,41.1 
				70.4,41.3 70.2,41.3 69.8,41.4 69.7,41.5 69.6,41.6 69.5,41.7 69.4,41.8 69.4,42 69.2,42 69.1,42.1 69.1,43.2 69.2,44.2 
				69.3,44.3 69.3,44.7 69.3,45 69.3,45.3 69.2,45.4 69.2,45.6 69.3,45.8 69.3,45.9 69.5,46 69.8,46.1 70.1,46.1 70.7,46 71.5,45.9 
				71.7,45.8 71.8,45.6 72.9,45.5 73.1,45.5 73.4,45.6 73.4,45.8 73.5,45.9 73.6,46 73.7,46.1 73.9,46.2 74,46.2 74.1,46.3 
				74.3,46.3 74.3,46.5 74.4,46.6 74.5,47.3 74.6,47.4 74.9,47.4 74.9,47.6 75.1,47.7 75.3,47.8 75.3,48.5 75.4,48.6 75.5,48.8 
				75.5,48.9 75.6,49 76.2,49 76.4,48.9 76.5,48.8 76.5,47.8 76.5,47.8 76.2,47.7 75.5,47.7 75.5,47.6 75.9,47.6 75.9,47.4 
				76.2,47.4 76.4,47.3 76.5,47.2 76.7,47.1 76.8,47 76.8,46.9 76.9,46.7 77,46.2 77.1,46 77.1,45.9 77.2,45.8 77.2,45.5 77.4,45.5 
				77.4,45.4 77.5,45.2 77.6,44.6 77.6,43.8 77.5,43.3 77.4,43 77.4,42.9 77.2,42.8 77.1,42.5 77.1,42.4 77,42.3 76.9,42.2 
				76.8,42.1 76.8,42 76.6,42 76.6,41.7 76.5,41.6 76.5,41.5 76.4,41.4 76.2,41.4 76.2,41.2 76.2,40.9 76.1,40.7 76,40.5 75.9,40.2 
				75.8,40.2 75.7,39.8 75.6,39.5 75.5,39.4 75.1,39.4 75,39.5 74.9,39.6 74.9,40.2 74.9,40.5 74.5,40.4 74.4,40.3 74.2,40.3 
				74.3,40.2 74.4,40.1 74.4,39.7 74.1,39.6 74,39.5 73.8,39.4 73.5,39.3 73.1,39.3 			"/>
			<polygon fill-rule="evenodd" clip-rule="evenodd" fill="#B24642" points="81.2,45.9 81.2,46.2 81.3,46.3 81.4,47.3 81.4,47.4 
				81.5,47.7 81.1,47.7 80.9,47.8 80.8,47.8 80.8,47.9 80.7,48.1 80.5,48.2 80.5,48.4 80.4,48.5 80.3,48.7 80.2,48.8 80.1,48.9 
				80,49 79.9,49.1 79.9,49.2 79.9,49.5 79.9,49.6 80.1,49.7 80.2,49.8 80.4,49.9 80.5,50 80.7,50 80.8,49.9 80.9,49.8 81.1,49.7 
				81.1,49.6 81.3,49.5 81.4,49.4 81.4,49.1 81.5,48.9 81.6,48.8 81.7,48.6 81.7,48.1 81.8,48.2 82,48.2 82.1,48.1 82.3,48 
				82.3,47.8 82.4,47.7 82.5,47.6 82.5,46.9 82.3,46.9 82.3,46.7 82.1,46.7 82.1,46.5 82,46.1 82,45.9 81.9,45.8 81.3,45.8 			"/>
		</g>
	</g>
	<path fill="#FFFFFF" stroke="#1692CB" stroke-width="0.9507" stroke-miterlimit="10" d="M25.8,24.3h7.8v15.2h-7.4l-6.7-6.7
		l-0.1,6.7h-7.2V24.3h7.1l6.4,6.2L25.8,24.3L25.8,24.3z M54.4,24.3h8.5l-8.2,15.2h-9.7l-8.4-15.2h7.8l5.1,8.1L54.4,24.3L54.4,24.3z
		 M88.3,28.8c-0.9-3.7-8.6-5.1-12.4-5.1c-4.3,0-14.4,1.6-14.2,7.8c0.2,6.3,9.5,8,14,7.9c5.3-0.1,11.5-2,13.1-6.7L80.9,32
		c-0.9,2.5-4.3,2.5-6.1,2.5c-1.9,0-3.2-1.7-3.4-2.9c-0.5-5.3,8.2-5.1,9.5-1.4L88.3,28.8z"/>
	<g>
		<g>
			<path fill="#FFFFFF" d="M8.2,74H6.5v-9h1.7V74z"/>
			<path fill="#FFFFFF" d="M15.2,67.7h-1.6v-0.2c0-0.4-0.1-0.8-0.2-1c-0.2-0.3-0.4-0.4-0.8-0.4c-0.3,0-0.5,0.1-0.7,0.2
				c-0.2,0.1-0.2,0.3-0.2,0.6c0,0.3,0.1,0.6,0.3,0.8c0.1,0.1,0.3,0.3,0.7,0.5c0.3,0.2,0.7,0.5,1.1,0.7c0.4,0.3,0.8,0.6,1,0.8
				c0.3,0.3,0.5,0.6,0.6,0.9c0.1,0.3,0.2,0.6,0.2,1.1c0,0.8-0.3,1.5-0.8,1.9c-0.5,0.5-1.2,0.7-2,0.7c-1,0-1.7-0.3-2.1-0.8
				c-0.4-0.5-0.6-1.1-0.6-2v-0.7h1.7v0.5v0.2c0,0.4,0.1,0.7,0.3,1c0.2,0.2,0.4,0.3,0.8,0.3c0.7,0,1-0.4,1-1.1c0-0.3-0.1-0.5-0.2-0.7
				c-0.1-0.2-0.3-0.4-0.5-0.5c-0.2-0.2-0.5-0.4-1-0.7c-0.8-0.5-1.3-1-1.6-1.4c-0.3-0.4-0.4-0.9-0.4-1.4c0-1.6,0.9-2.4,2.7-2.4
				c0.9,0,1.6,0.2,2,0.7C15,65.9,15.2,66.7,15.2,67.7z"/>
			<path fill="#FFFFFF" d="M16.8,70.1v-1.3c0-1.4,0.2-2.3,0.5-2.9c0.4-0.8,1.3-1.1,2.5-1.1c1.2,0,2.1,0.4,2.5,1.1
				c0.3,0.6,0.5,1.5,0.5,2.9v1.3c0,1,0,1.7-0.1,2.1c-0.1,0.7-0.4,1.2-0.8,1.5c-0.5,0.4-1.1,0.5-2,0.5c-0.9,0-1.5-0.2-2-0.5
				c-0.4-0.3-0.7-0.8-0.8-1.5C16.9,71.8,16.8,71,16.8,70.1z M18.6,68.4v2.5c0,0.6,0.1,1,0.2,1.3c0.2,0.5,0.5,0.7,1,0.7
				c0.5,0,0.9-0.2,1.1-0.7c0.1-0.3,0.2-0.8,0.2-1.4v-2.4c0-0.6-0.1-1.1-0.2-1.4c-0.2-0.6-0.5-0.9-1.1-0.9c-0.5,0-0.8,0.2-1,0.7
				c-0.1,0.3-0.2,0.7-0.2,1.3V68.4z"/>
			<path fill="#FFFFFF" d="M33.5,68.4v2.2c0,1.4-0.2,2.4-0.6,2.9c-0.4,0.5-1,0.8-2,0.8c-0.7,0-1.2-0.2-1.6-0.5
				c-0.4-0.3-0.7-0.8-0.7-1.5v-0.1h1.6c0,0.2,0,0.4,0.1,0.5c0.1,0.2,0.3,0.3,0.5,0.3H31c0.4,0,0.7-0.2,0.8-0.6
				c0.1-0.2,0.1-0.6,0.1-1.1v-0.6c-0.2,0.2-0.3,0.3-0.5,0.4c-0.2,0.1-0.5,0.2-0.9,0.2c-0.7,0-1.2-0.2-1.5-0.7
				c-0.3-0.5-0.5-1.2-0.5-2.1c0-1.2,0.2-2,0.5-2.6c0.4-0.6,1-0.9,2-0.9c0.9,0,1.6,0.3,2,0.9c0.4,0.5,0.5,1.3,0.5,2.4V68.4z
				 M31.8,68.3v-0.2c0-0.6,0-1.1-0.1-1.3c-0.1-0.4-0.3-0.5-0.7-0.5H31c-0.3,0-0.6,0.1-0.7,0.4c-0.1,0.2-0.2,0.6-0.2,1.1v0.6v0.3
				c0,0.5,0.1,0.9,0.2,1.1c0.1,0.2,0.3,0.3,0.6,0.3c0.4,0,0.6-0.2,0.7-0.5C31.8,69.2,31.8,68.8,31.8,68.3z"/>
			<path fill="#FFFFFF" d="M35,71.6v-4.1c0-0.9,0.2-1.6,0.7-2c0.4-0.4,1-0.6,1.8-0.6c0.8,0,1.4,0.2,1.8,0.6c0.4,0.4,0.7,1.1,0.7,2
				v4.1c0,0.9-0.2,1.6-0.7,2c-0.4,0.4-1,0.6-1.8,0.6c-0.8,0-1.4-0.2-1.8-0.6C35.2,73.2,35,72.5,35,71.6z M36.6,67.5v4.1v0.2
				c0,0.4,0.1,0.7,0.2,0.9c0.1,0.1,0.3,0.2,0.5,0.2c0.2,0,0.4-0.1,0.5-0.2c0.2-0.2,0.2-0.5,0.2-0.9v-4.4c0-0.4-0.1-0.7-0.2-0.9
				c-0.1-0.2-0.3-0.3-0.5-0.3c-0.2,0-0.4,0.1-0.5,0.2c-0.2,0.2-0.2,0.5-0.2,0.9V67.5z"/>
			<path fill="#FFFFFF" d="M41.4,71.6v-4.1c0-0.9,0.2-1.6,0.7-2c0.4-0.4,1-0.6,1.8-0.6c0.8,0,1.4,0.2,1.8,0.6c0.4,0.4,0.7,1.1,0.7,2
				v4.1c0,0.9-0.2,1.6-0.7,2c-0.4,0.4-1,0.6-1.8,0.6c-0.8,0-1.4-0.2-1.8-0.6C41.6,73.2,41.4,72.5,41.4,71.6z M43,67.5v4.1v0.2
				c0,0.4,0.1,0.7,0.2,0.9c0.1,0.1,0.3,0.2,0.5,0.2c0.2,0,0.4-0.1,0.5-0.2c0.2-0.2,0.2-0.5,0.2-0.9v-4.4c0-0.4-0.1-0.7-0.2-0.9
				c-0.1-0.2-0.3-0.3-0.5-0.3c-0.2,0-0.4,0.1-0.5,0.2C43.1,66.7,43,67,43,67.4V67.5z"/>
			<path fill="#FFFFFF" d="M49.8,74v-6.3h-2.1v-1.2c0.7,0,1.2-0.1,1.6-0.3c0.5-0.2,0.8-0.7,0.9-1.3h1.3v9H49.8z"/>
			<path fill="#FFFFFF" d="M58,68.9l1.1,2c0.2-0.6,0.3-1.1,0.3-1.7h1.4c0,1.1-0.3,2.1-0.8,3l1.1,1.8h-1.8l-0.3-0.6
				c-0.3,0.3-0.6,0.5-0.9,0.6c-0.3,0.1-0.7,0.2-1.2,0.2c-0.7,0-1.3-0.3-1.7-0.8c-0.5-0.5-0.7-1.2-0.7-1.9c0-0.6,0.2-1.2,0.5-1.7
				c0.3-0.4,0.7-0.8,1.3-1.2c-0.2-0.4-0.4-0.7-0.5-0.9c-0.2-0.4-0.2-0.7-0.2-1c0-0.7,0.2-1.2,0.7-1.5c0.4-0.3,0.9-0.4,1.4-0.4
				c0.5,0,0.9,0.2,1.3,0.5c0.4,0.4,0.6,0.8,0.6,1.4c0,0.5-0.1,0.9-0.4,1.3C58.8,68.3,58.4,68.6,58,68.9z M58.2,72.4l-1.5-2.5
				c-0.2,0.1-0.3,0.2-0.5,0.5c-0.2,0.3-0.3,0.6-0.3,1v0.2c0.1,0.4,0.2,0.7,0.4,0.9c0.2,0.3,0.5,0.4,0.8,0.4c0.2,0,0.4,0,0.6-0.1
				C57.9,72.7,58,72.6,58.2,72.4z M57.3,67.8c0.2-0.2,0.4-0.3,0.5-0.5c0.2-0.2,0.2-0.4,0.2-0.6c0-0.2-0.1-0.4-0.2-0.5
				C57.7,66,57.5,66,57.4,66h0c-0.1,0-0.3,0.1-0.4,0.2c-0.1,0.1-0.2,0.2-0.2,0.4c0,0.2,0.1,0.4,0.2,0.6
				C57.1,67.4,57.2,67.6,57.3,67.8z"/>
			<path fill="#FFFFFF" d="M64.7,74v-6.3h-2.1v-1.2c0.7,0,1.2-0.1,1.6-0.3c0.5-0.2,0.8-0.7,0.9-1.3h1.3v9H64.7z"/>
			<path fill="#FFFFFF" d="M68.9,66.5v-1.3H74v1.2c-0.4,0.7-0.7,1.4-1,2.2c-0.2,0.6-0.5,1.4-0.7,2.2c-0.2,0.7-0.3,1.2-0.4,1.6
				c-0.1,0.6-0.2,1.2-0.2,1.7H70c0-0.6,0.1-1.2,0.2-1.9c0.1-0.6,0.3-1.3,0.5-1.9c0-0.1,0.3-0.7,0.7-1.8c0.1-0.3,0.3-0.6,0.4-1
				c0.2-0.4,0.4-0.8,0.6-1.1H68.9z"/>
			<path fill="#FFFFFF" d="M75.5,71.6v-4.1c0-0.9,0.2-1.6,0.7-2c0.4-0.4,1-0.6,1.8-0.6c0.8,0,1.4,0.2,1.8,0.6c0.4,0.4,0.7,1.1,0.7,2
				v4.1c0,0.9-0.2,1.6-0.7,2c-0.4,0.4-1,0.6-1.8,0.6c-0.8,0-1.4-0.2-1.8-0.6C75.7,73.2,75.5,72.5,75.5,71.6z M77.2,67.5v4.1v0.2
				c0,0.4,0.1,0.7,0.2,0.9c0.1,0.1,0.3,0.2,0.5,0.2c0.2,0,0.4-0.1,0.5-0.2c0.2-0.2,0.2-0.5,0.2-0.9v-4.4c0-0.4-0.1-0.7-0.2-0.9
				c-0.1-0.2-0.3-0.3-0.5-0.3c-0.2,0-0.4,0.1-0.5,0.2c-0.2,0.2-0.2,0.5-0.2,0.9V67.5z"/>
			<path fill="#FFFFFF" d="M86.7,74h-4.9c0-0.2,0-0.4,0-0.6c0-0.2,0.1-0.5,0.1-1c0.1-0.3,0.2-0.7,0.4-1.1c0.3-0.5,0.7-0.9,1.1-1.4
				l0.8-0.9c0.3-0.4,0.5-0.6,0.6-0.8c0.1-0.3,0.2-0.6,0.2-1c0-0.4-0.1-0.7-0.2-0.8c-0.1-0.2-0.3-0.3-0.6-0.3c-0.2,0-0.4,0-0.5,0.1
				c-0.1,0.1-0.2,0.2-0.3,0.3c-0.1,0.2-0.1,0.3-0.1,0.4c0,0.1,0,0.3,0,0.5V68h-1.6v-0.3v-0.1c0-0.7,0.1-1.3,0.3-1.7
				c0.4-0.7,1.1-1.1,2.2-1.1h0c0.7,0,1.3,0.2,1.7,0.6c0.5,0.4,0.7,1,0.7,1.7c0,0.5-0.1,0.9-0.3,1.3c-0.2,0.4-0.5,0.8-0.8,1.2
				l-1.3,1.4c-0.2,0.3-0.4,0.5-0.6,0.7c-0.2,0.3-0.3,0.6-0.3,0.9h3.1V74z"/>
			<path fill="#FFFFFF" d="M88.3,71.6v-4.1c0-0.9,0.2-1.6,0.7-2c0.4-0.4,1-0.6,1.8-0.6c0.8,0,1.4,0.2,1.8,0.6c0.4,0.4,0.7,1.1,0.7,2
				v4.1c0,0.9-0.2,1.6-0.7,2c-0.4,0.4-1,0.6-1.8,0.6c-0.8,0-1.4-0.2-1.8-0.6C88.5,73.2,88.3,72.5,88.3,71.6z M90,67.5v4.1v0.2
				c0,0.4,0.1,0.7,0.2,0.9c0.1,0.1,0.3,0.2,0.5,0.2s0.4-0.1,0.5-0.2c0.2-0.2,0.2-0.5,0.2-0.9v-4.4c0-0.4-0.1-0.7-0.2-0.9
				c-0.1-0.2-0.3-0.3-0.5-0.3c-0.2,0-0.4,0.1-0.5,0.2C90.1,66.7,90,67,90,67.4V67.5z"/>
		</g>
	</g>
</g>
<g>
	<path fill="#FFFFFF" d="M114.5,21.2v-4.7h3.5v24.1h-3.7l-2.8-8.6c-0.8-2.5-1.6-5.7-2.5-9.6c0.1,2.3,0.2,4.6,0.4,6.9
		c0,0.9,0,2,0.1,3.6c0.1,1.5,0.1,2.6,0.1,3.2v4.6H106V16.5h3.7l2.7,8.7c0.5,1.5,0.9,2.9,1.3,4.3c0.4,1.4,0.8,3.1,1.2,5.2l-0.3-6.8
		c0-1.2,0-2.2,0-3.2C114.6,23.8,114.5,22.6,114.5,21.2z"/>
	<path fill="#FFFFFF" d="M125.7,40.6H122l4.5-24.1h4.8l4.3,24.1h-3.8l-1-6.1h-4.1L125.7,40.6z M128.2,24.1l-1.1,6.9h3l-1-6.9
		c-0.1-0.6-0.1-1-0.2-1.3c0-0.3-0.1-1-0.2-2c0-0.3,0-0.5,0-0.9c0-0.3,0-0.6-0.1-0.7l-0.2,1.6c-0.1,0.6-0.1,1.1-0.1,1.7
		C128.4,23,128.3,23.5,128.2,24.1z"/>
	<path fill="#FFFFFF" d="M146.6,31.9l2-15.4h3.8l-4.1,24.1h-4.7l-4.2-24.1h3.8l2.2,15.4c0.1,0.6,0.2,1.3,0.3,2.2
		c0.1,0.9,0.1,1.5,0.2,1.9c0,0.3,0,0.7,0.1,1.2c0,0.4,0.1,0.7,0.1,0.8c0-0.2,0.1-0.5,0.1-1c0-0.4,0.1-0.8,0.1-1
		C146.3,34.6,146.4,33.2,146.6,31.9z"/>
	<path fill="#FFFFFF" d="M159.8,40.6h-3.5V16.5h3.5V40.6z"/>
	<path fill="#FFFFFF" d="M171.7,32h3.5l-0.1,1.4c0,2.4-0.4,4.2-1.2,5.5c-0.9,1.5-2.3,2.2-4.1,2.2c-1.8,0-3.2-0.5-4.1-1.4
		c-0.8-0.9-1.4-2.2-1.7-3.9c-0.2-1.2-0.3-3.2-0.3-5.7v-3.5c0-3.6,0.3-6.1,1-7.6c0.9-2,2.6-3,5.2-3c1.6,0,2.9,0.5,3.8,1.6
		c0.9,1.1,1.4,2.6,1.4,4.6l0.1,1.3V24h-3.5c-0.2-1.8-0.3-2.8-0.3-2.8c-0.2-1.1-0.7-1.6-1.5-1.6c-1,0-1.7,0.6-2.1,1.8
		c-0.3,0.8-0.4,1.9-0.4,3.3v1v6.7c0,1.5,0.1,2.6,0.4,3.3c0.4,1.2,1.1,1.9,2.2,1.9c0.8,0,1.4-0.7,1.6-2.2
		C171.6,34.7,171.7,33.5,171.7,32z"/>
	<path fill="#FFFFFF" d="M179.2,30.1v-3.5c0-3.6,0.3-6.1,1-7.6c0.9-2,2.6-3,5.2-3c2.6,0,4.3,1,5.2,3c0.7,1.5,1,4,1,7.6v3.5
		c0,2.6-0.1,4.5-0.3,5.7c-0.3,1.8-0.9,3.1-1.7,3.9c-0.9,1-2.3,1.4-4.2,1.4c-1.8,0-3.2-0.5-4.1-1.4c-0.8-0.9-1.4-2.2-1.7-3.9
		C179.3,34.6,179.2,32.6,179.2,30.1z M182.8,25.6v6.7c0,1.5,0.1,2.6,0.4,3.3c0.4,1.2,1.1,1.9,2.2,1.9c1.1,0,1.8-0.6,2.2-1.9
		c0.2-0.8,0.4-2,0.4-3.7v-6.4c0-1.7-0.1-2.9-0.3-3.8c-0.4-1.5-1.1-2.3-2.2-2.3c-1,0-1.7,0.6-2.1,1.8c-0.3,0.8-0.4,1.9-0.4,3.3V25.6z
		"/>
	<path fill="#FFFFFF" d="M203.9,21.2v-4.7h3.5v24.1h-3.7L201,32c-0.8-2.5-1.6-5.7-2.5-9.6c0.1,2.3,0.2,4.6,0.4,6.9
		c0,0.9,0,2,0.1,3.6c0,1.5,0.1,2.6,0.1,3.2v4.6h-3.5V16.5h3.7l2.7,8.7c0.5,1.5,0.9,2.9,1.3,4.3c0.4,1.4,0.8,3.1,1.2,5.2L204,28
		c0-1.2,0-2.2,0-3.2C203.9,23.8,203.9,22.6,203.9,21.2z"/>
	<path fill="#FFFFFF" d="M211.3,20.1v-3.5H223v3.5H219v20.5h-3.5V20.1H211.3z"/>
	<path fill="#FFFFFF" d="M231.2,30.2h-0.7v10.4H227V16.5h6.7c1.7,0,2.9,0.4,3.8,1.2c1,0.9,1.5,2.5,1.5,4.6c0,1.6-0.2,2.8-0.6,3.7
		c-0.5,1.2-1.2,1.9-2.3,2.1c1,0.2,1.7,0.7,2.1,1.5c0.4,0.7,0.6,1.7,0.6,2.9v1.1c0,1.4,0.1,2.8,0.2,4.2c0.1,1.4,0.3,2.2,0.6,2.4v0.4
		h-3.9c-0.2-0.5-0.3-1.2-0.3-2.2c-0.1-1-0.1-1.9-0.1-2.9v-1c0-1.1-0.1-1.9-0.2-2.4c-0.2-0.9-0.5-1.4-1.1-1.6
		c-0.3-0.1-0.6-0.2-1.1-0.2C232.6,30.2,231.9,30.2,231.2,30.2z M230.5,20.1v6.6h2.8c0.6,0,1.1-0.3,1.5-0.9c0.4-0.6,0.6-1.4,0.6-2.6
		c0-1.3-0.2-2.1-0.5-2.5c-0.4-0.4-0.9-0.6-1.7-0.6H230.5z"/>
	<path fill="#FFFFFF" d="M243.5,30.1v-3.5c0-3.6,0.3-6.1,1-7.6c0.9-2,2.6-3,5.2-3c2.6,0,4.3,1,5.2,3c0.7,1.5,1,4,1,7.6v3.5
		c0,2.6-0.1,4.5-0.3,5.7c-0.3,1.8-0.9,3.1-1.7,3.9c-0.9,1-2.3,1.4-4.2,1.4c-1.8,0-3.2-0.5-4.1-1.4c-0.8-0.9-1.4-2.2-1.7-3.9
		C243.6,34.6,243.5,32.6,243.5,30.1z M247.2,25.6v6.7c0,1.5,0.1,2.6,0.4,3.3c0.4,1.2,1.1,1.9,2.2,1.9c1.1,0,1.8-0.6,2.2-1.9
		c0.2-0.8,0.4-2,0.4-3.7v-6.4c0-1.7-0.1-2.9-0.3-3.8c-0.4-1.5-1.1-2.3-2.2-2.3c-1,0-1.7,0.6-2.1,1.8c-0.3,0.8-0.4,1.9-0.4,3.3V25.6z
		"/>
	<path fill="#FFFFFF" d="M269.9,40.6h-10.1V16.5h3.5v20.5h6.5V40.6z"/>
</g>
</svg>
